<svg width="18" height="18" viewBox="0 0 18 18" fill="none" xmlns="http://www.w3.org/2000/svg">
<path d="M8.99975 17.5C8.78708 17.5 8.609 17.4281 8.4655 17.2843C8.32183 17.1406 8.25 16.9625 8.25 16.75V9.75H1.25C1.0375 9.75 0.859417 9.67808 0.71575 9.53425C0.571917 9.39042 0.5 9.21225 0.5 8.99975C0.5 8.78708 0.571917 8.609 0.71575 8.4655C0.859417 8.32183 1.0375 8.25 1.25 8.25H8.25V1.25C8.25 1.0375 8.32192 0.859417 8.46575 0.71575C8.60958 0.571917 8.78775 0.5 9.00025 0.5C9.21292 0.5 9.391 0.571917 9.5345 0.71575C9.67817 0.859417 9.75 1.0375 9.75 1.25V8.25H16.75C16.9625 8.25 17.1406 8.32192 17.2843 8.46575C17.4281 8.60958 17.5 8.78775 17.5 9.00025C17.5 9.21292 17.4281 9.391 17.2843 9.5345C17.1406 9.67817 16.9625 9.75 16.75 9.75H9.75V16.75C9.75 16.9625 9.67808 17.1406 9.53425 17.2843C9.39042 17.4281 9.21225 17.5 8.99975 17.5Z" fill="#1C1B1F"/>
</svg>
