<svg width="31" height="31" viewBox="0 0 31 31" fill="none" xmlns="http://www.w3.org/2000/svg">
<mask id="mask0_27_338" style="mask-type:alpha" maskUnits="userSpaceOnUse" x="0" y="0" width="31" height="31">
<rect x="0.741936" y="0.741943" width="30" height="30" fill="#D9D9D9"/>
</mask>
<g mask="url(#mask0_27_338)">
<path d="M13.2851 20.1482L9.71787 16.5329C9.49996 16.3069 9.391 16.0432 9.391 15.742C9.391 15.4407 9.49996 15.1771 9.71787 14.951L13.2851 11.3357C13.4694 11.1434 13.6766 11.0952 13.9066 11.191C14.1366 11.2869 14.2516 11.469 14.2516 11.7373V19.7589C14.2516 20.0224 14.1366 20.2012 13.9066 20.2954C13.6766 20.3896 13.4694 20.3405 13.2851 20.1482ZM16.9919 25.4295V6.05447C16.9919 5.78885 17.0818 5.56624 17.2616 5.38666C17.4414 5.20687 17.6641 5.11697 17.9298 5.11697C18.1956 5.11697 18.4182 5.20687 18.5976 5.38666C18.7771 5.56624 18.8669 5.78885 18.8669 6.05447V25.4295C18.8669 25.6951 18.777 25.9177 18.5972 26.0973C18.4175 26.2771 18.1947 26.367 17.9291 26.367C17.6633 26.367 17.4407 26.2771 17.2613 26.0973C17.0817 25.9177 16.9919 25.6951 16.9919 25.4295Z" fill="#1C1B1F"/>
</g>
</svg>
