<svg width="16" height="18" viewBox="0 0 16 18" fill="none" xmlns="http://www.w3.org/2000/svg">
<path d="M0 1.5C0 0.947715 0.447715 0.5 1 0.5H15C15.5523 0.5 16 0.947715 16 1.5C16 2.05228 15.5523 2.5 15 2.5H1C0.447715 2.5 0 2.05228 0 1.5ZM3 16.5C3 15.9477 3.44772 15.5 4 15.5H12C12.5523 15.5 13 15.9477 13 16.5C13 17.0523 12.5523 17.5 12 17.5H4C3.44772 17.5 3 17.0523 3 16.5ZM3 6.5C3 5.94772 3.44772 5.5 4 5.5H12C12.5523 5.5 13 5.94772 13 6.5C13 7.05228 12.5523 7.5 12 7.5H4C3.44772 7.5 3 7.05228 3 6.5ZM0 11.5C0 10.9477 0.447715 10.5 1 10.5H15C15.5523 10.5 16 10.9477 16 11.5C16 12.0523 15.5523 12.5 15 12.5H1C0.447715 12.5 0 12.0523 0 11.5Z" fill="#52525B"/>
</svg>
