<svg width="15" height="15" viewBox="0 0 15 15" fill="none" xmlns="http://www.w3.org/2000/svg">
<g clip-path="url(#clip0_181_224)">
<path d="M0 5.62622C0.0618266 5.39183 0.102131 5.14961 0.18861 4.925C0.610831 3.82816 1.62432 3.14376 2.83542 3.12263C2.91837 3.12107 3.00133 3.12068 3.08429 3.12263C3.47912 3.13202 3.74912 3.38637 3.7499 3.74833C3.75068 4.11225 3.48303 4.36621 3.09016 4.38147C2.8812 4.38969 2.66755 4.38382 2.46485 4.42647C1.76793 4.57204 1.26118 5.19461 1.25923 5.90444C1.25414 7.50528 1.25727 9.10612 1.25727 10.707C1.25727 10.7394 1.26236 10.7719 1.26705 10.824C1.85832 10.5407 2.47972 10.6287 3.08937 10.6244C3.56168 10.6213 3.8669 11.0341 3.71821 11.4524C3.6329 11.6923 3.46033 11.8511 3.20207 11.866C2.87611 11.8848 2.54859 11.8738 2.22185 11.8805C1.72841 11.8907 1.37466 12.1716 1.27253 12.6306C1.1524 13.1699 1.58127 13.7372 2.13302 13.7396C3.85125 13.7462 5.56948 13.7462 7.28772 13.738C7.66728 13.7361 7.99129 13.567 8.27107 13.3103C8.52855 13.074 8.87408 13.0603 9.12138 13.2685C9.40782 13.5095 9.42934 13.9321 9.15543 14.2006C8.72538 14.622 8.20964 14.8803 7.6125 14.971C7.57494 14.9769 7.53815 14.9902 7.50098 15.0004H1.90449C1.88258 14.9914 1.86145 14.9781 1.83876 14.9734C0.932878 14.7989 0.349829 14.2651 0.0743485 13.3898C0.0442178 13.2935 0.0246524 13.1941 0 13.0963C0 10.6064 0 8.1165 0 5.62661L0 5.62622Z" fill="black"/>
<path d="M4.99585 6.21202C4.99585 5.09914 4.99272 3.98626 4.99663 2.87338C5.00133 1.58911 5.76047 0.516142 6.94496 0.142834C7.21026 0.0590943 7.49827 0.0109634 7.77609 0.00861556C9.26032 -0.00429759 10.7446 0.00078941 12.2284 0.00313726C13.6003 0.00509379 14.7942 1.06045 14.9719 2.42572C14.9883 2.55094 14.9985 2.67812 14.9989 2.80412C15.0004 4.89331 15.0008 6.9825 14.9996 9.0717C14.9989 10.4855 13.9431 11.6802 12.5367 11.8586C12.4064 11.875 12.2738 11.8789 12.1419 11.8789C10.5062 11.8801 8.87097 11.8832 7.23531 11.8785C6.16156 11.8754 5.30029 11.2067 5.05846 10.1889C5.0115 9.99205 4.99898 9.78348 4.99781 9.58C4.99233 8.45734 4.99507 7.33468 4.99507 6.21202H4.99585ZM6.26408 7.70447C6.65813 7.51233 7.05922 7.49825 7.46696 7.49903C9.49785 7.50372 11.5287 7.50138 13.5596 7.50138C13.6168 7.50138 13.6739 7.50138 13.7381 7.50138C13.7404 7.45285 13.7435 7.41959 13.7435 7.38672C13.7435 5.84928 13.7474 4.31144 13.7408 2.77399C13.7373 1.95028 13.0501 1.2651 12.2257 1.26158C10.7414 1.25532 9.25719 1.2565 7.77335 1.26471C7.59766 1.2655 7.41335 1.30658 7.24822 1.3688C6.62721 1.6028 6.25938 2.15611 6.25665 2.86399C6.25117 4.44057 6.25469 6.01715 6.25508 7.59373C6.25508 7.62229 6.25938 7.65047 6.26408 7.70525V7.70447ZM13.7279 8.76256C13.6997 8.7606 13.6805 8.75787 13.661 8.75787C11.4931 8.75787 9.32489 8.75787 7.15704 8.76021C7.06626 8.76021 6.97196 8.779 6.88587 8.80795C6.44565 8.95587 6.19404 9.391 6.26995 9.86175C6.33999 10.2965 6.72387 10.617 7.21261 10.6185C8.86315 10.624 10.5133 10.6314 12.1638 10.6166C13.1847 10.6076 13.877 9.77331 13.7279 8.76217V8.76256Z" fill="black"/>
</g>
<defs>
<clipPath id="clip0_181_224">
<rect width="15.0008" height="15" fill="white"/>
</clipPath>
</defs>
</svg>
