<svg width="29" height="35" viewBox="0 0 29 35" fill="none" xmlns="http://www.w3.org/2000/svg">
<path d="M22.4603 35H6.47085C5.88485 34.8485 5.27897 34.7504 4.71592 34.5371C1.79169 33.4286 0.00646983 30.7665 0.00357551 27.5282C-0.00259906 20.8556 -9.06413e-05 14.1828 0.00589097 7.51011C0.00627688 7.05673 0.0410088 6.59965 0.103333 6.15055C0.576652 2.74268 3.65834 0.0233599 7.05956 0.0114852C9.36248 0.00350375 11.6656 -0.011875 13.9681 0.0159625C16.5082 0.0465254 18.7509 0.929541 20.588 2.68993C22.5187 4.54025 24.3983 6.448 26.2397 8.38923C27.8784 10.1167 28.8322 12.2222 28.8768 14.6167C28.9578 18.9763 28.9544 23.3384 28.9165 27.699C28.887 31.1164 26.7556 33.8666 23.5754 34.7514C23.2089 34.8534 22.8321 34.918 22.4603 35ZM14.4659 3.00042C14.2219 2.9792 14.0003 2.94377 13.7788 2.94338C11.566 2.93949 9.35302 2.92158 7.14098 2.95623C6.62464 2.96441 6.07414 3.07089 5.60255 3.27841C3.82331 4.06156 2.91797 5.47037 2.91585 7.43205C2.90832 14.1508 2.91295 20.8694 2.91392 27.5882C2.91392 27.7359 2.92376 27.8841 2.93321 28.0317C3.07581 30.2598 4.9384 32.0586 7.15295 32.0638C12.0299 32.0755 16.907 32.0677 21.784 32.0669C22.4861 32.0669 23.1501 31.8939 23.7546 31.5409C25.2844 30.6474 26.0228 29.2954 26.0201 27.514C26.0145 23.5852 26.0189 19.6564 26.0172 15.7278C26.0172 15.4777 25.979 15.2258 25.9968 14.9776C26.0207 14.6443 25.8648 14.5919 25.5753 14.5931C23.3627 14.6032 21.1497 14.5801 18.9373 14.6034C16.2199 14.632 14.3872 12.3529 14.4521 10.0682C14.515 7.84942 14.4658 5.62747 14.4658 3.40689C14.4658 3.28308 14.4658 3.15927 14.4658 3.00042H14.4659ZM17.3919 3.91361C17.3805 4.05552 17.3724 4.10867 17.3724 4.16201C17.372 6.18831 17.3717 8.21461 17.3744 10.2409C17.3744 10.353 17.3875 10.4687 17.4164 10.5767C17.6011 11.2656 18.1259 11.6567 18.9072 11.6597C20.8369 11.6669 22.7669 11.6626 24.6968 11.6612C24.7829 11.6612 24.8689 11.6456 25.0405 11.6291C24.7335 11.2067 24.5037 10.7947 24.1863 10.4698C22.3252 8.56443 20.4504 6.67226 18.5622 4.79449C18.233 4.46705 17.8166 4.22878 17.3923 3.91361H17.3919Z" fill="#3C4CA6"/>
<path d="M21.3552 27.689C20.4989 27.6709 19.5119 27.2942 18.7052 26.4811C18.2714 26.0439 18.2411 25.5062 18.6151 25.1179C18.9952 24.7231 19.51 24.7367 19.9644 25.1741C20.4753 25.666 21.077 25.8944 21.7782 25.8463C21.9327 25.8358 22.0944 25.8035 22.2349 25.7406C22.5212 25.6125 22.7703 25.4264 22.8022 25.0783C22.835 24.7203 22.578 24.5305 22.313 24.4098C21.6572 24.111 20.9915 23.8309 20.3173 23.5767C19.1239 23.1266 18.6639 22.0497 18.7416 21.2062C18.8393 20.146 19.6472 19.2613 20.7727 19.0195C21.9906 18.7578 23.0733 19.1005 24.0454 19.8367C24.4606 20.1511 24.5197 20.6794 24.2301 21.0822C23.9298 21.4998 23.4158 21.5977 22.9749 21.2938C22.4875 20.958 21.9771 20.7094 21.3703 20.7812C21.185 20.8032 20.9691 20.841 20.8362 20.9541C20.7001 21.0699 20.5826 21.287 20.5822 21.4598C20.582 21.5856 20.7617 21.7664 20.902 21.8285C21.5094 22.0978 22.1363 22.3222 22.748 22.5823C23.6022 22.9456 24.3014 23.4869 24.5488 24.4381C24.8022 25.4122 24.4882 26.237 23.7691 26.9024C23.1694 27.457 22.4404 27.6955 21.355 27.689H21.3552Z" fill="#3C4CA6"/>
<path d="M13.7858 27.6865C12.9802 27.6635 12.0038 27.2904 11.2046 26.4877C10.7799 26.0612 10.7421 25.5033 11.1031 25.1225C11.4778 24.7272 12.0098 24.7361 12.4532 25.1683C12.9621 25.6643 13.5629 25.8913 14.2643 25.8473C14.4083 25.8383 14.5591 25.8134 14.6907 25.7575C14.9902 25.6302 15.2573 25.4498 15.2914 25.085C15.3265 24.7116 15.0604 24.523 14.7808 24.3972C14.1337 24.1066 13.4699 23.8539 12.8179 23.5739C11.737 23.11 11.1305 22.2142 11.2299 21.2477C11.3445 20.1324 12.1179 19.2692 13.2584 19.0214C14.4748 18.7571 15.56 19.0942 16.5313 19.8336C16.9641 20.163 17.0174 20.6929 16.7067 21.1032C16.3967 21.513 15.8994 21.5899 15.4465 21.2784C14.9586 20.9426 14.4424 20.7024 13.8373 20.7843C13.6436 20.8106 13.4336 20.8749 13.2773 20.9872C12.9146 21.2477 12.9727 21.6592 13.3837 21.8317C14.0277 22.1019 14.6805 22.351 15.3234 22.6242C16.114 22.9598 16.7343 23.4821 17.0157 24.3293C17.3201 25.2463 16.9805 26.3127 16.196 26.9678C15.616 27.4521 14.9279 27.6881 13.786 27.6865H13.7858Z" fill="#3C4CA6"/>
<path d="M4.2098 23.2874C4.23971 22.6181 4.21405 21.9405 4.31207 21.2815C4.48361 20.1293 5.48215 19.1811 6.59511 19.0164C7.84315 18.8316 9.07343 19.432 9.62258 20.4935C9.86339 20.9592 9.72523 21.491 9.29784 21.7425C8.84864 22.0071 8.35429 21.876 8.04537 21.3946C7.78275 20.985 7.43138 20.7633 6.9407 20.8346C6.5079 20.8974 6.23274 21.1622 6.10559 21.579C6.07317 21.6851 6.06256 21.8017 6.06237 21.9136C6.06005 22.847 6.06024 23.7805 6.06449 24.7139C6.067 25.2553 6.34794 25.6618 6.81142 25.8117C7.25772 25.9559 7.72795 25.763 8.0334 25.3102C8.38149 24.7941 8.88684 24.6514 9.33508 24.9429C9.79547 25.2421 9.88172 25.7856 9.55331 26.3184C8.88839 27.3972 7.56915 27.9242 6.35045 27.5979C5.14814 27.2759 4.28428 26.1735 4.24724 24.8936C4.2318 24.359 4.24473 23.8237 4.24473 23.2886C4.23315 23.2882 4.22138 23.2878 4.2098 23.2874Z" fill="#3C4CA6"/>
</svg>
