<svg width="36" height="36" viewBox="0 0 36 36" fill="none" xmlns="http://www.w3.org/2000/svg">
<path d="M0.40625 6.27738C0.650626 5.10282 1.24939 4.13709 2.14623 3.35305C3.38489 2.27033 4.84296 1.5963 6.39946 1.12212C9.08301 0.304538 11.831 0.0992939 14.6194 0.282177C16.8382 0.427725 18.9948 0.842406 21.0369 1.74704C22.4037 2.35259 23.6412 3.14302 24.5354 4.38027C25.0733 5.12458 25.3644 5.95734 25.3652 6.87894C25.3686 10.9141 25.3668 14.9494 25.3668 18.9846C25.3668 19.0744 25.3668 19.1642 25.3668 19.2816H22.4329V18.5252C19.4413 20.2442 16.2141 20.7727 12.8838 20.7731C9.56398 20.7735 6.34675 20.247 3.35614 18.5405C3.35614 19.0405 3.35614 19.4929 3.35614 19.9453C3.35614 20.3466 3.38589 20.7505 3.34955 21.1484C3.28766 21.825 3.58973 22.316 4.0699 22.7351C5.05938 23.5988 6.25112 24.061 7.48458 24.4297C7.97593 24.5767 8.48545 24.6619 8.98139 24.7955C9.07103 24.8196 9.19841 24.9408 9.19981 25.0191C9.21518 25.9347 9.20959 26.8505 9.20959 27.8146C7.15136 27.4962 5.20393 26.9452 3.3783 25.8854C3.36951 26.0116 3.35733 26.107 3.35733 26.2026C3.35594 27.0969 3.38868 27.9925 3.34516 28.8846C3.31601 29.4828 3.56897 29.8891 3.99902 30.2398C4.67345 30.7899 5.44012 31.1816 6.2599 31.4404C7.13978 31.7183 8.04481 31.9159 8.93886 32.1489C9.01613 32.1691 9.09319 32.1901 9.18923 32.2156V35.2202C8.32752 35.0369 7.48418 34.8888 6.65761 34.6752C5.09832 34.2723 3.6057 33.7036 2.31334 32.7068C1.38056 31.9872 0.679576 31.1085 0.453568 29.915C0.450374 29.8976 0.422622 29.8849 0.40625 29.8699C0.40625 22.0057 0.40625 14.1416 0.40625 6.27738ZM12.8834 3.13284C12.0505 3.19293 11.2151 3.23146 10.3848 3.31771C8.76177 3.48622 7.1871 3.85598 5.70027 4.54818C4.98012 4.8836 4.3003 5.28271 3.77202 5.89365C3.21338 6.53973 3.21498 7.11334 3.77361 7.76261C3.87045 7.87522 3.96568 8.0006 4.08807 8.07766C4.71458 8.47178 5.31854 8.9214 5.98817 9.22308C7.68443 9.98715 9.4945 10.3066 11.3435 10.4282C13.9138 10.5973 16.4439 10.4 18.8988 9.57387C19.9779 9.2107 21.0119 8.74571 21.8357 7.92533C22.5952 7.16904 22.5896 6.48742 21.8355 5.72714C21.2108 5.09723 20.4425 4.68934 19.6341 4.35891C17.4723 3.47484 15.2038 3.18095 12.8832 3.13323L12.8834 3.13284ZM3.35654 11.2094C3.35654 12.1933 3.33318 13.1219 3.36991 14.0479C3.38189 14.349 3.4951 14.6794 3.65881 14.9342C4.02657 15.506 4.59938 15.8632 5.18616 16.1812C6.83051 17.0723 8.61822 17.4804 10.4562 17.692C12.0195 17.8721 13.5858 17.8737 15.1531 17.705C16.7873 17.5289 18.3803 17.1941 19.8875 16.5228C20.6963 16.1626 21.4651 15.7332 22.0415 15.0322C22.2979 14.7203 22.4257 14.3678 22.4203 13.9573C22.4097 13.1325 22.4179 12.3073 22.4159 11.4826C22.4157 11.3999 22.3981 11.3172 22.3866 11.2164C19.4133 12.9007 16.2057 13.4268 12.8804 13.4286C9.55559 13.4304 6.35154 12.8921 3.35654 11.2094Z" fill="#3C4CA6"/>
<path d="M29.3403 33.355C28.7781 33.9179 28.2384 34.4583 27.6846 35.0128C27.225 34.5434 26.7474 34.056 26.2772 33.5759C25.2139 34.08 24.1828 34.1395 23.1672 33.6761C21.758 33.0332 20.9876 31.9137 20.9544 30.3606C20.9209 28.7802 20.9139 27.1965 20.9754 25.6175C21.0439 23.8585 22.5049 22.3988 24.2471 22.2425C26.0823 22.0778 27.7642 23.2621 28.1829 25.0229C28.238 25.2551 28.2751 25.4979 28.2757 25.7359C28.2797 27.3742 28.2857 29.0128 28.256 30.6507C28.2498 30.9941 28.1208 31.3433 28.003 31.6738C27.9351 31.8642 27.9425 31.9754 28.0907 32.1164C28.5211 32.5259 28.9358 32.9519 29.3401 33.355H29.3403ZM25.928 28.1055C25.928 27.3836 25.9318 26.6616 25.927 25.9399C25.9218 25.178 25.3474 24.5894 24.6183 24.5888C23.8891 24.5884 23.3113 25.1772 23.309 25.9385C23.3046 27.3824 23.3046 28.8261 23.309 30.27C23.3113 31.0449 23.8674 31.6071 24.6169 31.6073C25.366 31.6075 25.9216 31.0453 25.927 30.2714C25.932 29.5494 25.928 28.8275 25.9282 28.1057L25.928 28.1055Z" fill="#3C4CA6"/>
<path d="M18.7245 23.4195C18.291 23.9797 17.879 24.5124 17.4563 25.0584C16.8887 24.6889 16.3113 24.3882 15.6281 24.4383C15.4037 24.4547 15.1715 24.5006 14.9642 24.5852C14.619 24.7262 14.3623 24.9672 14.3503 25.3765C14.3381 25.7924 14.5495 26.0707 14.9181 26.2342C15.5969 26.5355 16.2767 26.8353 16.9598 27.1268C17.6649 27.4277 18.304 27.8196 18.78 28.4344C20.3637 30.4788 19.1034 33.5495 16.5201 33.9213C14.8001 34.1688 13.3798 33.5697 12.2118 32.3588C12.7111 31.856 13.1931 31.3707 13.6211 30.9396C14.1376 31.1864 14.646 31.4973 15.197 31.6746C15.8129 31.8726 16.445 31.8181 16.9849 31.3809C17.6268 30.861 17.6406 30.1472 16.9953 29.6405C16.7647 29.4594 16.4946 29.32 16.2262 29.1967C15.5304 28.8768 14.8219 28.5853 14.1255 28.2667C12.9269 27.7182 12.2471 26.5942 12.3132 25.2976C12.3791 24.0043 13.2238 22.8453 14.4395 22.4422C16.0511 21.9077 17.4427 22.3765 18.7243 23.4201L18.7245 23.4195Z" fill="#3C4CA6"/>
<path d="M32.4936 31.6023H35.5945V33.966H30.1573V22.2533H32.4936V31.6023Z" fill="#3C4CA6"/>
</svg>
