<svg width="12" height="12" viewBox="0 0 12 12" fill="none" xmlns="http://www.w3.org/2000/svg">
<g clip-path="url(#clip0_155_246)">
<path d="M5.08568 0C5.2306 0.0266103 5.37616 0.0485247 5.51984 0.0807701C6.18783 0.230414 6.76191 0.551616 7.24584 1.03498C7.81773 1.60632 8.38993 2.17735 8.96089 2.74963C9.4229 3.21265 9.7425 3.75832 9.89463 4.39665C9.96193 4.67841 9.76504 4.95547 9.47987 4.99303C9.43355 4.9993 9.38659 5.00243 9.33995 5.00274C8.40652 5.00337 7.47309 5.00587 6.53966 5.00211C5.78184 4.9993 5.18929 4.52751 5.02964 3.80277C5.0046 3.68944 4.99646 3.57079 4.99615 3.45433C4.99333 2.68889 4.99459 1.92346 4.99459 1.15802C4.99459 1.11231 4.99459 1.0666 4.99459 1.00587C4.93605 1.00587 4.89035 1.00587 4.84465 1.00587C4.05176 1.00587 3.25888 1.0018 2.46631 1.0065C1.67593 1.01119 1.00825 1.67488 1.007 2.46349C1.00356 4.82241 1.00356 7.18103 1.007 9.53995C1.00825 10.3214 1.67687 10.9851 2.45942 10.9923C2.9709 10.9969 3.48269 10.9913 3.99417 10.9948C4.24521 10.9963 4.45181 11.171 4.495 11.4058C4.53726 11.6359 4.41424 11.8698 4.19607 11.958C4.13284 11.9834 4.06053 11.9966 3.99198 11.9969C3.47267 12 2.95306 12.0006 2.43376 11.9981C1.30343 11.9925 0.253872 11.1159 0.0500952 10.0036C0.018793 9.83204 0.00188982 9.65547 0.00188982 9.4811C-0.00124039 7.16131 -0.000301328 4.84151 1.16942e-05 2.52172C0.000324716 1.2391 0.901514 0.202865 2.17332 0.0209752C2.19148 0.0184707 2.20869 0.00720044 2.22622 0C3.17937 0 4.13252 0 5.08568 0ZM6.03413 1.33083C6.02255 1.33959 6.01097 1.34836 5.99939 1.35713C5.99939 2.04023 5.99939 2.72302 5.99939 3.40612C5.99939 3.80402 6.18939 3.99562 6.58568 3.99593C7.22987 3.99656 7.87407 3.99593 8.51827 3.99593C8.55928 3.99593 8.6006 3.99593 8.6416 3.99593C8.64911 3.98403 8.65631 3.97214 8.66383 3.95993C8.52015 3.78743 8.38743 3.60398 8.23061 3.44431C7.6753 2.87892 7.11468 2.31854 6.54937 1.76317C6.38972 1.60632 6.20661 1.4739 6.03413 1.3302V1.33083Z" fill="#3C4CA6"/>
<path d="M12 7.21832C11.9815 7.28469 11.9643 7.35168 11.9446 7.41774C11.8716 7.6613 11.7483 7.87637 11.5683 8.05638C10.4449 9.1809 9.32269 10.307 8.19519 11.4271C7.81017 11.8094 7.33876 12.001 6.79285 11.9994C6.51958 11.9988 6.246 12.0016 5.97273 11.9985C5.75769 11.996 5.52793 11.8269 5.51635 11.6165C5.4888 11.1078 5.44122 10.5947 5.59397 10.0944C5.68945 9.7823 5.86036 9.51494 6.09074 9.28484C7.20072 8.17441 8.3085 7.06178 9.42254 5.95573C9.85764 5.52371 10.3888 5.40913 10.9664 5.58569C11.5292 5.75788 11.8604 6.15891 11.9784 6.73526C11.9812 6.74904 11.9928 6.76093 12 6.77345V7.21863V7.21832ZM6.51113 10.9841C6.89646 11.027 7.23984 10.9657 7.52563 10.678C8.62152 9.57568 9.72304 8.47871 10.8221 7.37923C11.0427 7.15821 11.0543 6.85015 10.8524 6.64917C10.6546 6.45225 10.3331 6.46258 10.1187 6.67703C9.01624 7.77838 7.91534 8.88162 6.81163 9.98141C6.52834 10.2638 6.47325 10.6072 6.51113 10.9841Z" fill="#3C4CA6"/>
</g>
<defs>
<clipPath id="clip0_155_246">
<rect width="12" height="12" fill="white"/>
</clipPath>
</defs>
</svg>
