<svg width="36" height="30" viewBox="0 0 36 30" fill="none" xmlns="http://www.w3.org/2000/svg">
<path d="M35.5 16.8579C35.4123 17.2426 35.3403 17.6317 35.2347 18.0113C34.3517 21.1851 31.5054 23.3489 28.2125 23.3507C23.8266 23.3532 19.4408 23.3546 15.055 23.3504C11.3765 23.3468 8.26733 20.5776 7.83147 16.92C7.79377 16.6042 7.78505 16.2834 7.7847 15.9649C7.78114 13.1169 7.76976 10.2689 7.78594 7.42098C7.80479 4.10105 9.73337 1.387 12.8333 0.390434C13.5782 0.150896 14.3929 0.0317491 15.1768 0.0253472C19.4826 -0.00897414 23.7889 -0.00346138 28.0949 0.0127212C31.6585 0.0262364 34.5175 2.29145 35.3295 5.7058C35.3947 5.98037 35.4435 6.25903 35.5 6.53591V16.8579ZM11.9022 19.0495C11.9836 18.9169 12.0361 18.7794 12.1311 18.6841C14.5435 16.2642 16.9583 13.8465 19.3777 11.4334C20.9438 9.87131 23.3435 9.87451 24.918 11.4334C25.3793 11.8902 25.8312 12.3567 26.2971 12.8085C26.7187 13.2176 27.212 13.2188 27.6267 12.8059C29.2251 11.215 30.8186 9.61915 32.4097 8.02098C32.4829 7.94736 32.5633 7.83141 32.5594 7.73858C32.5395 7.26324 32.5432 6.77848 32.4468 6.31612C32.0876 4.59293 30.4434 2.92435 28.0521 2.93893C23.7809 2.96489 19.5096 2.9448 15.2383 2.94906C14.9323 2.94942 14.6196 2.95796 14.3212 3.01842C12.1552 3.45713 10.7402 5.14937 10.7246 7.3655C10.7045 10.2243 10.7218 13.0833 10.7185 15.9421C10.7173 17.0788 11.0589 18.0857 11.9022 19.0495ZM32.5679 12.0408C32.4319 12.1682 32.3501 12.2406 32.2731 12.3176C31.419 13.1704 30.5721 14.0311 29.7102 14.8762C28.1396 16.4164 25.7559 16.4059 24.1958 14.8604C23.7509 14.4195 23.3122 13.9723 22.8662 13.5325C22.3827 13.0556 21.9141 13.0502 21.4403 13.5231C19.216 15.7438 16.994 17.9669 14.7724 20.1901C14.7155 20.247 14.6708 20.3164 14.5894 20.4192C14.7505 20.4192 14.8526 20.4192 14.9547 20.4192C19.396 20.4192 23.8375 20.4274 28.2788 20.4153C30.6221 20.4089 32.5466 18.4694 32.5651 16.1238C32.5749 14.8712 32.5674 13.6184 32.5677 12.3657C32.5677 12.2806 32.5679 12.1956 32.5679 12.0408Z" fill="#3C4CA6"/>
<path d="M16.3898 29.2166C13.6104 29.2166 10.8311 29.2263 8.0518 29.214C5.00715 29.2006 2.72327 27.8744 1.27537 25.1827C0.740102 24.1872 0.498963 23.103 0.500208 21.9668C0.503587 19.0052 0.49594 16.0436 0.503409 13.0822C0.508033 11.2648 1.15125 9.68334 2.33382 8.31689C2.87763 7.68844 3.77514 7.61481 4.38332 8.12857C5.0068 8.65548 5.12612 9.54659 4.58587 10.1718C3.72642 11.1665 3.40685 12.3028 3.42286 13.601C3.45629 16.3342 3.43086 19.0684 3.43388 21.802C3.43637 24.0323 4.91042 25.8099 7.09365 26.2017C7.41587 26.2595 7.7518 26.2558 8.08132 26.2559C13.6627 26.259 19.2441 26.2579 24.8255 26.2593C25.0071 26.2593 25.1895 26.2684 25.3702 26.2869C26.2359 26.3749 26.782 26.9929 26.7491 27.8409C26.7196 28.6026 26.071 29.2086 25.2404 29.2134C23.4977 29.2236 21.7549 29.2166 20.0122 29.2168C18.8047 29.2168 17.5972 29.2166 16.3898 29.2166Z" fill="#3C4CA6"/>
<path d="M17.9998 8.03592C18.0004 9.25779 17.0404 10.2245 15.8244 10.2266C14.5851 10.2289 13.6236 9.26615 13.6261 8.0256C13.6284 6.8096 14.5944 5.8518 15.8179 5.85269C17.0374 5.85358 17.9991 6.816 17.9998 8.03592Z" fill="#3C4CA6"/>
</svg>
