<svg width="17" height="26" viewBox="0 0 17 26" fill="none" xmlns="http://www.w3.org/2000/svg">
<path fill-rule="evenodd" clip-rule="evenodd" d="M4.38156 0.0785092C4.17749 0.115467 3.84763 0.203952 3.64855 0.275081C1.70305 0.970392 0.397415 2.57724 0.136122 4.59786C0.0723017 5.09151 0.0723017 19.9434 0.136122 20.437C0.43343 22.7364 2.16729 24.5663 4.42114 24.9595C5.03286 25.0662 11.8468 25.0672 12.4549 24.9606C14.5991 24.585 16.2738 22.928 16.7058 20.7548C16.8069 20.2461 16.8069 4.78876 16.7058 4.2801C16.2738 2.10695 14.5991 0.449948 12.4549 0.0743049C11.8751 -0.027281 4.94563 -0.0236634 4.38156 0.0785092ZM4.77694 2.13755C3.86063 2.29756 2.95307 2.97933 2.53892 3.81871C2.16758 4.57131 2.18698 4.0914 2.18698 12.5238C2.18698 20.9537 2.16641 20.4499 2.54234 21.2192C2.92639 22.005 3.68119 22.6084 4.56237 22.8338C4.92017 22.9254 5.11569 22.9303 8.44198 22.9303C11.7683 22.9303 11.9638 22.9254 12.3216 22.8338C13.2045 22.6079 13.9722 21.9942 14.3462 21.2155C14.7171 20.443 14.697 20.9425 14.697 12.5175C14.697 4.11393 14.7156 4.58818 14.3558 3.84012C14.0173 3.1365 13.3827 2.57005 12.5957 2.26921L12.2292 2.1291L8.56415 2.12264C6.54838 2.11912 4.84413 2.12582 4.77694 2.13755ZM6.9271 18.8851C6.50259 19.1078 6.26715 19.6401 6.39049 20.0982C6.46594 20.3785 6.82599 20.747 7.09813 20.8224C7.35894 20.8946 9.52503 20.8946 9.78583 20.8224C10.058 20.747 10.418 20.3785 10.4935 20.0982C10.6086 19.6707 10.4363 19.2111 10.0623 18.9481L9.85097 18.7994L8.49896 18.7845C7.15907 18.7698 7.14505 18.7708 6.9271 18.8851Z" fill="#A8A8A8"/>
</svg>
