<svg width="22" height="20" viewBox="0 0 22 20" fill="none" xmlns="http://www.w3.org/2000/svg">
<path d="M0 15.96C0 11.9869 0 8.01328 0 4.04021C0.0183679 3.95945 0.0396058 3.87926 0.0545298 3.79793C0.464938 1.56627 2.34593 0.00684527 4.63618 0.00115807C5.35942 -0.00111681 6.08265 0.00286423 6.80532 2.06342e-05C7.29321 -0.00168552 7.75298 0.10239 8.18922 0.321347C9.08179 0.768361 9.97263 1.21992 10.875 1.64817C11.0925 1.75111 11.3502 1.81765 11.5902 1.81935C13.5159 1.833 15.4423 1.82277 17.368 1.83073C17.6946 1.83187 18.0264 1.8603 18.3473 1.91945C20.3918 2.29822 21.9916 4.1966 21.9956 6.25537C22.0019 9.35546 22.0002 12.4555 21.9921 15.5556C21.9916 15.8571 21.9502 16.1653 21.8802 16.4588C21.3728 18.5778 19.555 19.9973 17.3514 19.9985C13.1704 20.0013 8.9888 19.9996 4.8078 19.9979C4.57935 19.9979 4.34975 19.986 4.12245 19.9649C2.25409 19.7892 0.672725 18.4732 0.169903 16.6754C0.103894 16.4394 0.0562518 16.1983 0 15.96ZM20.1559 7.28987H1.84311C1.84311 7.35982 1.84311 7.41556 1.84311 7.47129C1.84311 10.1392 1.84311 12.807 1.84425 15.4743C1.84425 15.5807 1.84253 15.6882 1.85918 15.7928C2.08763 17.2248 3.20578 18.1729 4.67291 18.1735C8.89065 18.1752 13.1084 18.1746 17.3261 18.1712C17.5396 18.1712 17.7572 18.1547 17.965 18.1098C19.284 17.8248 20.1536 16.7517 20.1548 15.4106C20.1571 12.7712 20.1554 10.1318 20.1554 7.49233C20.1554 7.42921 20.1559 7.36722 20.1559 7.28987ZM1.84483 5.43584H19.9768C19.9608 5.39319 19.9516 5.36703 19.9418 5.34144C19.9286 5.30845 19.9166 5.27546 19.9005 5.24362C19.3994 4.24039 18.5889 3.67395 17.4564 3.6603C15.4813 3.63585 13.505 3.65177 11.5293 3.65291C11.0345 3.65291 10.5684 3.54542 10.1259 3.32362C9.22127 2.87035 8.31493 2.41992 7.404 1.97917C7.24155 1.90068 7.05328 1.83642 6.87534 1.833C6.08839 1.81765 5.30029 1.8131 4.51334 1.83073C3.36707 1.85632 2.36774 2.59395 1.98833 3.65689C1.78226 4.23528 1.85688 4.8313 1.84483 5.43584Z" fill="#575757"/>
<path d="M10.076 13.6391C9.45605 13.6391 8.87689 13.647 8.29773 13.6368C7.66002 13.6254 7.25822 13.1676 7.34546 12.5699C7.40172 12.1848 7.71914 11.8538 8.11864 11.8328C8.66795 11.8032 9.21957 11.8157 9.7706 11.8106C9.86187 11.8095 9.95371 11.8106 10.076 11.8106C10.076 11.6446 10.0748 11.4984 10.076 11.3517C10.0794 10.8694 10.0651 10.3865 10.0926 9.90598C10.1184 9.45897 10.4669 9.13821 10.914 9.09612C11.3474 9.05461 11.7463 9.30712 11.8703 9.72171C11.9122 9.86162 11.9179 10.0152 11.9197 10.1625C11.9254 10.7005 11.9219 11.2385 11.9219 11.8112C12.0207 11.8112 12.1033 11.8112 12.186 11.8112C12.7439 11.8157 13.303 11.801 13.8598 11.8311C14.3063 11.855 14.6272 12.2133 14.6634 12.6574C14.6978 13.0846 14.432 13.481 14.0159 13.5958C13.8804 13.6328 13.7335 13.6374 13.5911 13.6391C13.0476 13.6436 12.5046 13.6408 11.9351 13.6408C11.9306 13.7272 11.9231 13.8017 11.9231 13.8762C11.9219 14.3937 11.926 14.9113 11.9202 15.4294C11.9156 15.8173 11.7429 16.1153 11.3818 16.2773C11.05 16.4263 10.7234 16.3882 10.4318 16.1676C10.1736 15.9725 10.076 15.699 10.0765 15.3845C10.0777 14.888 10.0765 14.3915 10.0765 13.8955C10.0765 13.8193 10.076 13.742 10.076 13.6391Z" fill="#575757"/>
</svg>
