<svg width="15" height="15" viewBox="0 0 15 15" fill="none" xmlns="http://www.w3.org/2000/svg">
<path fill-rule="evenodd" clip-rule="evenodd" d="M2.57926 0.0477792C1.28926 0.28133 0.275511 1.30601 0.048013 2.60629C-0.0160239 2.97227 -0.0159946 9.54324 0.0480423 9.90896C0.246598 11.0429 1.07193 11.9962 2.15815 12.3461C2.65044 12.5046 2.48604 12.4985 6.27397 12.4985H9.80391L10.059 12.4335C10.6515 12.2823 11.0862 12.0508 11.491 11.6708C12.0619 11.1349 12.3991 10.4735 12.4862 9.71843C12.5067 9.54087 12.5134 8.31701 12.5061 6.06717C12.4941 2.38302 12.5042 2.60781 12.3288 2.09702C11.9664 1.04114 11.0218 0.239841 9.90993 0.0450836C9.55743 -0.0166809 2.92171 -0.0142197 2.57926 0.0477792ZM2.68738 1.30856C2.5918 1.33188 2.41383 1.39872 2.29191 1.45711C1.98057 1.60622 1.6091 1.97748 1.46034 2.28829C1.25297 2.72146 1.2624 2.51944 1.27131 6.33846L1.27933 9.77363L1.34393 9.94283C1.54107 10.4594 1.85657 10.8255 2.28998 11.0407C2.74032 11.2643 2.58145 11.2562 6.36186 11.2469L9.71603 11.2386L9.95668 11.1571C10.527 10.9639 10.9646 10.5246 11.1598 9.94943L11.2393 9.71503L11.2476 6.36018C11.2568 2.60019 11.2637 2.73992 11.0496 2.30066C10.8405 1.87141 10.4753 1.54639 9.99371 1.36098L9.77462 1.27662L6.31792 1.27138C3.38801 1.26695 2.83473 1.27261 2.68738 1.30856ZM14.0909 3.19639C13.9551 3.26811 13.8205 3.43041 13.7774 3.57439C13.753 3.65575 13.7439 4.8289 13.7435 7.90182C13.7431 12.581 13.7549 12.2916 13.546 12.7183C13.3957 13.0254 13.0257 13.3955 12.7187 13.5458C12.2921 13.7547 12.5815 13.7429 7.9032 13.7433C4.83089 13.7437 3.65798 13.7528 3.57663 13.7772C3.42943 13.8213 3.26881 13.9567 3.19725 14.097C3.12905 14.2307 3.12014 14.4905 3.17897 14.631C3.23216 14.7581 3.43274 14.9342 3.56978 14.9742C3.65004 14.9976 4.90527 15.0041 8.03162 14.9976L12.3818 14.9885L12.63 14.9191C13.2048 14.7584 13.6865 14.4818 14.0846 14.0842C14.4854 13.6837 14.7504 13.2168 14.9258 12.602C14.9887 12.3814 14.9887 12.3804 14.9977 8.03028C15.0041 4.90361 14.9975 3.64778 14.9741 3.56753C14.9342 3.43047 14.7581 3.22985 14.6311 3.17664C14.4926 3.11868 14.219 3.12868 14.0909 3.19639Z" fill="black"/>
</svg>
