<svg width="26" height="26" viewBox="0 0 26 26" fill="none" xmlns="http://www.w3.org/2000/svg">
<path fill-rule="evenodd" clip-rule="evenodd" d="M4.30565 0.0797291C2.15222 0.469604 0.459921 2.18014 0.08015 4.35074C-0.0267493 4.9617 -0.0267004 15.9309 0.0801989 16.5414C0.411655 18.4344 1.78941 20.0257 3.60269 20.6097C4.42449 20.8744 4.15005 20.8642 10.4734 20.8642H16.3661L16.7918 20.7556C17.781 20.5032 18.5067 20.1168 19.1825 19.4824C20.1354 18.5879 20.6983 17.4837 20.8437 16.2233C20.878 15.9269 20.8891 13.8839 20.8768 10.1281C20.8569 3.97804 20.8737 4.35329 20.5809 3.50061C19.9759 1.73798 18.3991 0.400345 16.543 0.0752292C15.9546 -0.0278765 4.87732 -0.023768 4.30565 0.0797291ZM4.48615 2.1844C4.32658 2.22333 4.02951 2.3349 3.82598 2.43238C3.30625 2.68129 2.68613 3.30105 2.4378 3.81991C2.09163 4.54302 2.10737 4.20577 2.12224 10.581L2.13564 16.3155L2.24347 16.5979C2.57258 17.4602 3.09925 18.0713 3.82275 18.4306C4.57452 18.8038 4.30932 18.7904 10.6201 18.7748L16.2193 18.761L16.6211 18.625C17.5731 18.3025 18.3037 17.5691 18.6295 16.6089L18.7622 16.2176L18.776 10.6173C18.7915 4.34057 18.8029 4.57383 18.4455 3.84055C18.0964 3.12399 17.4868 2.58141 16.6829 2.2719L16.3172 2.13108L10.5467 2.12233C5.65573 2.11494 4.73213 2.12438 4.48615 2.1844ZM23.5224 5.33582C23.2958 5.45556 23.0712 5.72648 22.9991 5.96683C22.9585 6.10266 22.9431 8.06103 22.9426 13.1908C22.9418 21.002 22.9616 20.5188 22.6129 21.2311C22.362 21.7437 21.7443 22.3615 21.2318 22.6125C20.5196 22.9613 21.0027 22.9415 13.1931 22.9423C8.06439 22.9428 6.10641 22.9581 5.97061 22.9988C5.72488 23.0725 5.45675 23.2985 5.33729 23.5327C5.22344 23.7559 5.20858 24.1896 5.30677 24.4241C5.39558 24.6363 5.73041 24.9303 5.95917 24.9969C6.09316 25.036 8.18855 25.047 13.4075 25.0361L20.6694 25.0209L21.0838 24.905C22.0433 24.6367 22.8474 24.1751 23.5119 23.5112C24.181 22.8427 24.6234 22.0633 24.9162 21.037C25.0212 20.6687 25.0212 20.6671 25.0362 13.4052C25.0469 8.18576 25.0359 6.08936 24.9969 5.95539C24.9302 5.72658 24.6363 5.39168 24.4242 5.30286C24.1931 5.20611 23.7364 5.22279 23.5224 5.33582Z" fill="white"/>
</svg>
