<svg width="11" height="11" viewBox="0 0 11 11" fill="none" xmlns="http://www.w3.org/2000/svg">
<path d="M6.95934 2.71104H3.15759C2.85453 2.71104 2.59451 2.60394 2.37753 2.38975C2.16055 2.17571 2.05207 1.91569 2.05207 1.60969C2.05207 1.30385 2.16055 1.04245 2.37753 0.825467C2.59451 0.608489 2.85453 0.5 3.15759 0.5H9.9159C10.1534 0.5 10.3525 0.580285 10.5131 0.740855C10.6736 0.90158 10.7539 1.10063 10.7539 1.33801V8.09632C10.7539 8.39938 10.6469 8.6594 10.4328 8.87637C10.2186 9.09335 9.95855 9.20184 9.65256 9.20184C9.34672 9.20184 9.08531 9.09335 8.86833 8.87637C8.65135 8.6594 8.54286 8.39938 8.54286 8.09632V4.35159L2.72247 10.172C2.5024 10.3907 2.23342 10.5 1.91553 10.5C1.59763 10.5 1.32935 10.3901 1.11067 10.1704C0.891836 9.95045 0.782419 9.68177 0.782419 9.36434C0.782419 9.04676 0.891836 8.77863 1.11067 8.55995L6.95934 2.71104Z" fill="#3E8483"/>
</svg>
