<svg width="21" height="20" viewBox="0 0 21 20" fill="none" xmlns="http://www.w3.org/2000/svg">
<path d="M6.25735 0.00125434C6.52378 0.0769166 6.79804 0.132228 7.05611 0.231372C8.324 0.717176 9.1703 1.93664 9.18388 3.29335C9.19224 4.15224 9.19328 5.01166 9.18388 5.87056C9.16403 7.68019 7.69293 9.15326 5.8833 9.17413C5.02342 9.18405 4.16301 9.18352 3.30313 9.17413C1.47105 9.15378 0.00255635 7.66663 0.000989123 5.83873C-5.56934e-05 4.98609 -0.000578102 4.13398 0.000989123 3.28134C0.00464598 1.67522 1.22917 0.271029 2.82513 0.0377808C2.86222 0.0325627 2.89722 0.0132558 2.93327 0.000732422C4.04129 0.000732422 5.14932 0.000732422 6.25735 0.000732422V0.00125434ZM1.67896 4.57752C1.67896 4.57752 1.67844 4.57752 1.67792 4.57752C1.67792 4.98714 1.67583 5.39728 1.67792 5.8069C1.68367 6.74876 2.37324 7.47512 3.31201 7.49547C4.16458 7.51374 5.01872 7.5153 5.87129 7.49495C6.78498 7.47303 7.48292 6.77224 7.50277 5.8596C7.52105 5.00801 7.52262 4.15485 7.50225 3.30326C7.47978 2.37131 6.75677 1.68252 5.82636 1.67783C4.97954 1.67365 4.13272 1.67156 3.28641 1.67939C2.41243 1.68774 1.6915 2.41358 1.67949 3.28917C1.67374 3.71862 1.67844 4.14807 1.67844 4.577L1.67896 4.57752Z" fill="black"/>
<path d="M20.0219 6.25023C19.9948 6.36189 19.966 6.47304 19.9415 6.58523C19.6458 7.93515 18.4594 9.04399 17.0782 9.12852C15.9508 9.1974 14.8114 9.20105 13.6856 9.12017C12.3572 9.02468 11.1655 7.84853 10.9158 6.52104C10.8667 6.26066 10.8437 5.99297 10.8401 5.72789C10.8302 4.96084 10.8359 4.19325 10.837 3.42567C10.839 1.67501 11.9721 0.332392 13.6977 0.0333957C13.7212 0.0292213 13.7426 0.0114798 13.765 0C14.8731 0 15.9811 0 17.0891 0C17.1184 0.0120016 17.1471 0.029743 17.1774 0.0349611C18.543 0.276559 19.4384 1.06345 19.8819 2.36901C19.9436 2.5506 19.976 2.74263 20.0219 2.92943V6.2497V6.25023ZM15.4482 1.67605C15.0382 1.67605 14.6275 1.67396 14.2175 1.67605C13.2468 1.68179 12.5254 2.38988 12.5154 3.35888C12.5071 4.17864 12.506 4.99841 12.5154 5.81765C12.5264 6.75638 13.2306 7.477 14.1673 7.49526C15.0136 7.51196 15.861 7.51248 16.7073 7.49474C17.6398 7.47491 18.3372 6.75377 18.3429 5.82756C18.3481 4.99475 18.3481 4.16195 18.3429 3.32966C18.3366 2.3951 17.6183 1.68492 16.679 1.67657C16.269 1.67292 15.8583 1.67605 15.4482 1.67553V1.67605Z" fill="black"/>
<path d="M20.0218 17.07C19.9711 17.2698 19.9299 17.4728 19.8682 17.669C19.4294 19.0617 18.1563 19.9968 16.6982 19.9989C15.8514 20.0004 15.0041 20.0004 14.1573 19.9989C12.4735 19.9957 11.0197 18.7288 10.8812 17.0486C10.7966 16.0206 10.842 14.9817 10.8499 13.9474C10.852 13.6991 10.9162 13.4444 10.9878 13.2033C11.4021 11.8065 12.6882 10.839 14.1458 10.826C14.9994 10.8182 15.853 10.8187 16.7061 10.826C18.3532 10.8396 19.7324 12.0371 19.9847 13.6636C19.9894 13.6933 20.0087 13.721 20.0208 13.7497V17.07H20.0218ZM18.3438 15.4299H18.3444C18.3444 15.0135 18.347 14.5971 18.3438 14.1807C18.3365 13.2503 17.6475 12.526 16.7171 12.5052C15.8645 12.4859 15.0103 12.4869 14.1578 12.5046C13.2383 12.5234 12.5341 13.2341 12.5179 14.1525C12.5028 14.9979 12.5017 15.8442 12.519 16.6896C12.5378 17.6184 13.2618 18.3171 14.1891 18.3228C15.0291 18.3275 15.8697 18.3286 16.7097 18.3218C17.6119 18.3145 18.3323 17.5959 18.3438 16.6984C18.3491 16.2758 18.3449 15.8526 18.3449 15.4299H18.3438Z" fill="black"/>
<path d="M17.1774 0.0355106C17.1471 0.0302925 17.1184 0.0125509 17.0891 0.000549316L17.1774 0.0355106Z" fill="white"/>
<path d="M20.022 2.93042C19.976 2.74309 19.9436 2.55158 19.882 2.37L20.022 2.93042Z" fill="white"/>
<path d="M4.59296 19.9988C4.16301 19.9988 3.73255 19.9998 3.30261 19.9988C1.48829 19.9936 0.00360116 18.5054 0.000989123 16.6895C-5.56934e-05 15.8368 -0.000578102 14.9842 0.000989123 14.1316C0.00360116 12.4644 1.28455 11.0044 2.94528 10.8687C3.91017 10.7899 4.88498 10.8301 5.8551 10.827C6.33519 10.8254 6.80065 10.9219 7.23321 11.1348C8.45669 11.737 9.11806 12.7274 9.17657 14.0841C9.21523 14.9675 9.1959 15.8546 9.18127 16.7396C9.15254 18.5377 7.66158 19.9957 5.86293 19.9993C5.43926 20.0004 5.01559 19.9993 4.59243 19.9993L4.59296 19.9988ZM4.57728 18.3227C4.57728 18.3227 4.57728 18.3233 4.57728 18.3238C4.99417 18.3238 5.41105 18.3264 5.82793 18.3233C6.75782 18.3154 7.48083 17.6272 7.50277 16.6957C7.52262 15.8442 7.5221 14.991 7.50277 14.1394C7.4824 13.2262 6.78237 12.526 5.87024 12.5056C5.01767 12.4863 4.16354 12.4874 3.31097 12.5056C2.38056 12.5254 1.68367 13.2492 1.67896 14.1754C1.67426 15.0213 1.6727 15.8671 1.68053 16.7124C1.68837 17.587 2.41347 18.3097 3.28798 18.3222C3.71792 18.3285 4.14787 18.3233 4.57728 18.3233V18.3227Z" fill="black"/>
</svg>
