<svg width="30" height="34" viewBox="0 0 30 34" fill="none" xmlns="http://www.w3.org/2000/svg">
<mask id="mask0_135_87" style="mask-type:alpha" maskUnits="userSpaceOnUse" x="0" y="0" width="30" height="34">
<rect y="6.10352e-05" width="30" height="33.3333" fill="#D9D9D9"/>
</mask>
<g mask="url(#mask0_135_87)">
<path d="M13.9422 18.9636C14.8141 18.9636 15.5529 18.6271 16.1588 17.9542C16.7644 17.281 17.0672 16.4601 17.0672 15.4913C17.0672 14.5228 16.7644 13.702 16.1588 13.0288C15.5529 12.3557 14.8141 12.0191 13.9422 12.0191C13.0705 12.0191 12.3318 12.3557 11.7259 13.0288C11.1201 13.702 10.8172 14.5228 10.8172 15.4913C10.8172 16.4601 11.1201 17.281 11.7259 17.9542C12.3318 18.6271 13.0705 18.9636 13.9422 18.9636ZM13.9422 21.0469C12.5511 21.0469 11.3701 20.5074 10.3991 19.4285C9.42781 18.3493 8.94219 17.037 8.94219 15.4913C8.94219 13.9457 9.42781 12.6335 10.3991 11.5545C11.3701 10.4754 12.5511 9.9358 13.9422 9.9358C15.3332 9.9358 16.5144 10.4754 17.4856 11.5545C18.4567 12.6335 18.9422 13.9457 18.9422 15.4913C18.9422 16.0506 18.8665 16.5929 18.715 17.1181C18.5635 17.6433 18.3404 18.1374 18.0456 18.6004L20.7838 21.6292C20.9696 21.8359 21.0613 22.0777 21.0588 22.3545C21.0565 22.6314 20.9583 22.8776 20.7644 23.0931C20.5704 23.2942 20.3508 23.3984 20.1056 23.4056C19.8606 23.4125 19.6411 23.3084 19.4472 23.0931L16.7403 20.0722C16.3236 20.3998 15.879 20.6441 15.4062 20.8052C14.9335 20.9663 14.4455 21.0469 13.9422 21.0469ZM6.63469 28.4722C6.00323 28.4722 5.46875 28.2292 5.03125 27.7431C4.59375 27.257 4.375 26.6631 4.375 25.9615V21.875C4.375 21.5794 4.46479 21.332 4.64437 21.1327C4.82375 20.9331 5.04646 20.8334 5.3125 20.8334C5.57854 20.8334 5.80125 20.9331 5.98063 21.1327C6.16021 21.332 6.25 21.5794 6.25 21.875V25.9615C6.25 26.0684 6.2901 26.1663 6.37031 26.2552C6.45031 26.3444 6.53844 26.3889 6.63469 26.3889H10.3125C10.5785 26.3889 10.8012 26.4887 10.9806 26.6882C11.1602 26.8875 11.25 27.135 11.25 27.4306C11.25 27.7262 11.1602 27.9736 10.9806 28.1729C10.8012 28.3725 10.5785 28.4722 10.3125 28.4722H6.63469ZM23.3653 28.4722H19.6875C19.4215 28.4722 19.1987 28.3725 19.0194 28.1729C18.8398 27.9736 18.75 27.7262 18.75 27.4306C18.75 27.135 18.8398 26.8875 19.0194 26.6882C19.1987 26.4887 19.4215 26.3889 19.6875 26.3889H23.3653C23.4616 26.3889 23.5497 26.3444 23.6297 26.2552C23.7099 26.1663 23.75 26.0684 23.75 25.9615V21.875C23.75 21.5794 23.8398 21.332 24.0194 21.1327C24.1987 20.9331 24.4215 20.8334 24.6875 20.8334C24.9535 20.8334 25.1763 20.9331 25.3556 21.1327C25.5352 21.332 25.625 21.5794 25.625 21.875V25.9615C25.625 26.6631 25.4062 27.257 24.9688 27.7431C24.5312 28.2292 23.9968 28.4722 23.3653 28.4722ZM4.375 11.4584V7.37191C4.375 6.67029 4.59375 6.07642 5.03125 5.59031C5.46875 5.1042 6.00323 4.86115 6.63469 4.86115H10.3125C10.5785 4.86115 10.8012 4.96091 10.9806 5.16045C11.1602 5.35976 11.25 5.60721 11.25 5.90281C11.25 6.19841 11.1602 6.44587 10.9806 6.64517C10.8012 6.84471 10.5785 6.94448 10.3125 6.94448H6.63469C6.53844 6.94448 6.45031 6.98904 6.37031 7.07816C6.2901 7.16705 6.25 7.26496 6.25 7.37191V11.4584C6.25 11.754 6.16021 12.0014 5.98063 12.2007C5.80125 12.4003 5.57854 12.5 5.3125 12.5C5.04646 12.5 4.82375 12.4003 4.64437 12.2007C4.46479 12.0014 4.375 11.754 4.375 11.4584ZM23.75 11.4584V7.37191C23.75 7.26496 23.7099 7.16705 23.6297 7.07816C23.5497 6.98904 23.4616 6.94448 23.3653 6.94448H19.6875C19.4215 6.94448 19.1987 6.84471 19.0194 6.64517C18.8398 6.44587 18.75 6.19841 18.75 5.90281C18.75 5.60721 18.8398 5.35976 19.0194 5.16045C19.1987 4.96091 19.4215 4.86115 19.6875 4.86115H23.3653C23.9968 4.86115 24.5312 5.1042 24.9688 5.59031C25.4062 6.07642 25.625 6.67029 25.625 7.37191V11.4584C25.625 11.754 25.5352 12.0014 25.3556 12.2007C25.1763 12.4003 24.9535 12.5 24.6875 12.5C24.4215 12.5 24.1987 12.4003 24.0194 12.2007C23.8398 12.0014 23.75 11.754 23.75 11.4584Z" fill="#939393"/>
</g>
</svg>
