<svg width="31" height="30" viewBox="0 0 31 30" fill="none" xmlns="http://www.w3.org/2000/svg">
<path fill-rule="evenodd" clip-rule="evenodd" d="M3.79435 0.164677C2.38964 0.616246 1.25933 1.63367 0.621327 3.02066L0.26018 3.80587L0.221804 12.3834C0.179453 21.8668 0.172326 21.7736 1.04703 23.1005C1.29277 23.473 1.80208 24.0147 2.17899 24.3042C3.30327 25.1677 3.79873 25.2889 6.48671 25.3588L8.87576 25.421L11.3096 27.506C13.7931 29.6333 14.3675 30.0054 15.1608 29.9999C15.9224 29.9948 16.6184 29.5414 19.0864 27.4427L21.4657 25.4194L23.8149 25.3619C26.5639 25.2945 27.2768 25.0912 28.411 24.0517C29.0805 23.4381 29.9332 21.9899 29.9332 21.4661C29.9332 21.3293 29.9948 21.1784 30.0702 21.1309C30.1592 21.0749 30.2073 18.0529 30.2073 12.5218C30.2073 6.87548 30.1609 4.02816 30.0702 4.08531C29.9948 4.13281 29.9332 4.05792 29.933 3.9189C29.9329 3.42751 29.1349 1.98185 28.5442 1.40286C28.2151 1.08011 27.5758 0.639998 27.1235 0.424832L26.3011 0.0334818L15.3365 0.00623682C6.54057 -0.0155592 4.25774 0.0157377 3.79435 0.164677ZM4.22923 2.74122C3.5582 3.05195 2.99188 3.70765 2.79163 4.40596C2.69049 4.75889 2.65663 7.4806 2.68528 12.9574C2.73215 21.927 2.68267 21.4771 3.70951 22.2763C4.21237 22.6677 4.2132 22.6678 6.90309 22.7377C9.07806 22.7941 9.65905 22.8513 9.93426 23.0356C10.1216 23.1609 11.3433 24.1826 12.6494 25.306C13.9554 26.4293 15.0634 27.3466 15.1117 27.3445C15.16 27.3422 16.3713 26.3621 17.8036 25.1664C19.2358 23.9707 20.5505 22.9351 20.7249 22.865C20.8994 22.795 22.0887 22.7377 23.3677 22.7377C25.0217 22.7377 25.8224 22.6826 26.1406 22.5471C26.7111 22.3041 27.2786 21.618 27.4601 20.9519C27.5497 20.623 27.6019 17.5469 27.6024 12.5687C27.603 5.78582 27.574 4.63398 27.391 4.18758C27.1081 3.49709 26.6905 3.05475 26.027 2.74262C25.5094 2.49909 24.9019 2.4847 15.1309 2.4847C5.38422 2.4847 4.75087 2.49965 4.22923 2.74122ZM0.256068 12.678C0.256068 17.4039 0.273337 19.3372 0.294307 16.9743C0.315414 14.6113 0.315414 10.7446 0.294307 8.38164C0.273337 6.01859 0.256068 7.95201 0.256068 12.678ZM9.78569 7.60467C8.91702 7.93859 8.65852 9.12354 9.31668 9.75451C9.65397 10.078 9.76485 10.0951 11.7837 10.1379L13.8974 10.1827V14.8598V19.5369L14.2339 19.8797C14.7157 20.371 15.5691 20.3583 16.0284 19.8531L16.3645 19.4834V14.833V10.1827L18.4782 10.1379C20.497 10.0951 20.6079 10.078 20.9452 9.75451C21.4418 9.27835 21.4416 8.39282 20.9449 7.91694L20.5914 7.57826L15.2913 7.55199C12.3763 7.53746 9.89876 7.56121 9.78569 7.60467Z" fill="#6E6E6E"/>
</svg>
