<svg width="30" height="30" viewBox="0 0 30 30" fill="none" xmlns="http://www.w3.org/2000/svg">
<mask id="mask0_181_171" style="mask-type:alpha" maskUnits="userSpaceOnUse" x="0" y="0" width="30" height="30">
<rect y="-3.05176e-05" width="30" height="30" fill="#D9D9D9"/>
</mask>
<g mask="url(#mask0_181_171)">
<path d="M15.0027 19.4712C16.4192 19.4712 17.6222 18.9755 18.6118 17.984C19.6013 16.9926 20.0961 15.7886 20.0961 14.3722C20.0961 12.9557 19.6004 11.7527 18.6089 10.7631C17.6175 9.77351 16.4135 9.27872 14.9971 9.27872C13.5806 9.27872 12.3776 9.77445 11.388 10.7659C10.3984 11.7574 9.90363 12.9613 9.90363 14.3778C9.90363 15.7942 10.3994 16.9973 11.3908 17.9868C12.3823 18.9764 13.5862 19.4712 15.0027 19.4712ZM14.9999 17.75C14.0624 17.75 13.2655 17.4218 12.6093 16.7656C11.953 16.1093 11.6249 15.3125 11.6249 14.375C11.6249 13.4375 11.953 12.6406 12.6093 11.9843C13.2655 11.3281 14.0624 11 14.9999 11C15.9374 11 16.7343 11.3281 17.3905 11.9843C18.0468 12.6406 18.3749 13.4375 18.3749 14.375C18.3749 15.3125 18.0468 16.1093 17.3905 16.7656C16.7343 17.4218 15.9374 17.75 14.9999 17.75ZM14.9999 23.125C12.3684 23.125 9.96176 22.423 7.77988 21.019C5.59801 19.6153 3.85645 17.7684 2.5552 15.4784C2.45103 15.2988 2.37488 15.1179 2.32676 14.9356C2.27884 14.7533 2.25488 14.5662 2.25488 14.3743C2.25488 14.1825 2.27884 13.9956 2.32676 13.8137C2.37488 13.6318 2.45103 13.4511 2.5552 13.2715C3.85645 10.9815 5.59801 9.13466 7.77988 7.73091C9.96176 6.32695 12.3684 5.62497 14.9999 5.62497C17.6313 5.62497 20.038 6.32695 22.2199 7.73091C24.4018 9.13466 26.1433 10.9815 27.4446 13.2715C27.5487 13.4511 27.6249 13.6321 27.673 13.8143C27.7209 13.9966 27.7449 14.1837 27.7449 14.3756C27.7449 14.5675 27.7209 14.7543 27.673 14.9362C27.6249 15.1181 27.5487 15.2988 27.4446 15.4784C26.1433 17.7684 24.4018 19.6153 22.2199 21.019C20.038 22.423 17.6313 23.125 14.9999 23.125ZM14.9999 21.25C17.354 21.25 19.5155 20.6302 21.4843 19.3906C23.453 18.151 24.9582 16.4791 25.9999 14.375C24.9582 12.2708 23.453 10.5989 21.4843 9.35934C19.5155 8.11976 17.354 7.49997 14.9999 7.49997C12.6457 7.49997 10.4843 8.11976 8.51551 9.35934C6.54676 10.5989 5.04155 12.2708 3.99988 14.375C5.04155 16.4791 6.54676 18.151 8.51551 19.3906C10.4843 20.6302 12.6457 21.25 14.9999 21.25Z" fill="white"/>
</g>
</svg>
