<svg width="12" height="15" viewBox="0 0 12 15" fill="none" xmlns="http://www.w3.org/2000/svg">
<path d="M10.9588 15C10.7081 14.8873 10.5109 14.7284 10.4779 14.4476C10.4564 14.2639 10.4649 14.0766 10.4401 13.8935C10.2216 12.2845 9.35021 11.098 7.8162 10.4145C5.20896 9.25288 2.19603 10.6236 1.46213 13.2776C1.3744 13.5947 1.33091 13.9296 1.3213 14.2577C1.31093 14.6173 1.15987 14.8563 0.823747 15H0.485942C0.306816 14.9156 0.107703 14.8316 0.0591836 14.6332C0.010359 14.4333 -0.0102389 14.2193 0.0048662 14.0146C0.0971753 12.7598 0.564214 11.6446 1.4339 10.6959C2.4374 9.60123 3.69952 8.95214 5.21812 8.78924C8.29819 8.45909 11.076 10.4004 11.6801 13.305C11.7502 13.6423 11.7655 13.9916 11.7844 14.3363C11.8015 14.6486 11.6485 14.8488 11.345 14.9696C11.3276 14.9766 11.3128 14.9895 11.2968 14.9997H10.959L10.9588 15Z" fill="black"/>
<path d="M1.96029 3.74087C1.95968 1.67639 3.71661 0 5.88107 0C8.07619 0 9.82335 1.66896 9.82228 3.76532C9.82137 5.82747 8.0617 7.50051 5.89449 7.49978C3.71173 7.49905 1.9609 5.82631 1.96029 3.74087ZM3.2778 3.74523C3.27963 5.13004 4.44089 6.24351 5.88259 6.24235C7.34962 6.24133 8.506 5.13383 8.50432 3.73155C8.5028 2.35911 7.33024 1.25511 5.87588 1.25656C4.44043 1.25802 3.27581 2.37352 3.27764 3.74523H3.2778Z" fill="black"/>
</svg>
