<svg width="50" height="50" viewBox="0 0 50 50" fill="none" xmlns="http://www.w3.org/2000/svg">
<circle cx="25" cy="25" r="25" fill="white"/>
<path d="M32.8073 36C32.4457 35.8347 32.1611 35.6016 32.1136 35.1898C32.0826 34.9203 32.0949 34.6457 32.059 34.3772C31.7439 32.0173 30.487 30.277 28.2743 29.2747C24.5135 27.5709 20.1676 29.5812 19.109 33.4738C18.9825 33.9388 18.9197 34.4301 18.9059 34.9113C18.8909 35.4387 18.673 35.7893 18.1882 36H17.7009C17.4426 35.8762 17.1554 35.753 17.0854 35.462C17.0149 35.1688 16.9852 34.855 17.007 34.5548C17.1402 32.7144 17.8138 31.0788 19.0683 29.6874C20.5158 28.0818 22.3363 27.1298 24.5267 26.8909C28.9695 26.4067 32.9763 29.2539 33.8476 33.514C33.9488 34.0087 33.9708 34.5211 33.9981 35.0266C34.0228 35.4846 33.802 35.7782 33.3643 35.9554C33.3392 35.9656 33.3179 35.9846 33.2948 35.9996H32.8075L32.8073 36Z" fill="black"/>
<path d="M19.8276 19.4866C19.8267 16.4587 22.3609 14 25.483 14C28.6493 14 31.1694 16.4478 31.1679 19.5225C31.1666 22.547 28.6284 25.0007 25.5024 24.9997C22.3539 24.9986 19.8285 22.5452 19.8276 19.4866ZM21.728 19.493C21.7306 21.5241 23.4056 23.1571 25.4852 23.1554C27.6013 23.1539 29.2693 21.5296 29.2668 19.4729C29.2646 17.46 27.5733 15.8408 25.4755 15.843C23.405 15.8451 21.7251 17.4812 21.7278 19.493H21.728Z" fill="black"/>
</svg>
