<svg width="30" height="30" viewBox="0 0 30 30" fill="none" xmlns="http://www.w3.org/2000/svg">
<path fill-rule="evenodd" clip-rule="evenodd" d="M9.9333 0.0413045C5.39003 0.59324 1.54678 3.91998 0.389814 8.30227C0.0264171 9.67889 0.0449852 9.28138 0.0215554 16.1732L0 22.4905L5.96242 22.4901C9.65906 22.4898 12.1252 22.4667 12.452 22.4293C15.0565 22.1317 17.3497 21.0278 19.1943 19.1835C21.0396 17.3387 22.1655 14.9803 22.4437 12.377C22.5275 11.5923 22.4829 10.1217 22.353 9.38692C21.5038 4.58442 17.9191 0.99614 13.0963 0.121157C12.4627 0.00618564 10.6078 -0.0406005 9.9333 0.0413045ZM24.9967 11.39C24.9752 11.4116 24.9577 11.6171 24.9577 11.8467C24.9577 13.4209 24.4022 15.6019 23.5759 17.2717C22.4236 19.6002 20.6666 21.5547 18.5145 22.9019C16.5729 24.1173 13.8547 24.953 11.8427 24.953C11.6178 24.953 11.4194 24.9764 11.4017 25.005C11.3541 25.0821 11.8695 25.8449 12.3838 26.4583C13.8265 28.1792 15.7612 29.3109 18.1556 29.8345C18.7028 29.9542 18.8866 29.9584 24.3597 29.979L30 30L29.98 24.3545L29.9599 18.709L29.803 17.9988C29.3233 15.8283 28.2127 13.9001 26.6563 12.5355C25.9107 11.8818 25.079 11.3077 24.9967 11.39Z" fill="#474747"/>
</svg>
