<svg width="10" height="10" viewBox="0 0 10 10" fill="none" xmlns="http://www.w3.org/2000/svg">
<path d="M5 5.83048L1.00189 9.82878C0.892737 9.93781 0.75554 9.99363 0.590298 9.99626C0.425188 9.99875 0.285495 9.94293 0.171218 9.82878C0.0570727 9.71451 0 9.57606 0 9.41345C0 9.25083 0.0570727 9.11238 0.171218 8.99811L4.16952 5L0.171218 1.00189C0.0621955 0.892738 0.00637065 0.75554 0.0037436 0.590299C0.0012479 0.425189 0.0570727 0.285495 0.171218 0.171218C0.285495 0.0570727 0.42394 0 0.586555 0C0.749169 0 0.887614 0.0570727 1.00189 0.171218L5 4.16952L8.99811 0.171218C9.10726 0.0621955 9.24446 0.00637065 9.4097 0.0037436C9.57481 0.0012479 9.71451 0.0570727 9.82878 0.171218C9.94293 0.285495 10 0.423941 10 0.586555C10 0.749169 9.94293 0.887615 9.82878 1.00189L5.83048 5L9.82878 8.99811C9.93781 9.10726 9.99363 9.24446 9.99626 9.4097C9.99875 9.57481 9.94293 9.71451 9.82878 9.82878C9.71451 9.94293 9.57606 10 9.41345 10C9.25083 10 9.11238 9.94293 8.99811 9.82878L5 5.83048Z" fill="#1C1B1F"/>
</svg>
