<svg width="37" height="36" viewBox="0 0 37 36" fill="none" xmlns="http://www.w3.org/2000/svg">
<path d="M36.7596 6.28091V7.84966C36.6063 8.40495 36.492 8.97454 36.2929 9.51269C35.8691 10.6566 35.1471 11.6005 34.207 12.3721C34.2308 12.4082 34.2413 12.4321 34.2575 12.4473C34.3365 12.5197 34.4175 12.5892 34.4965 12.6607C35.4843 13.5474 36.1529 14.6352 36.5168 15.9077C36.6168 16.2582 36.6796 16.6192 36.7596 16.9754V18.4727C36.7377 18.5261 36.7025 18.5775 36.6949 18.6327C36.4606 20.2939 35.7005 21.6731 34.4641 22.797C34.3803 22.8732 34.2994 22.9542 34.2022 23.0465C35.2785 23.9419 36.0377 25.023 36.4482 26.3336C36.5777 26.747 36.6577 27.1765 36.7606 27.5985V29.1672C36.7244 29.3263 36.6873 29.4844 36.653 29.6435C35.91 33.0572 33.2231 35.2193 29.7227 35.2193C22.2371 35.2193 14.7525 35.2222 7.26691 35.2136C6.784 35.2136 6.29442 35.166 5.81818 35.0812C1.17577 34.2554 -1.24259 28.9119 1.2272 24.8972C1.64915 24.2105 2.22826 23.6199 2.74451 22.9723C1.16148 21.6235 0.257573 19.8786 0.258525 17.7117C0.258525 15.5343 1.17005 13.7798 2.82261 12.3825C2.7588 12.3273 2.71403 12.2882 2.66926 12.2492C0.828111 10.6052 0.00325941 8.56307 0.325199 6.1047C0.767152 2.73196 3.64461 0.222158 7.03641 0.221206C14.6877 0.219301 22.34 0.220253 29.9913 0.223111C30.2751 0.223111 30.5609 0.246923 30.8419 0.28407C33.6726 0.661254 35.9386 2.71291 36.5901 5.48559C36.652 5.74943 36.7034 6.01517 36.7596 6.28091ZM7.87174 13.916C7.53075 13.916 7.24691 13.897 6.96687 13.9189C5.32289 14.0475 4.15228 14.859 3.54745 16.3992C2.99025 17.8184 3.3922 19.4328 4.50946 20.4786C5.31622 21.234 6.28871 21.5083 7.37835 21.5073C14.7915 21.4988 22.2038 21.5035 29.617 21.5016C29.8065 21.5016 29.997 21.4921 30.1865 21.4807C32.523 21.3416 34.1765 19.0585 33.5888 16.7859C33.1402 15.0542 31.6619 13.9141 29.8141 13.9103C25.6327 13.9017 21.4513 13.9075 17.2689 13.9084C17.1889 13.9084 17.1099 13.9198 17.0013 13.9284C17.0013 14.4332 17.0089 14.918 16.9994 15.4019C16.9813 16.2877 16.2812 16.983 15.4373 16.9649C14.5877 16.9468 13.9476 16.2696 13.9438 15.3838C13.9419 14.9009 13.9438 14.418 13.9438 13.9227H10.9121C10.9121 14.0741 10.914 14.2132 10.9121 14.3532C10.9044 14.7809 10.9149 15.2095 10.8806 15.6343C10.8397 16.1448 10.5577 16.5201 10.1158 16.7649C9.16235 17.2935 7.98127 16.6963 7.88031 15.6105C7.82887 15.06 7.87174 14.4999 7.87174 13.916ZM7.87269 24.5877C7.48122 24.5877 7.16213 24.5715 6.84591 24.5905C4.36754 24.7344 2.70641 27.2203 3.51126 29.5701C4.05894 31.1684 5.47909 32.1599 7.25167 32.1609C14.7592 32.1637 22.2657 32.1618 29.7732 32.1618C29.856 32.1618 29.9398 32.1609 30.0227 32.1561C32.5478 32.0256 34.2356 29.7016 33.5517 27.287C33.1735 25.9526 31.8953 24.5458 29.6979 24.5591C25.6003 24.5848 21.5018 24.5667 17.4042 24.5667C17.2785 24.5667 17.1537 24.5667 17.0042 24.5667C17.0042 25.082 17.0089 25.5449 17.0032 26.0069C16.9918 26.9355 16.3365 27.6023 15.4468 27.5975C14.5791 27.5928 13.9486 26.9232 13.9467 26.0021C13.9457 25.5325 13.9467 25.0639 13.9467 24.5905H10.9149C10.9149 25.002 10.9235 25.3906 10.9121 25.7792C10.9054 26.0269 10.9044 26.284 10.8397 26.5193C10.6444 27.228 9.95768 27.6642 9.19664 27.5947C8.52514 27.5337 7.9346 26.966 7.88221 26.2612C7.84126 25.7192 7.87459 25.1725 7.87459 24.5877H7.87269ZM7.86983 3.24249C7.30215 3.28344 6.81162 3.27487 6.33823 3.3606C4.3504 3.72159 2.99978 5.71895 3.37124 7.70869C3.72557 9.60699 5.23145 10.849 7.20214 10.85C14.7353 10.8528 22.2695 10.8519 29.8027 10.8481C30.098 10.8481 30.3961 10.8233 30.6866 10.7719C32.6163 10.428 34.0193 8.39257 33.6564 6.47998C33.2821 4.51024 31.8096 3.28059 29.8036 3.27868C25.6565 3.27487 21.5094 3.27773 17.3623 3.27773C17.2489 3.27773 17.1356 3.27773 17.0023 3.27773C17.0023 3.57967 17.0099 3.82731 17.0003 4.07591C16.9861 4.44262 17.0061 4.81885 16.9289 5.17222C16.7632 5.92754 16.046 6.38473 15.2611 6.28853C14.5096 6.19614 13.9534 5.57226 13.9457 4.80456C13.941 4.29975 13.9457 3.79398 13.9457 3.27773H10.8863C10.8863 3.8816 10.9064 4.43881 10.8797 4.99315C10.8587 5.4332 10.6187 5.7761 10.2615 6.0266C9.30332 6.70001 7.98699 6.11709 7.8784 4.9522C7.82792 4.41309 7.86983 3.86446 7.86983 3.24153V3.24249Z" fill="white"/>
</svg>
