<svg width="10" height="6" viewBox="0 0 10 6" fill="none" xmlns="http://www.w3.org/2000/svg">
<path d="M4.40032 5.7175L0.461255 1.77875C0.407088 1.72437 0.36438 1.66365 0.33313 1.59656C0.30188 1.52969 0.286255 1.45792 0.286255 1.38125C0.286255 1.22813 0.338026 1.095 0.441567 0.981874C0.545109 0.868958 0.681568 0.8125 0.850943 0.8125H9.14907C9.31844 0.8125 9.4549 0.869583 9.55844 0.983749C9.66198 1.09771 9.71376 1.23073 9.71376 1.38281C9.71376 1.42094 9.65532 1.55292 9.53844 1.77875L5.59969 5.7175C5.50928 5.80812 5.41573 5.87427 5.31907 5.91594C5.2224 5.9576 5.11605 5.97844 5 5.97844C4.88396 5.97844 4.77761 5.9576 4.68094 5.91594C4.58428 5.87427 4.49073 5.80812 4.40032 5.7175Z" fill="#1C1B1F"/>
</svg>
