<svg width="17" height="16" viewBox="0 0 17 16" fill="none" xmlns="http://www.w3.org/2000/svg">
<path d="M0.58252 12.1443C0.58252 9.12109 0.58252 6.09746 0.58252 3.07427C0.596203 3.01282 0.612025 2.9518 0.623143 2.88992C0.929315 1.19181 2.33018 0.0052087 4.03636 0.000881201C4.57515 -0.000849799 5.11395 0.00217945 5.65231 1.5701e-05C6.01579 -0.00128255 6.35831 0.0779107 6.68329 0.244519C7.34823 0.584661 8.01189 0.928264 8.6841 1.25412C8.84617 1.33245 9.03817 1.38308 9.21691 1.38438C10.6516 1.39477 12.0866 1.38698 13.5213 1.39304C13.7646 1.3939 14.0117 1.41554 14.2508 1.46055C15.7735 1.74876 16.9657 3.19371 16.9687 4.75983C16.9734 7.11875 16.9721 9.47767 16.9661 11.8366C16.9657 12.0659 16.9349 12.3005 16.8827 12.5238C16.5056 14.1358 15.1505 15.2164 13.5089 15.2172C10.3941 15.2194 7.27896 15.2181 4.16422 15.2168C3.99403 15.2168 3.82298 15.2077 3.65365 15.1917C2.26176 15.058 1.08368 14.0566 0.709093 12.6887C0.660345 12.5095 0.624426 12.326 0.58252 12.1443ZM1.95559 5.53705C1.95559 5.6011 1.95559 5.64827 1.95559 5.69587C1.95559 7.71465 1.95559 9.73343 1.95602 11.7522C1.95602 11.8383 1.95388 11.9257 1.96628 12.0106C2.12663 13.0946 2.96775 13.8281 4.05603 13.8285C7.20284 13.8298 10.3497 13.8303 13.4965 13.8285C14.7053 13.8281 15.5965 12.9254 15.5973 11.7037C15.5986 9.68496 15.5978 7.66618 15.5978 5.6474C15.5978 5.58985 15.5978 5.53272 15.5978 5.45916C11.0445 5.48512 6.51267 5.51065 1.95516 5.53662L1.95559 5.53705ZM1.95602 4.14749C6.46179 4.12153 10.9432 4.09556 15.4425 4.06916C15.4143 4.00122 15.3998 3.95622 15.3775 3.9151C14.9918 3.1976 14.4004 2.79298 13.5893 2.78433C12.123 2.76918 10.6563 2.77827 9.18954 2.78C8.81495 2.78 8.46302 2.69864 8.1282 2.52728C7.45385 2.18151 6.77822 1.83834 6.09874 1.50296C5.97773 1.44324 5.83662 1.39736 5.70406 1.39477C5.12293 1.38352 4.54137 1.38179 3.96024 1.3926C3.10074 1.40818 2.34557 1.97033 2.06292 2.7826C1.90983 3.2227 1.96628 3.67579 1.95602 4.14749Z" fill="black"/>
</svg>
