<svg width="26" height="23" viewBox="0 0 26 23" fill="none" xmlns="http://www.w3.org/2000/svg">
<path fill-rule="evenodd" clip-rule="evenodd" d="M4.56932 0.0577177C2.33517 0.408265 0.544195 2.19073 0.225722 4.38062C0.186175 4.65272 0.174409 6.12081 0.185199 9.44697L0.200383 14.1302L0.330887 14.5964C0.596973 15.5465 1.06606 16.3248 1.77805 16.9975C2.53598 17.7136 3.30241 18.1158 4.37402 18.3597C4.69782 18.4335 5.13723 18.4455 8.17002 18.4641L11.5998 18.4851V19.4899V20.4946L9.41501 20.4957C7.4073 20.4966 7.21431 20.5038 7.03444 20.5842C6.26113 20.9299 6.21968 22.0052 6.9638 22.416L7.18135 22.536H12.6739H18.1665L18.3841 22.416C18.9683 22.0935 19.1022 21.3362 18.6622 20.8432C18.3499 20.4932 18.3783 20.4969 15.9329 20.4957L13.7481 20.4946V19.4859V18.4772L16.7629 18.4765C18.421 18.476 20.0209 18.4559 20.3181 18.4316C21.0128 18.3751 21.5689 18.2346 22.1309 17.9737C22.7474 17.6875 23.0744 17.4656 23.5698 16.9975C24.0602 16.5342 24.4159 16.0504 24.6915 15.4719C24.8789 15.0785 25.1238 14.262 25.1238 14.0308C25.1238 13.9697 25.1458 13.9064 25.1727 13.8901C25.2047 13.8706 25.2215 12.2475 25.2215 9.17712C25.2215 6.55374 25.2029 4.50517 25.1792 4.51958C25.156 4.5337 25.123 4.42769 25.1058 4.28407C25.0238 3.59758 24.5613 2.5822 24.0299 1.92189C23.3194 1.03899 22.2419 0.37493 21.0715 0.0986421C20.7277 0.0174659 20.2254 0.0116059 12.8448 0.00238346C6.42928 -0.00559006 4.908 0.00454489 4.56932 0.0577177ZM4.7402 2.12872C3.59393 2.36692 2.6657 3.25078 2.37091 4.3847C2.27912 4.73784 2.27463 4.93012 2.27463 8.51801V12.2809H12.6739H23.0733V8.51801C23.0733 4.93012 23.0688 4.73784 22.977 4.3847C22.7514 3.51688 22.1384 2.76223 21.3607 2.39463C20.5883 2.02963 21.0941 2.04937 12.6394 2.05379C6.16759 2.0571 5.03284 2.06786 4.7402 2.12872ZM0.198723 9.23082C0.198723 11.8198 0.20463 12.8719 0.211856 11.5688C0.219082 10.2657 0.219082 8.14743 0.211856 6.86153C0.20463 5.57564 0.198723 6.64183 0.198723 9.23082ZM2.46992 14.3716C2.46992 14.3855 2.5497 14.553 2.64725 14.7438C2.89717 15.233 3.48613 15.8058 3.98344 16.0433C4.70119 16.3862 4.09373 16.3638 12.6739 16.3638C21.2542 16.3638 20.6467 16.3862 21.3645 16.0433C21.8618 15.8058 22.4507 15.233 22.7006 14.7438C22.7982 14.553 22.878 14.3855 22.878 14.3716C22.878 14.3577 18.2862 14.3464 12.6739 14.3464C7.06173 14.3464 2.46992 14.3577 2.46992 14.3716Z" fill="#A8A8A8"/>
</svg>
