<svg width="15" height="15" viewBox="0 0 15 15" fill="none" xmlns="http://www.w3.org/2000/svg">
<path d="M5.0085 0C5.16441 0.0337112 5.32381 0.0562464 5.47551 0.103149C6.7646 0.501638 7.53666 1.36017 7.76366 2.69653C7.78308 2.81122 7.79096 2.92921 7.79151 3.04574C7.79444 3.70457 7.79737 4.36359 7.79187 5.02242C7.78931 5.32472 7.55754 5.57957 7.27008 5.6208C6.9643 5.66458 6.67262 5.4931 6.57955 5.20325C6.55042 5.11238 6.54034 5.01198 6.53979 4.91579C6.53631 4.33501 6.5244 3.75385 6.54108 3.17344C6.56691 2.27789 5.91614 1.40543 4.90975 1.26765C4.85203 1.25977 4.79304 1.25794 4.73459 1.25794C4.17836 1.25721 3.62194 1.25281 3.06571 1.25849C2.09504 1.26838 1.26032 2.09596 1.25886 3.06534C1.25409 6.02313 1.25391 8.98093 1.25904 11.9385C1.26069 12.8982 2.09816 13.7289 3.05746 13.7393C3.6137 13.7454 4.17011 13.7452 4.72635 13.7393C5.69335 13.7294 6.51488 12.9198 6.53356 11.9493C6.54566 11.3151 6.53521 10.6804 6.53851 10.0459C6.54071 9.62584 6.83074 9.34845 7.23271 9.37447C7.50734 9.39224 7.78491 9.63555 7.78546 9.90854C7.78693 10.7324 7.82632 11.5624 7.74442 12.3792C7.62002 13.6181 6.53027 14.7113 5.29834 14.9343C5.07922 14.974 4.85368 14.9911 4.63053 14.9947C4.10361 15.0031 3.5765 14.9997 3.0494 14.9967C1.62089 14.989 0.315676 13.8907 0.0580786 12.4825C0.0415894 12.3927 0.0196038 12.304 0 12.2148C0.000366426 9.07088 0.000366426 5.92676 0.000366426 2.78282C0.00989351 2.75608 0.0238177 2.73006 0.0282148 2.70258C0.214543 1.53368 0.852857 0.708669 1.93436 0.240009C2.20167 0.124219 2.49903 0.0780488 2.78264 0C3.52466 0 4.26648 0 5.0085 0Z" fill="black"/>
<path d="M13.1846 8.1125C12.4431 8.1125 11.7018 8.11158 10.9604 8.1125C8.82758 8.11579 6.69461 8.11982 4.56182 8.12385C4.29342 8.1244 4.02483 8.13338 3.7566 8.12495C3.41839 8.11433 3.17453 7.90198 3.1324 7.59932C3.08842 7.28364 3.24947 7.00461 3.54444 6.90952C3.63953 6.87874 3.74561 6.87123 3.84656 6.87086C6.88717 6.86408 9.92796 6.8595 12.9686 6.85455C13.031 6.85455 13.0935 6.85455 13.1849 6.85455C13.1335 6.79831 13.1008 6.75965 13.0653 6.72411C12.2306 5.88829 11.3948 5.05357 10.5606 4.2172C10.2979 3.95392 10.2702 3.61076 10.4853 3.34822C10.7293 3.05032 11.1397 3.02888 11.4263 3.30773C11.741 3.61406 12.0488 3.92772 12.3594 4.23827C12.9807 4.85955 13.6027 5.48009 14.2228 6.10246C15.0506 6.93279 15.0491 8.06614 14.2192 8.89738C13.2983 9.81968 12.377 10.7414 11.4543 11.6619C11.1637 11.9517 10.7788 11.9611 10.5197 11.6908C10.2706 11.4309 10.2814 11.0597 10.5518 10.7881C11.2925 10.0447 12.0349 9.30283 12.7777 8.56155C12.9182 8.42121 13.0638 8.286 13.2071 8.14822L13.1844 8.1125H13.1846Z" fill="black"/>
</svg>
