<svg width="25" height="29" viewBox="0 0 25 29" fill="none" xmlns="http://www.w3.org/2000/svg">
<mask id="mask0_135_214" style="mask-type:alpha" maskUnits="userSpaceOnUse" x="0" y="0" width="25" height="29">
<rect x="25" width="28.8899" height="25" transform="rotate(90 25 0)" fill="#D9D9D9"/>
</mask>
<g mask="url(#mask0_135_214)">
<path d="M4.92787 14.445C4.92787 13.9484 5.08091 13.5234 5.38699 13.1699C5.69289 12.8162 6.06069 12.6394 6.49037 12.6394C6.92006 12.6394 7.28794 12.8162 7.59402 13.1699C7.89992 13.5234 8.05287 13.9484 8.05287 14.445C8.05287 14.9415 7.89992 15.3666 7.59402 15.7201C7.28794 16.0738 6.92006 16.2506 6.49037 16.2506C6.06069 16.2506 5.69289 16.0738 5.38699 15.7201C5.08091 15.3666 4.92787 14.9415 4.92787 14.445ZM10.9375 14.445C10.9375 13.9484 11.0905 13.5234 11.3966 13.1699C11.7025 12.8162 12.0703 12.6394 12.5 12.6394C12.9297 12.6394 13.2975 12.8162 13.6034 13.1699C13.9095 13.5234 14.0625 13.9484 14.0625 14.445C14.0625 14.9415 13.9095 15.3666 13.6034 15.7201C13.2975 16.0738 12.9297 16.2506 12.5 16.2506C12.0703 16.2506 11.7025 16.0738 11.3966 15.7201C11.0905 15.3666 10.9375 14.9415 10.9375 14.445ZM16.9471 14.445C16.9471 13.9484 17.1001 13.5234 17.406 13.1699C17.7121 12.8162 18.08 12.6394 18.5096 12.6394C18.9393 12.6394 19.3071 12.8162 19.613 13.1699C19.9191 13.5234 20.0721 13.9484 20.0721 14.445C20.0721 14.9415 19.9191 15.3666 19.613 15.7201C19.3071 16.0738 18.9393 16.2506 18.5096 16.2506C18.08 16.2506 17.7121 16.0738 17.406 15.7201C17.1001 15.3666 16.9471 14.9415 16.9471 14.445Z" fill="#1C1B1F"/>
</g>
</svg>
