<svg width="16" height="4" viewBox="0 0 16 4" fill="none" xmlns="http://www.w3.org/2000/svg">
<path d="M15.1443 1.5625C15.1443 1.99219 14.9912 2.35998 14.6852 2.66589C14.3793 2.97196 14.0115 3.125 13.5818 3.125C13.1521 3.125 12.7842 2.97196 12.4781 2.66589C12.1722 2.35998 12.0193 1.99219 12.0193 1.5625C12.0193 1.13281 12.1722 0.765018 12.4781 0.459115C12.7842 0.153038 13.1521 1.87822e-08 13.5818 0C14.0115 -1.87822e-08 14.3793 0.153038 14.6852 0.459115C14.9912 0.765017 15.1443 1.13281 15.1443 1.5625ZM9.13464 1.5625C9.13464 1.99219 8.9816 2.35998 8.67552 2.66589C8.36962 2.97196 8.00182 3.125 7.57214 3.125C7.14245 3.125 6.77465 2.97196 6.46875 2.66589C6.16267 2.35998 6.00964 1.99219 6.00964 1.5625C6.00964 1.13281 6.16267 0.765018 6.46875 0.459115C6.77465 0.153039 7.14245 2.81472e-07 7.57214 2.6269e-07C8.00182 2.43907e-07 8.36962 0.153039 8.67552 0.459115C8.9816 0.765018 9.13464 1.13281 9.13464 1.5625ZM3.125 1.5625C3.125 1.99219 2.97205 2.35998 2.66615 2.66589C2.36007 2.97196 1.99219 3.125 1.5625 3.125C1.13281 3.125 0.765018 2.97196 0.459115 2.66589C0.153038 2.35998 1.87822e-08 1.99219 0 1.5625C-1.87822e-08 1.13281 0.153038 0.765018 0.459115 0.459115C0.765017 0.153039 1.13281 5.44161e-07 1.5625 5.25379e-07C1.99219 5.06597e-07 2.36007 0.153039 2.66615 0.459115C2.97205 0.765018 3.125 1.13281 3.125 1.5625Z" fill="white"/>
</svg>
