<svg width="30" height="36" viewBox="0 0 30 36" fill="none" xmlns="http://www.w3.org/2000/svg">
<path d="M23.065 35.2202H6.92954C6.55428 35.138 6.17536 35.0732 5.80558 34.971C2.53411 34.0689 0.406704 31.2348 0.403052 27.7469C0.39666 21.0615 0.3994 14.3762 0.405791 7.68989C0.405791 7.25893 0.438661 6.82432 0.500748 6.39792C1.01662 2.88815 4.08539 0.231175 7.62711 0.222957C9.8367 0.218392 12.0472 0.221131 14.2568 0.222957C17.0672 0.224783 19.4794 1.21362 21.479 3.18033C23.1928 4.86582 24.8865 6.57049 26.5793 8.27698C28.4803 10.1944 29.5376 12.5035 29.5668 15.2089C29.6134 19.4683 29.6043 23.7276 29.5823 27.987C29.5641 31.5625 27.0505 34.2268 24.189 34.9719C23.8183 35.0687 23.4393 35.139 23.065 35.2211V35.2202ZM14.9973 3.20407C14.7188 3.1849 14.4814 3.15568 14.2449 3.15568C12.0572 3.15203 9.86957 3.14929 7.68281 3.15842C7.35594 3.16024 7.02359 3.20042 6.70311 3.2689C5.00118 3.63412 3.32025 5.24474 3.33029 7.70359C3.35769 14.3789 3.33851 21.0542 3.34216 27.7295C3.34216 28.0363 3.34216 28.3495 3.39877 28.649C3.80873 30.8348 5.55814 32.2857 7.77959 32.2875C12.5987 32.2911 17.4178 32.2884 22.2378 32.2875C22.4423 32.2875 22.6505 32.2921 22.8513 32.2592C25.1568 31.8821 26.6469 30.1519 26.6533 27.8108C26.6642 23.7669 26.6569 19.723 26.6542 15.6791C26.6542 15.4006 26.6241 15.1212 26.6067 14.8144C26.4195 14.8144 26.2844 14.8144 26.1502 14.8144C23.9516 14.8144 21.752 14.788 19.5534 14.8208C16.8298 14.8619 14.9087 12.6386 14.9854 10.2583C15.0493 8.26694 14.9982 6.27192 14.9982 4.27873V3.20407H14.9973ZM18.0204 4.15456C17.9902 4.17738 17.9592 4.20021 17.9291 4.22304C17.9291 6.21531 17.9601 8.20851 17.9154 10.1999C17.8935 11.1476 18.4933 11.9073 19.5981 11.8872C21.4881 11.8534 23.3791 11.8781 25.27 11.8771C25.3759 11.8771 25.4827 11.868 25.6909 11.8589C25.3394 11.3932 25.0856 10.9677 24.7477 10.6244C22.9609 8.80473 21.1613 6.99689 19.3452 5.20548C18.9462 4.81195 18.4641 4.50243 18.0213 4.15456H18.0204Z" fill="#fff"/>
</svg>
