<svg width="15" height="15" viewBox="0 0 15 15" fill="none" xmlns="http://www.w3.org/2000/svg">
<path d="M6.50225 0C6.62334 0.033769 6.74716 0.0600339 6.86535 0.102501C7.37274 0.28482 7.74164 0.623022 7.96114 1.11489C8.00651 1.21654 8.05938 1.2486 8.16563 1.24997C9.64328 1.26787 10.8105 2.29527 11.1397 3.56553C11.2026 3.8084 11.2326 4.06405 11.2424 4.31528C11.2587 4.74438 11.2477 5.17434 11.2468 5.60396C11.2459 5.97064 10.9869 6.24301 10.6337 6.25103C10.2811 6.25904 9.99649 5.98019 9.99223 5.61283C9.98745 5.2076 9.99223 4.80237 9.99069 4.39714C9.98694 3.45229 9.35096 2.68276 8.42111 2.53097C8.14448 2.48578 7.85642 2.50556 7.57365 2.50573C7.27211 2.50573 7.0388 2.39675 6.91941 2.10988C6.88104 2.01796 6.87524 1.91102 6.86296 1.80988C6.82322 1.48618 6.57848 1.25986 6.25154 1.25747C5.83181 1.2544 5.41192 1.25423 4.99219 1.25747C4.66627 1.26003 4.41812 1.48635 4.38708 1.81398C4.36763 2.01915 4.32551 2.20863 4.16042 2.35002C4.01852 2.47162 3.85069 2.50079 3.67025 2.50556C3.35883 2.51375 3.04194 2.49874 2.73751 2.55195C1.90147 2.69828 1.26003 3.47668 1.25884 4.32773C1.25508 6.85682 1.2544 9.38575 1.25884 11.9148C1.26054 12.9023 2.09283 13.7363 3.07929 13.7397C4.7732 13.7457 6.46694 13.7423 8.16085 13.7396C8.28638 13.7394 8.41412 13.7227 8.53726 13.6968C8.94812 13.6103 9.28325 13.7962 9.36409 14.1632C9.44237 14.5185 9.22031 14.8348 8.81338 14.9211C8.61435 14.9633 8.40849 14.9941 8.20554 14.9948C6.48246 15.0006 4.75922 15.0018 3.03614 14.997C1.6262 14.9931 0.31586 13.8874 0.0598633 12.4983C0.0419555 12.4038 0.0199544 12.31 0 12.2159C0 9.48177 0 6.7475 0 4.0134C0.0455371 3.82614 0.0822055 3.63614 0.137805 3.45195C0.498349 2.2557 1.63422 1.26668 3.08134 1.24997C3.18759 1.24877 3.24132 1.21705 3.28566 1.11472C3.45399 0.726376 3.725 0.420749 4.10413 0.231608C4.30607 0.130983 4.53051 0.0757245 4.74489 0C5.33073 0 5.91641 0 6.50225 0Z" fill="black"/>
<path d="M13.121 7.4737C13.3512 7.50406 13.5675 7.51123 13.772 7.56393C14.2604 7.68962 14.638 7.97751 14.8997 8.41054C15.0832 8.71446 15.0008 9.08746 14.7149 9.27404C14.4197 9.46676 14.0459 9.39087 13.8441 9.08473C13.6935 8.85636 13.4947 8.74874 13.2197 8.75369C12.7611 8.76188 12.3023 8.75164 11.8437 8.75812C11.459 8.76341 11.169 9.14868 11.2729 9.50599C11.3288 9.6982 11.4603 9.8111 11.6548 9.84453C12.2829 9.95249 12.9126 10.0514 13.5399 10.1643C14.2408 10.2905 14.7206 10.6969 14.9213 11.3774C15.1294 12.0825 14.9392 12.7084 14.419 13.2248C14.1001 13.5416 13.7092 13.7152 13.2576 13.7437C13.2192 13.746 13.181 13.7522 13.1215 13.759C13.1215 13.9546 13.1218 14.1475 13.1215 14.3404C13.1206 14.7197 12.8628 14.9957 12.5073 14.9984C12.1408 15.0011 11.8707 14.7283 11.8659 14.3474C11.8635 14.1574 11.8656 13.9676 11.8656 13.771C11.6805 13.7503 11.5007 13.7437 11.327 13.7082C10.7933 13.599 10.3816 13.3074 10.098 12.842C9.90781 12.53 9.99086 12.1577 10.2846 11.9701C10.5834 11.7793 10.9488 11.8575 11.1528 12.1679C11.2934 12.3818 11.4799 12.4945 11.7358 12.4942C12.1896 12.4937 12.6434 12.499 13.0971 12.4925C13.4715 12.487 13.7355 12.2336 13.7391 11.893C13.7418 11.6266 13.5794 11.4407 13.3026 11.3943C12.6787 11.2898 12.0542 11.1888 11.4312 11.0802C10.1437 10.8557 9.54897 9.36187 10.3662 8.25841C10.7311 7.76586 11.2325 7.51839 11.8656 7.49247C11.8656 7.29036 11.8627 7.08741 11.8662 6.88445C11.8719 6.56706 12.0695 6.32812 12.3781 6.2587C12.7383 6.17769 13.1101 6.4637 13.12 6.83465C13.1258 7.04886 13.121 7.26342 13.121 7.4737Z" fill="black"/>
<path d="M3.79049 5.63295C3.84524 5.58332 3.89333 5.5429 3.93751 5.49873C4.3557 5.08156 4.77252 4.66303 5.19122 4.24637C5.36996 4.06849 5.58707 4.01766 5.82431 4.09015C6.05745 4.16144 6.19986 4.32807 6.25137 4.56667C6.29588 4.77235 6.24301 4.95962 6.09787 5.1068C5.61811 5.59338 5.14211 6.08457 4.64495 6.55307C4.18071 6.99053 3.42568 6.99258 2.94712 6.56399C2.62768 6.2778 2.32819 5.96808 2.03279 5.65666C1.8005 5.41175 1.82114 5.03346 2.05821 4.7981C2.29885 4.55933 2.68072 4.55046 2.92921 4.78855C3.17941 5.02835 3.42022 5.27769 3.66599 5.52226C3.70317 5.55927 3.74427 5.59236 3.79032 5.63312L3.79049 5.63295Z" fill="black"/>
<path d="M3.79015 9.38268C3.84456 9.33339 3.89265 9.29314 3.93699 9.24897C4.35518 8.8318 4.77201 8.41344 5.19071 7.99661C5.36945 7.81873 5.58656 7.76739 5.8238 7.83971C6.05694 7.91083 6.19969 8.07711 6.25137 8.31571C6.29605 8.5214 6.24352 8.70883 6.09855 8.85602C5.61897 9.34277 5.14296 9.83396 4.64563 10.3025C4.17679 10.7444 3.41886 10.7415 2.93654 10.3048C2.62205 10.0202 2.32529 9.71508 2.03331 9.40707C1.80085 9.16182 1.8208 8.78422 2.05769 8.54852C2.29817 8.3094 2.68021 8.30002 2.9287 8.53794C3.17907 8.77757 3.41988 9.02708 3.66548 9.27165C3.70266 9.30866 3.74376 9.34192 3.79015 9.38302V9.38268Z" fill="black"/>
</svg>
