<svg width="11" height="11" viewBox="0 0 11 11" fill="none" xmlns="http://www.w3.org/2000/svg">
<path d="M6.9591 2.71104H3.15734C2.85429 2.71104 2.59427 2.60394 2.37729 2.38975C2.16031 2.17571 2.05182 1.91569 2.05182 1.60969C2.05182 1.30385 2.16031 1.04245 2.37729 0.825467C2.59427 0.608489 2.85429 0.5 3.15734 0.5H9.91565C10.1532 0.5 10.3522 0.580285 10.5128 0.740855C10.6734 0.90158 10.7537 1.10063 10.7537 1.33801V8.09632C10.7537 8.39938 10.6466 8.6594 10.4326 8.87637C10.2184 9.09335 9.95831 9.20184 9.65231 9.20184C9.34647 9.20184 9.08506 9.09335 8.86809 8.87637C8.65111 8.6594 8.54262 8.39938 8.54262 8.09632V4.35159L2.72223 10.172C2.50216 10.3907 2.23318 10.5 1.91528 10.5C1.59739 10.5 1.3291 10.3901 1.11042 10.1704C0.891592 9.95045 0.782175 9.68177 0.782175 9.36434C0.782175 9.04676 0.891592 8.77863 1.11042 8.55995L6.9591 2.71104Z" fill="#2463EB"/>
</svg>
