<svg width="18" height="18" viewBox="0 0 18 18" fill="none" xmlns="http://www.w3.org/2000/svg">
<path d="M0 1.5C0 0.947715 0.447715 0.5 1 0.5H17C17.5523 0.5 18 0.947715 18 1.5C18 2.05228 17.5523 2.5 17 2.5H1C0.447716 2.5 0 2.05228 0 1.5ZM4 16.5C4 15.9477 4.44772 15.5 5 15.5H17C17.5523 15.5 18 15.9477 18 16.5C18 17.0523 17.5523 17.5 17 17.5H5C4.44772 17.5 4 17.0523 4 16.5ZM0 11.5C0 10.9477 0.447715 10.5 1 10.5H17C17.5523 10.5 18 10.9477 18 11.5C18 12.0523 17.5523 12.5 17 12.5H1C0.447716 12.5 0 12.0523 0 11.5ZM4 6.5C4 5.94772 4.44772 5.5 5 5.5H17C17.5523 5.5 18 5.94772 18 6.5C18 7.05228 17.5523 7.5 17 7.5H5C4.44772 7.5 4 7.05228 4 6.5Z" fill="#52525B"/>
</svg>
