<svg width="25" height="25" viewBox="0 0 25 25" fill="none" xmlns="http://www.w3.org/2000/svg">
<path fill-rule="evenodd" clip-rule="evenodd" d="M11.6422 0.0987533C11.0254 0.243912 10.5206 0.506986 10.0533 0.926887C9.36065 1.54907 9.02174 2.29684 9.02174 3.20256V3.65508L8.72179 3.7559C8.31413 3.89296 7.32793 4.33849 6.92935 4.56573C6.75 4.66797 6.40304 4.88964 6.15832 5.05833L5.71342 5.36505L5.28875 5.147C4.72777 4.85897 4.26511 4.73203 3.66201 4.70063C2.26223 4.62773 0.959076 5.30475 0.350924 6.42076C0.09375 6.89271 0 7.26442 0 7.8123C0 8.36569 0.093261 8.72993 0.362554 9.22825C0.611196 9.68828 1.26217 10.2907 1.82065 10.5775C2.09342 10.7176 2.19967 10.7996 2.19609 10.8672C2.19337 10.9191 2.16283 11.1876 2.12815 11.4639C2.09353 11.7402 2.06522 12.2063 2.06522 12.4996C2.06522 12.7929 2.09353 13.2589 2.12815 13.5352C2.16283 13.8115 2.19337 14.08 2.19609 14.1319C2.19967 14.1996 2.09342 14.2816 1.82065 14.4216C1.2625 14.7083 0.611304 15.3108 0.362337 15.7709C0.0585869 16.3322 -0.0170653 16.6703 0.0130978 17.3321C0.0332608 17.7735 0.0682608 17.9658 0.175543 18.224C0.560598 19.151 1.37418 19.8637 2.3913 20.165C2.59995 20.2268 2.95788 20.281 3.26565 20.2973C3.97793 20.3352 4.48022 20.2308 5.19141 19.8972L5.73766 19.641L5.95304 19.8077C6.53495 20.2579 7.90299 20.968 8.71321 21.2404L9.02174 21.3441V21.7966C9.02174 22.7023 9.36065 23.4501 10.0533 24.0723C11.4301 25.3092 13.5699 25.3092 14.9467 24.0723C15.6384 23.4509 15.9783 22.7021 15.9783 21.7997V21.3503L16.2364 21.2641C17.0392 20.996 18.1766 20.4108 18.9492 19.8683L19.2843 19.633L19.7101 19.8516C20.5618 20.2888 21.4674 20.4174 22.3245 20.2227C23.04 20.0601 23.4411 19.8561 23.9732 19.384C24.4883 18.9269 24.7596 18.5094 24.9242 17.9205C25.0557 17.4498 25.0073 16.5898 24.8245 16.1497C24.5236 15.4256 23.9989 14.8678 23.2214 14.4459C22.7668 14.1992 22.7624 14.195 22.7964 14.0327C22.9429 13.3311 22.9738 12.2778 22.8718 11.4639C22.8372 11.1876 22.8066 10.9191 22.8039 10.8672C22.8003 10.7996 22.9066 10.7176 23.1793 10.5775C23.6689 10.3261 24.3763 9.69233 24.6041 9.30114C24.8687 8.84667 25 8.3528 25 7.81132C25 7.25905 24.9066 6.89462 24.6376 6.39635C24.362 5.88602 23.6716 5.2673 23.0978 5.01634C22.0161 4.54322 20.8886 4.57823 19.7603 5.11995L19.2663 5.35714L18.8412 5.05252C18.27 4.64326 17.3499 4.16018 16.5967 3.87406L15.9783 3.63916V3.1946C15.9783 2.29743 15.6368 1.54683 14.9467 0.926887C14.0655 0.135129 12.8169 -0.177796 11.6422 0.0987533ZM12.0652 2.17751C11.9606 2.21823 11.8055 2.31076 11.7207 2.38312C11.4109 2.64726 11.3891 2.72997 11.3578 3.75976C11.3316 4.61973 11.3172 4.73168 11.2084 4.91654C11.0322 5.21594 10.8108 5.34123 10.0732 5.55879C8.88674 5.90878 7.91038 6.41403 7.04283 7.12698C6.48788 7.58306 6.34326 7.66118 5.98891 7.69643C5.65859 7.72934 5.50815 7.67617 4.59065 7.20198C3.83772 6.81283 3.83342 6.81137 3.44386 6.81137C3.09706 6.81137 3.02668 6.82792 2.82136 6.95785C2.47277 7.17844 2.32397 7.46554 2.34799 7.87123C2.37788 8.37492 2.51543 8.51422 3.47826 9.01522C4.33587 9.46149 4.57 9.65157 4.67435 9.98641C4.74951 10.2276 4.7369 10.3424 4.55674 11.0592C4.45212 11.4755 4.43402 11.6879 4.43402 12.4996C4.43402 13.3153 4.45174 13.5216 4.55788 13.9399C4.75647 14.7224 4.7612 14.8431 4.60538 15.1489C4.44853 15.4566 4.32897 15.5455 3.50543 15.9662C2.72299 16.3659 2.57647 16.4684 2.43652 16.7136C2.1769 17.1687 2.34049 17.7384 2.81717 18.0391C3.02663 18.1712 3.09614 18.1878 3.44217 18.1878H3.83152L4.67391 17.7488C5.50147 17.3175 5.5225 17.3098 5.86957 17.311C6.31342 17.3125 6.42973 17.3682 7.04283 17.8727C7.92788 18.6008 8.92783 19.117 10.0982 19.45C10.8107 19.6526 10.9776 19.7464 11.1818 20.0585C11.328 20.282 11.3322 20.3094 11.3591 21.2394C11.3812 22.0004 11.4048 22.2209 11.4768 22.338C11.8532 22.9501 12.7295 23.0853 13.2793 22.6161C13.5891 22.3517 13.6109 22.2691 13.6422 21.2394C13.6684 20.3794 13.6828 20.2675 13.7916 20.0826C13.9686 19.7817 14.1896 19.6578 14.9457 19.4351C16.1483 19.0809 17.0658 18.6047 17.9572 17.8722C18.5121 17.4161 18.6567 17.338 19.0111 17.3027C19.3414 17.2698 19.4918 17.323 20.4093 17.7972C21.1623 18.1863 21.1666 18.1878 21.5561 18.1878C21.9029 18.1878 21.9733 18.1712 22.1786 18.0413C22.5272 17.8207 22.676 17.5336 22.652 17.1279C22.622 16.6217 22.484 16.4819 21.5217 15.9828C20.6646 15.5381 20.4302 15.348 20.3257 15.0127C20.2505 14.7716 20.2631 14.6568 20.4433 13.9399C20.5479 13.5237 20.566 13.3113 20.566 12.4996C20.566 11.6838 20.5483 11.4775 20.4421 11.0592C20.2435 10.2768 20.2388 10.1561 20.3946 9.85029C20.5515 9.54254 20.671 9.45367 21.4946 9.03294C22.2772 8.63311 22.4236 8.53072 22.5632 8.28552C22.8208 7.83315 22.6559 7.25842 22.1828 6.96C21.9734 6.82792 21.9039 6.81137 21.5578 6.81137H21.1685L20.3261 7.25036C19.4985 7.68164 19.4775 7.68935 19.1304 7.68813C18.6867 7.68662 18.5705 7.63106 17.9572 7.12698C17.0579 6.388 16.0841 5.88549 14.8959 5.54747C14.2035 5.3505 13.9677 5.21579 13.7916 4.91654C13.6828 4.73168 13.6684 4.61973 13.6422 3.75976C13.6114 2.74677 13.5826 2.63096 13.301 2.38819C12.9908 2.12063 12.4488 2.02825 12.0652 2.17751ZM11.4026 8.44879C9.33179 8.90629 7.88217 10.5594 7.88082 12.465C7.87995 13.6947 8.36234 14.7105 9.33745 15.5326C10.2246 16.2805 11.2593 16.647 12.4887 16.6489C13.7959 16.6509 14.806 16.2792 15.7379 15.4535C16.6879 14.6118 17.12 13.6846 17.1192 12.49C17.118 10.8395 16.0949 9.40226 14.429 8.71074C13.5549 8.34797 12.3364 8.2425 11.4026 8.44879ZM12.1467 10.4552C11.1867 10.5778 10.3747 11.3115 10.2219 12.1944C10.0302 13.302 10.9316 14.3937 12.1603 14.542C13.7038 14.7281 14.9837 13.5818 14.7736 12.2013C14.6014 11.0705 13.4292 10.2913 12.1467 10.4552Z" fill="white"/>
</svg>
