<svg width="22" height="26" viewBox="0 0 22 26" fill="none" xmlns="http://www.w3.org/2000/svg">
<path fill-rule="evenodd" clip-rule="evenodd" d="M4.49151 0.079348C2.64652 0.41361 1.06528 1.808 0.475456 3.62072C0.212835 4.42783 0.22153 4.12348 0.22153 12.5174C0.22153 20.9066 0.212884 20.603 0.474332 21.4141C1.06015 23.2315 2.66391 24.6328 4.53108 24.9586C5.14943 25.0665 16.1482 25.0675 16.7633 24.9597C18.9183 24.5821 20.6098 22.8791 21.0134 20.6809C21.1132 20.1375 21.1132 4.89735 21.0134 4.35397C20.6089 2.1513 18.9226 0.453547 16.7633 0.075144C16.1767 -0.0276568 5.06101 -0.0238439 4.49151 0.079348ZM4.76278 2.17677C3.85802 2.37567 3.02888 3.03911 2.63993 3.87526C2.33046 4.54065 2.34653 4.13712 2.34653 11.2323V17.699H10.652H18.9574L18.9444 11.112L18.9313 4.52506L18.8032 4.19549C18.616 3.71404 18.3841 3.35191 18.0471 3.01462C17.6973 2.66462 17.3429 2.44201 16.8471 2.26075L16.4888 2.12979L10.7733 2.12085C6.17964 2.11371 4.99985 2.12466 4.76278 2.17677ZM2.34653 20.0596C2.34653 20.3269 2.46162 20.7696 2.62708 21.1385C2.89903 21.7449 3.45822 22.3098 4.09006 22.6164C4.76532 22.9441 4.52429 22.9333 10.8124 22.9184L16.4888 22.905L16.8471 22.7741C17.3377 22.5948 17.6898 22.3731 18.0449 22.02C18.5528 21.5151 18.8876 20.8283 18.9421 20.1798L18.9699 19.8499H15.3479H11.7258L11.7247 20.3509C11.7226 21.1973 11.5853 21.5332 11.1432 21.7741C10.7964 21.963 10.4617 21.9532 10.114 21.7441C9.70397 21.4975 9.6091 21.2705 9.58443 20.4774L9.56489 19.8499H5.95571H2.34653V20.0596Z" fill="#A8A8A8"/>
</svg>
