<svg width="30" height="30" viewBox="0 0 30 30" fill="none" xmlns="http://www.w3.org/2000/svg">
<mask id="mask0_155_168" style="mask-type:alpha" maskUnits="userSpaceOnUse" x="0" y="0" width="30" height="30">
<rect width="30" height="30" fill="#D9D9D9"/>
</mask>
<g mask="url(#mask0_155_168)">
<path d="M14.4003 17.7175L10.4613 13.7787C10.4071 13.7244 10.3644 13.6636 10.3331 13.5966C10.3019 13.5297 10.2863 13.4579 10.2863 13.3813C10.2863 13.2281 10.338 13.095 10.4416 12.9819C10.5451 12.869 10.6816 12.8125 10.8509 12.8125H19.1491C19.3184 12.8125 19.4549 12.8696 19.5584 12.9837C19.662 13.0977 19.7138 13.2307 19.7138 13.3828C19.7138 13.4209 19.6553 13.5529 19.5384 13.7787L15.5997 17.7175C15.5093 17.8081 15.4157 17.8743 15.3191 17.9159C15.2224 17.9576 15.116 17.9784 15 17.9784C14.884 17.9784 14.7776 17.9576 14.6809 17.9159C14.5843 17.8743 14.4907 17.8081 14.4003 17.7175Z" fill="#1C1B1F"/>
</g>
</svg>
