<svg width="36" height="35" viewBox="0 0 36 35" fill="none" xmlns="http://www.w3.org/2000/svg">
<path d="M15.9479 0C16.572 0.112563 17.2059 0.18793 17.8191 0.344025C21.3005 1.23089 23.8837 3.26677 25.5246 6.46841C25.8294 7.06323 26.2527 7.40027 26.9134 7.53996C31.193 8.44485 34.614 12.0308 35.3475 16.3469C36.0784 20.6478 34.1381 24.903 30.4779 27.0267C29.5119 27.5873 28.4273 27.1136 28.2137 26.0379C28.1029 25.4801 28.379 24.8802 28.9398 24.5377C29.806 24.0088 30.5582 23.3575 31.1531 22.5338C33.118 19.8134 33.0283 16.0945 30.9285 13.3775C29.7128 11.8047 28.1351 10.7983 26.1848 10.3836C24.6975 10.0674 23.6251 9.22808 22.9456 7.85946C21.6764 5.3038 19.6464 3.67723 16.8481 3.11003C11.5992 2.04596 7.31302 5.66407 6.50468 9.97331C6.28558 11.141 6.3283 12.3014 6.5128 13.4689C6.7496 14.9665 6.25017 16.2354 5.18684 17.2738C4.39246 18.0496 3.80744 18.9245 3.55813 20.0166C3.00803 22.425 4.27406 24.6395 6.63445 25.3534C7.17838 25.5179 7.56347 25.8285 7.73498 26.3704C7.90389 26.9043 7.77559 27.3855 7.39959 27.7924C6.9981 28.2268 6.48681 28.3395 5.93005 28.2057C3.17044 27.5418 0.906852 24.9842 0.567565 22.1641C0.55847 22.0889 0.523225 22.0169 0.5 21.9434C0.5 21.3965 0.5 20.8496 0.5 20.3027C0.627009 19.7657 0.723647 19.2193 0.8872 18.6936C1.30104 17.3645 2.03369 16.2273 3.04912 15.2747C3.46003 14.8891 3.7285 14.4481 3.61969 13.858C3.34439 12.3657 3.31304 10.868 3.64405 9.3871C4.69959 4.66415 7.57435 1.64589 12.2347 0.346624C12.8422 0.177373 13.479 0.113051 14.1023 0C14.7176 0 15.3326 0 15.9479 0Z" fill="#3C4CA6"/>
<path d="M13.2008 21.0648C14.1246 20.0832 15.2352 19.4486 16.5566 19.1155C16.5566 18.4945 16.5209 17.8891 16.5659 17.2899C16.619 16.5817 17.2318 16.0633 17.9565 16.0382C18.6497 16.0142 19.3204 16.5078 19.4184 17.1738C19.4809 17.5987 19.4609 18.0366 19.4653 18.4688C19.4718 19.0955 19.4669 19.0955 20.0453 19.2909C21.0383 19.6265 21.6267 20.001 22.808 21.0558C23.2675 20.7916 23.7341 20.5164 24.2074 20.253C24.7167 19.9695 25.2335 19.9684 25.7273 20.2825C26.2207 20.5965 26.4466 21.0623 26.4014 21.646C26.3628 22.1467 26.1086 22.5239 25.6821 22.7804C25.2827 23.0206 24.8804 23.2568 24.4708 23.4791C24.2986 23.5725 24.2597 23.6692 24.3167 23.8599C24.6483 24.967 24.65 26.0791 24.3144 27.1861C24.2564 27.3773 24.3025 27.4729 24.4732 27.5649C24.8734 27.7803 25.2676 28.008 25.6566 28.2433C26.3922 28.6884 26.6249 29.5376 26.2156 30.2495C25.809 30.957 24.9467 31.1888 24.2017 30.7816C23.7927 30.5581 23.3979 30.3081 22.9839 30.0947C22.8981 30.0504 22.7128 30.0703 22.6472 30.1351C21.8034 30.9692 20.8184 31.5476 19.6745 31.8673C19.5832 31.8928 19.4824 32.0703 19.476 32.1822C19.4466 32.7046 19.4785 33.2312 19.4323 33.7515C19.3709 34.4445 18.759 34.9811 18.0734 34.9994C17.3407 35.0191 16.6774 34.5438 16.5787 33.8668C16.5152 33.4307 16.5363 32.9812 16.5314 32.5376C16.5249 31.9425 16.5292 31.9443 15.9789 31.7581C15.0049 31.4289 14.1366 30.9215 13.4195 30.1805C13.2475 30.0028 13.1256 30.0028 12.9292 30.1274C12.5649 30.3585 12.1866 30.5688 11.8069 30.7743C11.0385 31.1903 10.1746 30.9569 9.7694 30.2324C9.36986 29.5182 9.61446 28.678 10.3577 28.2341C10.7481 28.001 11.1415 27.7721 11.5412 27.5553C11.7015 27.4682 11.7384 27.3721 11.6861 27.1994C11.3471 26.0812 11.3482 24.9595 11.6857 23.8413C11.7389 23.6651 11.6966 23.5735 11.5381 23.4871C11.1387 23.2699 10.7454 23.0409 10.3551 22.8076C9.60439 22.3589 9.36531 21.4947 9.7871 20.777C10.2005 20.0735 11.0574 19.8513 11.8054 20.2635C12.2635 20.5159 12.7127 20.7839 13.2006 21.0649L13.2008 21.0648ZM17.9956 29.1508C19.9998 29.1538 21.6214 27.5412 21.6272 25.5391C21.6331 23.5257 20.0021 21.8786 18.0005 21.8766C16.0133 21.8747 14.3741 23.5105 14.3695 25.4999C14.3648 27.5272 15.9743 29.1477 17.9954 29.1507L17.9956 29.1508Z" fill="#3C4CA6"/>
</svg>
