<svg width="24" height="24" viewBox="0 0 24 24" fill="none" xmlns="http://www.w3.org/2000/svg">
<mask id="mask0_181_168" style="mask-type:alpha" maskUnits="userSpaceOnUse" x="0" y="0" width="24" height="24">
<rect x="24" y="-3.05176e-05" width="24" height="24" transform="rotate(90 24 -3.05176e-05)" fill="#D9D9D9"/>
</mask>
<g mask="url(#mask0_181_168)">
<path d="M12 12.9462L16.073 8.87298C16.2115 8.73465 16.3856 8.66381 16.5952 8.66048C16.8047 8.65731 16.982 8.72815 17.127 8.87298C17.2718 9.01798 17.3442 9.19365 17.3442 9.39998C17.3442 9.60631 17.2718 9.78198 17.127 9.92698L12.6327 14.4212C12.5391 14.5147 12.4403 14.5807 12.3365 14.6192C12.2327 14.6577 12.1205 14.677 12 14.677C11.8795 14.677 11.7673 14.6577 11.6635 14.6192C11.5597 14.5807 11.4609 14.5147 11.3672 14.4212L6.87299 9.92698C6.73465 9.78848 6.66382 9.6144 6.66049 9.40473C6.65732 9.19523 6.72815 9.01798 6.87299 8.87298C7.01799 8.72815 7.19365 8.65573 7.39999 8.65573C7.60632 8.65573 7.78199 8.72815 7.92699 8.87298L12 12.9462Z" fill="white"/>
</g>
</svg>
