<svg width="21" height="20" viewBox="0 0 21 20" fill="none" xmlns="http://www.w3.org/2000/svg">
<path d="M20.0197 10.352C19.9894 10.4631 19.9607 10.5753 19.9294 10.6859C19.6238 11.7559 18.6372 12.4994 17.5184 12.4999C14.5282 12.5009 11.5379 12.4999 8.54717 12.4999C7.88436 12.4999 7.31243 12.2677 6.83608 11.8118C6.43181 11.4246 6.0359 11.0281 5.64103 10.6311C5.25818 10.2461 5.25765 9.7562 5.64155 9.36909C6.04008 8.96685 6.44017 8.56514 6.8507 8.1749C7.31765 7.7304 7.87914 7.50137 8.52785 7.50084C11.5181 7.4998 14.5083 7.4998 17.4991 7.50084C18.7349 7.50084 19.7544 8.34863 19.9832 9.56161C19.9889 9.59187 20.0072 9.61952 20.0197 9.64873V10.352ZM7.4242 9.96332C7.64775 10.2049 7.85145 10.4621 8.09589 10.6713C8.21133 10.7699 8.40615 10.8179 8.56545 10.8184C11.5494 10.8268 14.5339 10.8257 17.5179 10.8236C17.9942 10.8236 18.3478 10.4652 18.3478 9.99932C18.3478 9.53239 17.9942 9.1771 17.5168 9.17658C14.5329 9.17502 11.5484 9.17658 8.56441 9.17502C8.34504 9.17502 8.1523 9.24649 7.99561 9.39257C7.79139 9.583 7.60022 9.78646 7.4242 9.96332Z" fill="black"/>
<path d="M8.21106 20C8.0925 19.9692 7.97341 19.9416 7.85641 19.9061C7.46416 19.7872 7.11578 19.5905 6.82276 19.3015C6.42894 18.9128 6.03302 18.5257 5.64286 18.1333C5.25948 17.7478 5.25687 17.2574 5.6392 16.8713C6.04242 16.4639 6.44617 16.0569 6.86245 15.6636C7.32575 15.2264 7.88305 15.0015 8.52393 15.0005C10.1394 14.9989 11.7549 14.9984 13.371 15.0005C14.6047 15.002 15.7141 15.9995 15.8368 17.1797C15.9919 18.6665 14.9437 19.7538 13.8134 19.9599C13.7695 19.9677 13.7277 19.9859 13.6854 19.9995H8.21158L8.21106 20ZM7.41297 17.5125C7.6151 17.7165 7.79844 17.9424 8.02355 18.1146C8.16823 18.2252 8.37298 18.3139 8.55213 18.3154C10.1541 18.3305 11.7565 18.3264 13.359 18.3232C13.8186 18.3222 14.1795 17.9607 14.1873 17.5094C14.1952 17.056 13.8254 16.6783 13.3579 16.6778C11.7623 16.6746 10.1661 16.6705 8.57041 16.6851C8.39021 16.6866 8.18129 16.7665 8.0387 16.8781C7.81097 17.056 7.62712 17.2908 7.41349 17.513L7.41297 17.5125Z" fill="black"/>
<path d="M11.7955 0.000695616C12.8772 0.000695616 13.9589 -0.00086952 15.0401 0.000695616C16.3051 0.00278246 17.4155 1.01856 17.5132 2.25867C17.6171 3.58173 16.725 4.74775 15.4417 4.96218C15.3075 4.98461 15.1706 4.99765 15.0348 4.99818C12.8714 5.00026 10.7085 4.99974 8.54511 4.99974C7.88177 4.99974 7.31089 4.76654 6.83454 4.31004C6.43027 3.92241 6.03384 3.52643 5.63949 3.1294C5.2629 2.75012 5.25716 2.26023 5.63061 1.88147C6.04167 1.4641 6.4543 1.04673 6.88207 0.646575C7.337 0.221902 7.88543 0.00330418 8.51168 0.00173904C9.60645 -0.00139123 10.7007 0.000695616 11.7955 0.000695616ZM7.41117 2.52213C7.60861 2.71829 7.78933 2.93898 8.01079 3.10436C8.16226 3.21757 8.37118 3.31409 8.55451 3.31513C10.7096 3.32974 12.8646 3.32609 15.0197 3.32348C15.4939 3.32348 15.8465 2.96246 15.8449 2.49552C15.8434 2.03694 15.4934 1.678 15.0307 1.67748C12.8756 1.67487 10.7205 1.67226 8.56548 1.68426C8.39103 1.6853 8.18576 1.75887 8.04944 1.86738C7.81857 2.05155 7.63159 2.29049 7.41065 2.52213H7.41117Z" fill="black"/>
<path d="M3.33648 2.54925C3.2947 3.4852 2.5222 4.21194 1.60972 4.17386C0.665381 4.13421 -0.0371304 3.34747 0.00152069 2.37343C0.0354709 1.52043 0.848189 0.79212 1.72672 0.827075C2.64181 0.863595 3.37618 1.64929 3.33596 2.54925H3.33648Z" fill="black"/>
<path d="M3.33791 9.97168C3.36351 10.8737 2.61921 11.6505 1.70674 11.6745C0.826119 11.6975 0.0259367 10.9619 0.00138809 10.1073C-0.0262944 9.13224 0.688227 8.35124 1.62995 8.32672C2.54609 8.30324 3.3118 9.04042 3.33791 9.9722V9.97168Z" fill="black"/>
<path d="M3.33791 17.5281C3.31232 18.4594 2.54557 19.1986 1.63048 19.1741C0.687706 19.1491 -0.0262939 18.3686 0.00138863 17.394C0.025415 16.5389 0.82403 15.8044 1.70621 15.8263C2.61817 15.8487 3.36299 16.625 3.33791 17.5281Z" fill="black"/>
</svg>
