<svg width="13" height="15" viewBox="0 0 13 15" fill="none" xmlns="http://www.w3.org/2000/svg">
<g clip-path="url(#clip0_181_229)">
<path d="M9.71615 15H2.80135C2.64052 14.9648 2.47852 14.9354 2.31965 14.8936C1.06942 14.5633 -0.0070702 13.3952 -2.66637e-05 11.7827C0.0121039 8.92728 0.00271249 6.07152 0.00506034 3.21615C0.00506034 3.02675 0.0183648 2.8354 0.0461476 2.64797C0.266845 1.14339 1.58242 0.00468405 3.1003 0.00116228C4.04727 -0.000794261 4.99463 0.000379662 5.94159 0.00116228C7.14604 0.00194489 8.17987 0.425731 9.03684 1.26861C9.77132 1.99096 10.4972 2.72153 11.2227 3.45289C12.0374 4.27463 12.4905 5.26425 12.503 6.4237C12.523 8.24915 12.5183 10.0746 12.5101 11.9C12.503 13.4379 11.4031 14.6318 10.0711 14.9268C9.95328 14.953 9.83471 14.9761 9.71615 15.0004V15ZM6.25894 1.28309C6.15368 1.27409 6.0582 1.25843 5.96233 1.25843C5.00519 1.25687 4.04844 1.25726 3.0913 1.25804C2.76143 1.25804 2.45386 1.34609 2.17564 1.51983C1.55855 1.90605 1.26155 2.46914 1.26194 3.1958C1.26351 6.06643 1.26233 8.93707 1.26311 11.8077C1.26311 11.8809 1.26781 11.954 1.27251 12.0272C1.33159 12.9628 2.14004 13.7384 3.08074 13.7412C5.19967 13.7466 7.31899 13.7435 9.43793 13.7423C9.74119 13.7423 10.0272 13.6637 10.2882 13.5107C10.9441 13.1268 11.2567 12.5492 11.2559 11.792C11.254 10.1079 11.2556 8.42367 11.2548 6.73909C11.2548 6.63187 11.2383 6.52387 11.2462 6.41744C11.2563 6.27539 11.1902 6.25152 11.0646 6.25191C10.1075 6.25622 9.15031 6.24604 8.19357 6.25661C7.04312 6.26874 6.22725 5.32412 6.25425 4.31337C6.27968 3.3621 6.25972 2.40966 6.25972 1.45761C6.25972 1.40439 6.25972 1.35157 6.25972 1.28309H6.25894ZM7.52482 1.66422C7.51895 1.73544 7.51582 1.75813 7.51582 1.78122C7.51582 2.64992 7.51582 3.51863 7.5166 4.38733C7.5166 4.43546 7.52247 4.48477 7.535 4.53133C7.61443 4.82599 7.84178 4.99386 8.17987 4.99542C9.01453 4.99855 9.84919 4.9966 10.6838 4.99621C10.721 4.99621 10.7582 4.98955 10.8365 4.98212C10.6909 4.7896 10.5798 4.60412 10.4326 4.45385C9.67036 3.67711 8.90262 2.90584 8.12783 2.14162C7.95409 1.97022 7.74435 1.836 7.5256 1.66461L7.52482 1.66422Z" fill="black"/>
<path d="M5.37302 10.0007C4.99697 9.625 4.63345 9.2646 4.27305 8.90069C4.04492 8.67021 4.01087 8.35403 4.17992 8.09968C4.40296 7.76472 4.85649 7.72011 5.15662 8.01164C5.48571 8.33133 5.80737 8.65886 6.13098 8.98443C6.16855 9.02238 6.1975 9.06895 6.24015 9.12373C6.29885 9.06817 6.33681 9.03334 6.37359 8.99695C6.70542 8.6659 7.0349 8.3329 7.36869 8.00342C7.55691 7.81794 7.78543 7.7702 8.03 7.85863C8.27691 7.94785 8.41426 8.13646 8.43774 8.39825C8.45574 8.59977 8.37983 8.76882 8.23661 8.91086C7.91065 9.23408 7.58704 9.55926 7.26264 9.88404C7.2286 9.91809 7.19612 9.95409 7.15386 9.99791C7.1926 10.0394 7.22664 10.0785 7.26342 10.1153C7.59799 10.4507 7.93765 10.7805 8.26596 11.1221C8.60405 11.4739 8.47609 12.0167 8.02413 12.163C7.78112 12.2417 7.5616 12.1888 7.37847 12.0069C7.04625 11.6762 6.71481 11.3448 6.38455 11.0122C6.34698 10.9742 6.31842 10.9277 6.27968 10.8776C6.22333 10.9292 6.18694 10.9597 6.15368 10.993C5.82537 11.3205 5.49863 11.65 5.16875 11.976C4.89249 12.2491 4.51292 12.2546 4.25583 11.994C4.00618 11.7404 4.01322 11.3604 4.2797 11.0912C4.63658 10.7304 4.99775 10.374 5.37223 10.0007H5.37302Z" fill="black"/>
</g>
<defs>
<clipPath id="clip0_181_229">
<rect width="12.5172" height="15" fill="white"/>
</clipPath>
</defs>
</svg>
