<svg width="13" height="15" viewBox="0 0 13 15" fill="none" xmlns="http://www.w3.org/2000/svg">
<g clip-path="url(#clip0_135_156)">
<path d="M9.71621 15H2.80141C2.64058 14.9648 2.47858 14.9354 2.31971 14.8936C1.06948 14.5633 -0.00700917 13.3953 3.43714e-05 11.7827C0.0121649 8.9273 0.00277353 6.07154 0.00512137 3.21616C0.00512137 3.02677 0.0184258 2.83542 0.0462087 2.64798C0.266906 1.1434 1.58248 0.00469931 3.10037 0.00117754C4.04733 -0.000779002 4.99469 0.000394921 5.94165 0.00117754C7.1461 0.00196015 8.17993 0.425746 9.0369 1.26862C9.77138 1.99098 10.4973 2.72155 11.2227 3.4529C12.0374 4.27465 12.4906 5.26427 12.5031 6.42371C12.5231 8.24916 12.5184 10.0746 12.5101 11.9001C12.5031 13.4379 11.4031 14.6318 10.0711 14.9268C9.95334 14.953 9.83477 14.9761 9.71621 15.0004V15ZM6.259 1.2831C6.15374 1.2741 6.05826 1.25845 5.96239 1.25845C5.00525 1.25688 4.0485 1.25728 3.09137 1.25806C2.76149 1.25806 2.45393 1.3461 2.17571 1.51984C1.55861 1.90606 1.26161 2.46916 1.262 3.19581C1.26357 6.06645 1.26239 8.93708 1.26318 11.8077C1.26318 11.8809 1.26787 11.9541 1.27257 12.0272C1.33165 12.9629 2.1401 13.7384 3.0808 13.7412C5.19973 13.7466 7.31906 13.7435 9.43799 13.7423C9.74125 13.7423 10.0273 13.6637 10.2883 13.5107C10.9441 13.1268 11.2568 12.5492 11.256 11.7921C11.254 10.1079 11.2556 8.42369 11.2548 6.73911C11.2548 6.63189 11.2384 6.52389 11.2462 6.41745C11.2564 6.27541 11.1903 6.25154 11.0647 6.25193C10.1075 6.25623 9.15038 6.24606 8.19363 6.25662C7.04318 6.26875 6.22731 5.32414 6.25431 4.31339C6.27974 3.36212 6.25979 2.40968 6.25979 1.45763C6.25979 1.40441 6.25979 1.35158 6.25979 1.2831H6.259ZM7.52488 1.66424C7.51901 1.73545 7.51588 1.75815 7.51588 1.78124C7.51588 2.64994 7.51588 3.51864 7.51667 4.38735C7.51667 4.43548 7.52254 4.48478 7.53506 4.53135C7.61449 4.826 7.84184 4.99387 8.17993 4.99544C9.01459 4.99857 9.84925 4.99661 10.6839 4.99622C10.7211 4.99622 10.7583 4.98957 10.8365 4.98213C10.691 4.78961 10.5798 4.60413 10.4327 4.45387C9.67042 3.67712 8.90268 2.90586 8.12789 2.14163C7.95415 1.97024 7.74441 1.83602 7.52567 1.66463L7.52488 1.66424Z" fill="black"/>
<path d="M5.37302 10.0007C4.99697 9.625 4.63345 9.2646 4.27305 8.90069C4.04492 8.67021 4.01087 8.35403 4.17992 8.09968C4.40296 7.76472 4.85649 7.72011 5.15662 8.01164C5.48571 8.33133 5.80737 8.65886 6.13098 8.98443C6.16855 9.02238 6.1975 9.06895 6.24015 9.12373C6.29885 9.06817 6.33681 9.03334 6.37359 8.99695C6.70542 8.6659 7.0349 8.3329 7.36869 8.00342C7.55691 7.81794 7.78543 7.7702 8.03 7.85863C8.27691 7.94785 8.41426 8.13646 8.43774 8.39825C8.45574 8.59977 8.37983 8.76882 8.23661 8.91086C7.91065 9.23408 7.58704 9.55926 7.26264 9.88404C7.2286 9.91809 7.19612 9.95409 7.15386 9.99791C7.1926 10.0394 7.22664 10.0785 7.26342 10.1153C7.59799 10.4507 7.93765 10.7805 8.26596 11.1221C8.60405 11.4739 8.47609 12.0167 8.02413 12.163C7.78112 12.2417 7.5616 12.1888 7.37847 12.0069C7.04625 11.6762 6.71481 11.3448 6.38455 11.0122C6.34698 10.9742 6.31842 10.9277 6.27968 10.8776C6.22333 10.9292 6.18694 10.9597 6.15368 10.993C5.82537 11.3205 5.49863 11.65 5.16875 11.976C4.89249 12.2491 4.51292 12.2546 4.25583 11.994C4.00618 11.7404 4.01322 11.3604 4.2797 11.0912C4.63658 10.7304 4.99775 10.374 5.37223 10.0007H5.37302Z" fill="black"/>
</g>
<defs>
<clipPath id="clip0_135_156">
<rect width="12.5172" height="15" fill="white"/>
</clipPath>
</defs>
</svg>
