<svg width="30" height="30" viewBox="0 0 30 30" fill="none" xmlns="http://www.w3.org/2000/svg">
<mask id="mask0_181_174" style="mask-type:alpha" maskUnits="userSpaceOnUse" x="0" y="0" width="30" height="30">
<rect y="-3.05176e-05" width="30" height="30" fill="#D9D9D9"/>
</mask>
<g mask="url(#mask0_181_174)">
<path d="M14.0625 13.875L11.6587 16.2787C11.4727 16.4646 11.252 16.5563 10.9966 16.554C10.7409 16.5515 10.5161 16.4534 10.3222 16.2597C10.1411 16.0657 10.0474 15.8461 10.0409 15.6009C10.0345 15.3557 10.1282 15.1361 10.3222 14.9422L14.2091 11.0553C14.3261 10.9382 14.4496 10.8557 14.5794 10.8078C14.7092 10.7597 14.8494 10.7356 15 10.7356C15.1506 10.7356 15.2908 10.7597 15.4206 10.8078C15.5504 10.8557 15.6739 10.9382 15.7909 11.0553L19.6778 14.9422C19.8636 15.1282 19.9554 15.3458 19.9531 15.595C19.9506 15.8441 19.8589 16.0657 19.6778 16.2597C19.4839 16.4534 19.2611 16.5535 19.0097 16.56C18.758 16.5664 18.5352 16.4727 18.3412 16.2787L15.9375 13.875V23.4375C15.9375 23.7035 15.8477 23.9262 15.6681 24.1056C15.4888 24.2852 15.266 24.375 15 24.375C14.734 24.375 14.5112 24.2852 14.3319 24.1056C14.1523 23.9262 14.0625 23.7035 14.0625 23.4375V13.875ZM5.625 10.3365V7.88466C5.625 7.2532 5.84375 6.71872 6.28125 6.28122C6.71875 5.84372 7.25323 5.62497 7.88469 5.62497H22.1153C22.7468 5.62497 23.2812 5.84372 23.7188 6.28122C24.1562 6.71872 24.375 7.2532 24.375 7.88466V10.3365C24.375 10.6026 24.2852 10.8253 24.1056 11.0047C23.9263 11.1842 23.7035 11.274 23.4375 11.274C23.1715 11.274 22.9487 11.1842 22.7694 11.0047C22.5898 10.8253 22.5 10.6026 22.5 10.3365V7.88466C22.5 7.78841 22.4599 7.70028 22.3797 7.62028C22.2997 7.54007 22.2116 7.49997 22.1153 7.49997H7.88469C7.78844 7.49997 7.70031 7.54007 7.62031 7.62028C7.5401 7.70028 7.5 7.78841 7.5 7.88466V10.3365C7.5 10.6026 7.41021 10.8253 7.23063 11.0047C7.05125 11.1842 6.82854 11.274 6.5625 11.274C6.29646 11.274 6.07375 11.1842 5.89437 11.0047C5.71479 10.8253 5.625 10.6026 5.625 10.3365Z" fill="white"/>
</g>
</svg>
