<svg width="10" height="22" viewBox="0 0 10 22" fill="none" xmlns="http://www.w3.org/2000/svg">
<path d="M4.28506 15.1482L0.717875 11.5329C0.499958 11.3069 0.390999 11.0432 0.390999 10.742C0.390999 10.4407 0.499958 10.1771 0.717875 9.95104L4.28506 6.33572C4.46944 6.14343 4.67662 6.0952 4.90662 6.19104C5.13662 6.28687 5.25162 6.46895 5.25162 6.73729V14.7589C5.25162 15.0224 5.13662 15.2012 4.90662 15.2954C4.67662 15.3896 4.46944 15.3405 4.28506 15.1482ZM7.99194 20.4295V1.05447C7.99194 0.788849 8.08183 0.566245 8.26163 0.386662C8.44142 0.20687 8.66413 0.116974 8.92975 0.116974C9.19558 0.116974 9.41819 0.20687 9.59756 0.386662C9.77715 0.566245 9.86694 0.788849 9.86694 1.05447V20.4295C9.86694 20.6951 9.77704 20.9177 9.59725 21.0973C9.41746 21.2771 9.19475 21.367 8.92912 21.367C8.66329 21.367 8.44069 21.2771 8.26131 21.0973C8.08173 20.9177 7.99194 20.6951 7.99194 20.4295Z" fill="#1C1B1F"/>
</svg>
