<svg width="31" height="30" viewBox="0 0 31 30" fill="none" xmlns="http://www.w3.org/2000/svg">
<path d="M0.215332 5.56702C0.369363 5.00699 0.473002 4.42795 0.685033 3.89074C1.61302 1.54414 3.90923 0.00287314 6.43269 0.00192233C11.4416 2.07053e-05 16.4514 -0.000930106 21.4603 0.00192233C24.6388 0.00382395 27.2906 2.35423 27.6795 5.51568C27.7137 5.79617 27.7204 6.08046 27.7204 6.3638C27.7233 8.77601 27.7242 11.1873 27.7204 13.5995C27.7204 14.3249 27.381 14.8042 26.7677 14.9686C26.0679 15.1569 25.3282 14.6701 25.2312 13.9532C25.2103 13.7991 25.2046 13.6423 25.2046 13.4863C25.2027 11.1131 25.2084 8.74083 25.2017 6.3676C25.196 4.59339 24.1729 3.16622 22.5527 2.68036C22.2304 2.58338 21.8834 2.52347 21.5487 2.52252C16.4904 2.51302 11.433 2.50921 6.37469 2.51872C4.4008 2.52252 2.73879 4.19215 2.73118 6.16603C2.71977 9.00706 2.72738 11.849 2.72738 14.6901C2.72738 14.7385 2.73118 14.787 2.73593 14.9021C2.83862 14.8051 2.91183 14.7395 2.98029 14.671C4.02999 13.6223 5.07873 12.5707 6.12938 11.5229C8.17552 9.48246 11.2039 9.472 13.2481 11.5077C15.4274 13.6784 17.5981 15.8577 19.7754 18.0303C20.1624 18.4163 20.3193 18.8622 20.1519 19.3871C19.9922 19.89 19.6214 20.1753 19.1051 20.2466C18.6668 20.3074 18.3112 20.1258 18.0041 19.8178C16.0939 17.9028 14.1799 15.9917 12.2669 14.0787C11.9835 13.7953 11.704 13.5091 11.4168 13.2306C10.4299 12.2721 8.97326 12.2531 7.99867 13.2163C6.2758 14.9183 4.5691 16.6364 2.86239 18.3545C2.78538 18.4324 2.73308 18.5722 2.73118 18.6835C2.72167 19.601 2.71597 20.5195 2.73023 21.437C2.75875 23.2321 4.32759 24.897 6.12462 24.9588C7.79235 25.0168 9.46292 24.9854 11.1325 24.9911C12.0501 24.994 12.9686 24.9816 13.8861 24.9949C14.8322 25.0083 15.4435 25.8145 15.1478 26.6522C14.9786 27.1324 14.6325 27.4224 14.1181 27.4889C14.0116 27.5022 13.9042 27.5089 13.7967 27.5089C11.3845 27.5098 8.97326 27.5203 6.56105 27.507C3.60878 27.4908 1.19182 25.6615 0.424511 22.8803C0.339888 22.5618 0.285692 22.2357 0.215332 21.9143C0.215332 16.4652 0.215332 11.0161 0.215332 5.56702Z" fill="#6E6E6E"/>
<path d="M23.6519 30C23.5017 29.9154 23.3381 29.8479 23.2031 29.7443C22.8855 29.4989 22.7134 29.1728 22.7134 28.7621C22.7153 27.6296 22.7134 26.4972 22.7134 25.3648C22.7134 25.2593 22.7134 25.1537 22.7134 25.014C22.586 25.014 22.4824 25.014 22.3787 25.014C21.2463 25.014 20.1139 25.0187 18.9815 25.0111C18.4053 25.0073 17.9328 24.6536 17.7654 24.1278C17.6009 23.6115 17.7768 23.0277 18.2437 22.7368C18.4547 22.6046 18.7295 22.5152 18.9777 22.5105C20.2071 22.4877 21.4365 22.5 22.7134 22.5C22.7134 22.3878 22.7134 22.2861 22.7134 22.1834C22.7134 21.051 22.7125 19.9186 22.7134 18.7862C22.7144 18.0559 23.2364 17.5092 23.9419 17.4949C24.6464 17.4807 25.2169 18.0379 25.2226 18.7738C25.2321 19.8967 25.2255 21.0187 25.2255 22.1416C25.2255 22.2481 25.2255 22.3536 25.2255 22.4991C25.3472 22.4991 25.4499 22.4991 25.5535 22.4991C26.6764 22.4991 27.7984 22.4981 28.9213 22.4991C29.6553 22.5 30.2049 23.0239 30.2115 23.7237C30.2182 24.4463 29.681 25.0016 28.9422 25.0083C27.8193 25.0187 26.6973 25.0111 25.5744 25.0111C25.4689 25.0111 25.3633 25.0111 25.2255 25.0111V25.3791C25.2255 26.3651 25.197 27.352 25.234 28.3361C25.2635 29.1072 25.0325 29.6844 24.2937 29.9981H23.649L23.6519 30Z" fill="#6E6E6E"/>
<path d="M22.7144 8.14372C22.7125 10.1975 21.0238 11.8861 18.9691 11.888C16.8907 11.8899 15.2125 10.1946 15.2153 8.09333C15.2182 6.04433 16.9211 4.35664 18.9748 4.369C21.0543 4.38136 22.7172 6.05764 22.7144 8.14372ZM17.7293 8.11615C17.7264 8.80548 18.2807 9.37217 18.9625 9.37407C19.6309 9.37597 20.1938 8.81975 20.2004 8.15038C20.208 7.44487 19.6803 6.90006 18.9815 6.8896C18.2855 6.87914 17.7312 7.4211 17.7283 8.1171L17.7293 8.11615Z" fill="#6E6E6E"/>
</svg>
