<svg width="29" height="35" viewBox="0 0 29 35" fill="none" xmlns="http://www.w3.org/2000/svg">
<path d="M22.4603 35H6.47085C5.88485 34.8485 5.27897 34.7504 4.71592 34.5371C1.79169 33.4286 0.00646983 30.7665 0.00357551 27.5282C-0.00259906 20.8556 -9.06414e-05 14.1828 0.00589097 7.51011C0.00627688 7.05673 0.0410088 6.59964 0.103333 6.15055C0.576652 2.74268 3.65834 0.0233599 7.05956 0.0114852C9.36248 0.00350375 11.6656 -0.011875 13.9681 0.0159625C16.5082 0.0465254 18.7509 0.929541 20.588 2.68993C22.5187 4.54025 24.3983 6.448 26.2397 8.38923C27.8784 10.1167 28.8322 12.2222 28.8768 14.6167C28.9578 18.9763 28.9544 23.3384 28.9165 27.699C28.887 31.1164 26.7556 33.8666 23.5754 34.7514C23.2089 34.8534 22.8321 34.918 22.4603 35ZM14.4659 3.00042C14.2219 2.9792 14.0003 2.94377 13.7788 2.94338C11.566 2.93949 9.35302 2.92158 7.14098 2.95623C6.62464 2.96441 6.07414 3.07089 5.60255 3.27841C3.82331 4.06156 2.91797 5.47037 2.91585 7.43205C2.90832 14.1508 2.91295 20.8694 2.91392 27.5882C2.91392 27.7359 2.92376 27.8841 2.93321 28.0317C3.07581 30.2598 4.9384 32.0586 7.15295 32.0638C12.0299 32.0755 16.907 32.0677 21.784 32.0669C22.4861 32.0669 23.1501 31.8939 23.7546 31.5409C25.2844 30.6474 26.0228 29.2954 26.0201 27.514C26.0145 23.5852 26.0189 19.6564 26.0172 15.7278C26.0172 15.4777 25.979 15.2258 25.9968 14.9776C26.0207 14.6443 25.8648 14.5919 25.5753 14.5931C23.3627 14.6032 21.1497 14.5801 18.9373 14.6034C16.2199 14.632 14.3872 12.3529 14.4521 10.0682C14.515 7.84942 14.4658 5.62747 14.4658 3.40689C14.4658 3.28308 14.4659 3.15927 14.4659 3.00042ZM17.3919 3.91361C17.3805 4.05552 17.3724 4.10867 17.3724 4.16201C17.372 6.18831 17.3717 8.21461 17.3744 10.2409C17.3744 10.353 17.3875 10.4687 17.4164 10.5767C17.6011 11.2656 18.1259 11.6567 18.9072 11.6597C20.8369 11.6669 22.7669 11.6626 24.6968 11.6612C24.7829 11.6612 24.8689 11.6456 25.0405 11.6291C24.7335 11.2067 24.5037 10.7947 24.1863 10.4698C22.3252 8.56443 20.4504 6.67226 18.5622 4.79449C18.233 4.46705 17.8162 4.22878 17.3919 3.91361Z" fill="white"/>
<path d="M15.2402 28.0317C14.3838 28.0135 13.3969 27.6369 12.5901 26.8237C12.1563 26.3865 12.1261 25.8488 12.5 25.4605C12.8801 25.0657 13.3949 25.0793 13.8493 25.5167C14.3603 26.0087 14.9619 26.237 15.6631 26.1889C15.8177 26.1784 15.9794 26.1461 16.1198 26.0832C16.4062 25.9551 16.6553 25.769 16.6871 25.421C16.7199 25.063 16.4629 24.8732 16.198 24.7525C15.5421 24.4536 14.8764 24.1735 14.2023 23.9193C13.0088 23.4692 12.5488 22.3923 12.6266 21.5488C12.7242 20.4886 13.5321 19.6039 14.6576 19.3621C15.8756 19.1005 16.9582 19.4431 17.9303 20.1793C18.3456 20.4937 18.4046 21.022 18.115 21.4248C17.8148 21.8424 17.3007 21.9403 16.8598 21.6364C16.3724 21.3006 15.8621 21.052 15.2552 21.1238C15.07 21.1458 14.8541 21.1836 14.7211 21.2967C14.5851 21.4125 14.4676 21.6296 14.4672 21.8025C14.467 21.9282 14.6466 22.1091 14.7869 22.1712C15.3943 22.4404 16.0212 22.6648 16.6329 22.9249C17.4871 23.2882 18.1864 23.8295 18.4338 24.7807C18.6871 25.7548 18.3732 26.5796 17.654 27.245C17.0543 27.7996 16.3255 28.0381 15.2402 28.0317Z" fill="white"/>
<path d="M10.9875 21.3795C10.9875 22.4142 11.0103 23.4488 10.9823 24.4813C10.9366 26.1647 9.89398 27.5937 8.50379 27.9287C7.1294 28.2616 5.69709 27.4029 5.10731 25.8934C4.8721 25.2891 5.03359 24.6255 5.49347 24.3117C5.94283 24.0043 6.47819 24.1718 6.79063 24.7145C6.88366 24.8778 6.9644 25.0538 7.07499 25.1958C7.67705 25.9654 8.71794 25.7004 8.97772 24.7061C9.03915 24.4686 9.04617 24.2036 9.04793 23.9513C9.0532 22.0961 9.05495 20.241 9.04793 18.3859C9.04793 17.9067 9.13394 17.4848 9.485 17.2028C10.1239 16.6897 10.9647 17.2028 10.9875 18.1505C11.0121 19.2255 10.9928 20.3025 10.9928 21.3795H10.9893H10.9875Z" fill="white"/>
</svg>
