<svg width="8" height="4" viewBox="0 0 8 4" fill="none" xmlns="http://www.w3.org/2000/svg">
<path d="M3.54717 4C3.46712 4 3.39261 3.98721 3.32363 3.96164C3.25465 3.93606 3.18905 3.89222 3.12683 3.8301L0.141234 0.84451C0.0493375 0.752502 0.0022819 0.636856 6.75161e-05 0.497571C-0.00203614 0.358398 0.0450194 0.240648 0.141234 0.144322C0.23756 0.0481074 0.354257 0 0.491327 0C0.628398 0 0.745095 0.0481074 0.841421 0.144322L3.54717 2.85024L6.25292 0.144322C6.34493 0.0524255 6.46058 0.00536991 6.59986 0.00315553C6.73903 0.00105187 6.85678 0.0481074 6.95311 0.144322C7.04932 0.240648 7.09743 0.357346 7.09743 0.494416C7.09743 0.631486 7.04932 0.748184 6.95311 0.84451L3.96752 3.8301C3.90529 3.89222 3.83969 3.93606 3.77071 3.96164C3.70173 3.98721 3.62722 4 3.54717 4Z" fill="#1C1B1F"/>
</svg>
