<svg width="107" height="121" viewBox="0 0 107 121" fill="none" xmlns="http://www.w3.org/2000/svg">
<mask id="path-1-inside-1_8759_178" fill="white">
<path d="M35 21V21C62.6142 21 85 43.3858 85 71V71C85 98.6142 62.6142 121 35 121V121V21Z"/>
</mask>
<path d="M35 17C64.8234 17 89 41.1766 89 71H81C81 45.5949 60.4051 25 35 25V17ZM89 71C89 100.823 64.8234 125 35 125V117C60.4051 117 81 96.4051 81 71H89ZM35 121V21V121ZM35 17C64.8234 17 89 41.1766 89 71C89 100.823 64.8234 125 35 125V117C60.4051 117 81 96.4051 81 71C81 45.5949 60.4051 25 35 25V17Z" fill="#FED05E" mask="url(#path-1-inside-1_8759_178)"/>
<mask id="path-3-inside-2_8759_178" fill="white">
<path d="M0 35.3553V35.3553C19.5262 15.8291 51.1845 15.8291 70.7107 35.3553V35.3553C90.2369 54.8816 90.2369 86.5398 70.7107 106.066V106.066L0 35.3553Z"/>
</mask>
<path d="M-2.82843 32.5269C18.2599 11.4386 52.4508 11.4386 73.5391 32.5269L67.8822 38.1838C49.9181 20.2197 20.7925 20.2197 2.82843 38.1838L-2.82843 32.5269ZM73.5391 32.5269C94.6274 53.6152 94.6274 87.8061 73.5391 108.894L67.8822 103.238C85.8464 85.2735 85.8464 56.1479 67.8822 38.1838L73.5391 32.5269ZM70.7107 106.066L0 35.3553L70.7107 106.066ZM-2.82843 32.5269C18.2599 11.4386 52.4508 11.4386 73.5391 32.5269C94.6274 53.6152 94.6274 87.8061 73.5391 108.894L67.8822 103.238C85.8464 85.2735 85.8464 56.1479 67.8822 38.1838C49.9181 20.2197 20.7925 20.2197 2.82843 38.1838L-2.82843 32.5269Z" fill="#FED05E" mask="url(#path-3-inside-2_8759_178)"/>
</svg>
