<svg width="15" height="15" viewBox="0 0 15 15" fill="none" xmlns="http://www.w3.org/2000/svg">
<path d="M15.0004 7.69824C14.9867 7.7436 14.9711 7.78818 14.9601 7.83392C14.8882 8.135 14.7419 8.3962 14.5277 8.61751C13.9509 9.21302 13.3742 9.80893 12.792 10.3994C12.5331 10.6617 12.1527 10.6613 11.9016 10.4138C11.6475 10.1628 11.6494 9.77843 11.9102 9.51176C12.3126 9.10041 12.7165 8.69024 13.1216 8.28124C13.1623 8.24019 13.215 8.21125 13.2624 8.17645C13.2534 8.16277 13.2448 8.14947 13.2358 8.13579H8.14714V13.2432C8.1968 13.1978 8.23355 13.1658 8.26874 13.1314C8.69377 12.7149 9.11607 12.2954 9.54422 11.8825C9.89653 11.5427 10.467 11.6991 10.591 12.1687C10.6496 12.3916 10.6 12.6 10.4346 12.7622C9.81832 13.3667 9.2103 13.9806 8.57373 14.5636C7.92817 15.1552 7.01868 15.1415 6.3739 14.5417C5.75258 13.9638 5.1512 13.3648 4.54553 12.7701C4.2945 12.5237 4.29606 12.1362 4.53497 11.8887C4.77349 11.6416 5.16958 11.6338 5.42843 11.8832C5.85698 12.2962 6.27849 12.7165 6.70274 13.1333C6.75044 13.1798 6.79893 13.2256 6.86618 13.2897V8.13461H1.75096C1.97619 8.36531 2.18616 8.58115 2.39692 8.7962C2.61549 9.01908 2.83485 9.24157 3.05303 9.46444C3.32205 9.73972 3.33104 10.1253 3.07415 10.3786C2.81491 10.6344 2.43328 10.6246 2.16114 10.3466C1.60121 9.7753 1.03854 9.20677 0.489951 8.62455C-0.156392 7.93832 -0.166167 7.03118 0.477048 6.33713C1.04714 5.72207 1.6407 5.12851 2.22956 4.53105C2.46964 4.28745 2.85792 4.29097 3.10035 4.52205C3.35216 4.76213 3.36584 5.15276 3.11481 5.41434C2.68939 5.85775 2.25459 6.29255 1.82447 6.73127C1.79124 6.76529 1.76035 6.80126 1.71343 6.85327H6.86345V1.72123C6.84898 1.7095 6.83451 1.69777 6.82004 1.68604C6.71447 1.80687 6.61476 1.93355 6.50176 2.04695C6.15024 2.39925 5.79833 2.75077 5.43821 3.09408C5.08669 3.42917 4.5424 3.29975 4.39694 2.85087C4.32226 2.62017 4.36058 2.40003 4.53536 2.22838C5.15433 1.61957 5.77839 1.01624 6.40283 0.412909C6.63744 0.186122 6.93539 0.0817215 7.24273 0C7.39874 0 7.55515 0 7.71116 0C7.72797 0.00860226 7.74361 0.0226787 7.76121 0.0254158C8.07402 0.0735102 8.35046 0.205672 8.57647 0.421902C9.18684 1.00451 9.79056 1.59416 10.3927 2.18497C10.5358 2.32535 10.5984 2.50482 10.5659 2.7058C10.5253 2.95761 10.3837 3.13513 10.1397 3.21568C9.8891 3.29819 9.67052 3.23093 9.48401 3.04755C9.07345 2.64402 8.66249 2.24128 8.25115 1.83854C8.22221 1.80999 8.19015 1.78497 8.14557 1.74587V6.85248H13.28C13.2909 6.83763 13.3018 6.82277 13.3132 6.80752C13.2541 6.76412 13.1888 6.72736 13.1376 6.67614C12.7454 6.282 12.3564 5.88434 11.9654 5.48942C11.8485 5.37133 11.7671 5.23643 11.7538 5.0683C11.7331 4.8028 11.8727 4.56115 12.1081 4.44854C12.3501 4.33241 12.627 4.37503 12.8225 4.57171C13.2835 5.03506 13.7374 5.50545 14.1988 5.96841C14.5668 6.33752 14.9128 6.71759 15.0012 7.25914V7.69824H15.0004Z" fill="black"/>
</svg>
