<svg width="7" height="9" viewBox="0 0 7 9" fill="none" xmlns="http://www.w3.org/2000/svg">
<path d="M5.22757 8.86676C4.61749 8.86676 4.04279 8.7501 3.50348 8.51677C2.96416 8.28336 2.49447 7.96662 2.0944 7.56655C1.69433 7.16648 1.37759 6.69679 1.14418 6.15747C0.910853 5.61816 0.794189 5.04346 0.794189 4.43338C0.794189 3.82141 0.910853 3.24622 1.14418 2.70781C1.37759 2.16948 1.69433 1.70028 2.0944 1.30021C2.49447 0.900141 2.96416 0.5834 3.50348 0.349991C4.04279 0.116663 4.61749 0 5.22757 0C5.49407 0 5.74985 0.0227413 5.99491 0.0682245C6.2399 0.113708 6.47672 0.186325 6.70536 0.286076C6.10349 0.778017 5.62464 1.38129 5.26883 2.09588C4.91292 2.81048 4.73497 3.58964 4.73497 4.43338C4.73497 5.27712 4.91292 6.05628 5.26883 6.77088C5.62464 7.48548 6.10349 8.08874 6.70536 8.58069C6.47672 8.68044 6.2399 8.75305 5.99491 8.79854C5.74985 8.84402 5.49407 8.86676 5.22757 8.86676Z" fill="#fff"/>
</svg>
