<svg width="31" height="30" viewBox="0 0 31 30" fill="none" xmlns="http://www.w3.org/2000/svg">
<g clip-path="url(#clip0_181_209)">
<path d="M20.5311 0C20.7477 0.155792 21.0039 0.277382 21.1735 0.473897C21.6148 0.985764 21.5519 1.66661 21.0389 2.18616C20.1882 3.04758 19.3292 3.90074 18.4711 4.75477C18.3956 4.82998 18.3008 4.88578 18.2353 4.93534C20.5919 7.29236 22.9075 9.60808 25.2389 11.9399C25.8175 11.3603 26.4167 10.7599 27.0162 10.1598C27.3543 9.82126 27.6886 9.47895 28.0321 9.14607C28.5793 8.61565 29.3335 8.60507 29.8384 9.11332C30.3391 9.61736 30.3322 10.3889 29.8047 10.9208C28.6909 12.0439 27.5676 13.1574 26.4542 14.2808C26.349 14.387 26.2604 14.5256 26.2075 14.6654C25.3497 16.9317 24.4776 19.1931 23.6526 21.4714C22.8484 23.6921 21.3435 25.1057 19.0633 25.7441C14.2403 27.0944 9.42028 28.4558 4.61102 29.8545C2.53761 30.4575 0.533043 29.1097 0.241024 27.2056C0.237111 27.1804 0.2103 27.1585 0.194214 27.1352C0.194214 26.803 0.194214 26.471 0.194214 26.1388C0.245661 25.964 0.298413 25.7896 0.348412 25.6142C1.74561 20.7115 3.13788 15.8074 4.54189 10.9066C5.14767 8.79217 6.49588 7.34758 8.55697 6.57949C10.883 5.71256 13.2135 4.85752 15.5396 3.99088C15.6796 3.93871 15.8179 3.84914 15.9241 3.74393C16.951 2.72701 17.964 1.69588 18.9976 0.686064C19.2637 0.426362 19.5886 0.227094 19.8864 0C20.1014 0 20.3163 0 20.5311 0ZM4.85855 27.1388C4.95246 27.1259 5.00043 27.125 5.04492 27.1124C9.57535 25.8261 14.1069 24.5432 18.635 23.2486C19.858 22.8989 20.7131 22.1146 21.1652 20.9242C22.0014 18.7224 22.8172 16.5128 23.6507 14.3099C23.7217 14.1223 23.6866 14.0146 23.5511 13.8797C21.1305 11.4669 18.7139 9.04998 16.3006 6.62978C16.1718 6.50065 16.0708 6.48138 15.896 6.54659C13.708 7.3625 11.5125 8.15813 9.32651 8.97912C8.12612 9.42997 7.33847 10.2865 6.98413 11.526C5.81286 15.6235 4.64348 19.7217 3.47381 23.8196C3.33425 24.3083 3.19658 24.7976 3.03919 25.3532C3.12948 25.281 3.16136 25.26 3.18788 25.2335C5.50838 22.9139 7.82932 20.5947 10.1437 18.2691C10.2074 18.2052 10.2359 18.0663 10.222 17.971C9.94606 16.0761 11.6053 14.5752 13.4009 15.102C14.661 15.4716 15.4122 16.7313 15.1431 18.0233C14.8692 19.3376 13.6648 20.1667 12.2806 19.9722C12.0882 19.9451 11.9816 19.995 11.8566 20.1203C9.60172 22.3813 7.34296 24.6383 5.08535 26.8966C5.01796 26.964 4.95492 27.0358 4.85869 27.1389L4.85855 27.1388Z" fill="#6E6E6E"/>
</g>
<defs>
<clipPath id="clip0_181_209">
<rect width="30.0129" height="30" fill="white" transform="translate(0.194336)"/>
</clipPath>
</defs>
</svg>
