<svg width="10" height="10" viewBox="0 0 10 10" fill="none" xmlns="http://www.w3.org/2000/svg">
<path d="M6.17711 2.21104H2.37536C2.0723 2.21104 1.81228 2.10394 1.59531 1.88975C1.37833 1.67571 1.26984 1.41569 1.26984 1.10969C1.26984 0.803854 1.37833 0.542445 1.59531 0.325467C1.81228 0.108489 2.0723 0 2.37536 0H9.13367C9.3712 0 9.57025 0.0802851 9.73082 0.240855C9.89139 0.40158 9.97168 0.60063 9.97168 0.838008V7.59632C9.97168 7.89938 9.86466 8.1594 9.65062 8.37637C9.43642 8.59335 9.17633 8.70184 8.87033 8.70184C8.56449 8.70184 8.30308 8.59335 8.0861 8.37637C7.86913 8.1594 7.76064 7.89938 7.76064 7.59632V3.85159L1.94025 9.67198C1.72018 9.89066 1.45119 10 1.1333 10C0.815406 10 0.547121 9.89012 0.328443 9.67036C0.10961 9.45045 0.000192642 9.18177 0.000192642 8.86434C0.000192642 8.54676 0.10961 8.27863 0.328443 8.05995L6.17711 2.21104Z" fill="#040404"/>
</svg>
