<svg width="100" height="100" viewBox="0 0 100 100" fill="none" xmlns="http://www.w3.org/2000/svg">
<mask id="path-1-inside-1_8759_184" fill="white">
<path d="M0 50C0 22.3858 22.3858 0 50 0V0C77.6142 0 100 22.3858 100 50V50C100 77.6142 77.6142 100 50 100V100C22.3858 100 0 77.6142 0 50V50Z"/>
</mask>
<path d="M50 96C24.5949 96 4 75.4051 4 50H-4C-4 79.8234 20.1766 104 50 104V96ZM96 50C96 75.4051 75.4051 96 50 96V104C79.8234 104 104 79.8234 104 50H96ZM50 4C75.4051 4 96 24.5949 96 50H104C104 20.1766 79.8234 -4 50 -4V4ZM50 -4C20.1766 -4 -4 20.1766 -4 50H4C4 24.5949 24.5949 4 50 4V-4Z" fill="#FED05E" mask="url(#path-1-inside-1_8759_184)"/>
<mask id="path-3-inside-2_8759_184" fill="white">
<path d="M50 50H100V50C100 77.6142 77.6142 100 50 100V100V50Z"/>
</mask>
<path d="M50 50H100H50ZM104 50C104 79.8234 79.8234 104 50 104V96C75.4051 96 96 75.4051 96 50H104ZM50 100V50V100ZM104 50C104 79.8234 79.8234 104 50 104V96C75.4051 96 96 75.4051 96 50H104Z" fill="white" mask="url(#path-3-inside-2_8759_184)"/>
</svg>
