<svg width="31" height="30" viewBox="0 0 31 30" fill="none" xmlns="http://www.w3.org/2000/svg">
<path d="M6.89375 0.000782718C7.31955 0.156544 7.77352 0.260645 8.16488 0.47824C9.35148 1.13729 9.97374 2.18222 10.1037 3.52693C10.1092 3.58406 10.1178 3.6412 10.1319 3.74765C10.7173 3.74765 11.3004 3.74765 11.8836 3.74765C12.1082 3.74765 12.3329 3.75 12.5567 3.75157C13.3011 3.75548 13.8607 4.29164 13.8607 5.00078C13.8607 5.7021 13.2964 6.25704 12.5567 6.26174C11.8155 6.26644 11.0735 6.25313 10.3322 6.24922C10.2665 6.24922 10.2007 6.26018 10.1373 6.26565C10.0293 8.30777 8.57346 9.90059 6.3435 10.0423C6.3435 10.3781 6.34741 10.717 6.34272 11.0559C6.33567 11.5733 6.33802 12.0906 6.31062 12.6072C6.27697 13.2365 5.75803 13.7273 5.12402 13.7617C4.52055 13.7946 3.94995 13.3485 3.84819 12.7395C3.80828 12.5016 3.81454 12.2542 3.81219 12.0116C3.80749 11.3596 3.81062 10.7068 3.81062 10.0477C3.49206 9.98982 3.1594 9.96321 2.84866 9.86694C1.38263 9.41296 0.476247 8.43457 0.153768 6.92549C0.144375 6.88087 0.116197 6.83939 0.0974121 6.79712C0.0974121 5.60582 0.0974121 4.41453 0.0974121 3.22323C0.116197 3.1794 0.14281 3.13713 0.152202 3.09173C0.455897 1.6077 1.33645 0.637132 2.76491 0.154978C2.9465 0.0939261 3.13436 0.0516594 3.31986 0.000782718C4.51116 0.000782718 5.70245 0.000782718 6.89375 0.000782718ZM2.61072 5.0047C2.61072 5.41406 2.60759 5.82342 2.61072 6.23356C2.61776 6.94349 3.12183 7.47887 3.83645 7.4953C4.67474 7.51409 5.51382 7.51252 6.35211 7.4953C7.04951 7.48122 7.57471 6.96384 7.59037 6.26879C7.60994 5.4211 7.6115 4.57185 7.58959 3.72417C7.5708 3.01268 7.03072 2.51879 6.31376 2.51487C5.50443 2.51096 4.6951 2.51096 3.88577 2.51487C3.13279 2.518 2.61698 3.0299 2.61072 3.77661C2.6068 4.18597 2.61072 4.59455 2.61072 5.0047Z" fill="#6E6E6E"/>
<path d="M26.8726 0.000782718C27.0018 0.0375704 27.1301 0.0782718 27.2601 0.111146C28.9398 0.53851 30.0919 2.01393 30.0943 3.74374C30.0958 4.62195 30.0998 5.50016 30.0935 6.37837C30.081 8.14026 28.6361 9.75031 26.8836 9.96321C26.72 9.98278 26.558 10.0094 26.3451 10.0391C26.3451 10.8696 26.349 11.6977 26.3435 12.525C26.3404 13.087 25.967 13.5621 25.4301 13.7085C24.6184 13.9292 23.8443 13.3367 23.8357 12.4742C23.8286 11.7721 23.8427 11.0692 23.8466 10.3663C23.8466 10.2606 23.8466 10.1558 23.8466 10.0227C22.8189 9.97574 21.9298 9.63212 21.2042 8.91594C20.4755 8.19662 20.1256 7.3098 20.0747 6.23904C19.5949 6.23904 19.1206 6.24061 18.6455 6.23904C18.3042 6.23748 17.9622 6.23591 17.6209 6.22339C16.8624 6.19521 16.3231 5.66374 16.331 4.9593C16.3388 4.25172 16.9204 3.70773 17.678 3.71086C18.4099 3.714 19.1417 3.72887 19.8728 3.73748C19.9299 3.73748 19.9863 3.73748 20.0544 3.73748C20.0943 3.47214 20.1107 3.21932 20.1718 2.97746C20.5717 1.37602 21.5807 0.398403 23.1978 0.0524421C23.233 0.0446149 23.2643 0.0180025 23.2972 0C24.4885 0 25.6798 0 26.871 0L26.8726 0.000782718ZM25.1013 2.51487C24.692 2.51409 24.2818 2.51096 23.8725 2.51487C23.1453 2.52113 22.6123 3.03068 22.599 3.75861C22.5841 4.58751 22.5849 5.41641 22.599 6.2453C22.6115 6.95523 23.1344 7.482 23.8443 7.49609C24.6826 7.51252 25.5216 7.51487 26.3599 7.4953C27.073 7.47808 27.5763 6.94114 27.5802 6.22887C27.5849 5.39058 27.5872 4.5515 27.5786 3.71321C27.5716 3.05573 27.0432 2.52896 26.3881 2.51722C25.9592 2.50939 25.5303 2.51487 25.1013 2.51487Z" fill="#6E6E6E"/>
<path d="M0.0974121 23.2021C0.189773 22.9078 0.255521 22.6018 0.37919 22.3208C1.00145 20.9119 2.09647 20.1479 3.62277 19.9906C3.67991 19.9843 3.73705 19.9765 3.83567 19.964C3.83567 19.6415 3.83411 19.3214 3.83567 19.0005C3.83802 18.5128 3.84272 18.0244 3.84741 17.5368C3.85367 16.7948 4.39688 16.2328 5.10211 16.2367C5.78933 16.2406 6.34976 16.8026 6.3568 17.5188C6.36385 18.2209 6.34976 18.9238 6.34585 19.6266C6.34585 19.7323 6.34585 19.8388 6.34585 19.9757C7.36651 20.0258 8.26116 20.3561 8.98439 21.077C9.70762 21.7987 10.0677 22.6816 10.117 23.7594C10.5937 23.7594 11.0672 23.7578 11.5407 23.7594C11.882 23.761 12.2241 23.7633 12.5653 23.775C13.3261 23.8017 13.867 24.3292 13.8615 25.0321C13.8568 25.7412 13.2792 26.2884 12.5199 26.2876C11.7983 26.2868 11.0758 26.2703 10.3541 26.261C10.2868 26.2602 10.2203 26.261 10.1538 26.261C10.0841 26.6171 10.0426 26.9646 9.94713 27.2965C9.48219 28.9089 8.03339 29.9937 6.36072 29.9969C5.51147 29.9984 4.663 29.9984 3.81376 29.9969C2.02759 29.993 0.47703 28.6929 0.156899 26.9357C0.146723 26.8801 0.118545 26.8284 0.0989775 26.7752C0.0989775 25.5839 0.0989775 24.3926 0.0989775 23.2013L0.0974121 23.2021ZM5.08489 27.4851C5.49425 27.4851 5.90361 27.4883 6.31375 27.4851C7.03072 27.4789 7.57158 26.9865 7.59037 26.2758C7.61307 25.4281 7.6115 24.5789 7.59115 23.7312C7.57471 23.0346 7.04951 22.518 6.35289 22.5047C5.5146 22.4883 4.67553 22.4875 3.83724 22.5047C3.1234 22.5196 2.6162 23.0549 2.61228 23.7657C2.60759 24.5946 2.6068 25.4235 2.61228 26.2523C2.61776 26.9615 3.1414 27.4773 3.85602 27.4851C4.26538 27.4898 4.67474 27.4851 5.08489 27.4851Z" fill="#6E6E6E"/>
<path d="M20.0551 23.75C20.1937 21.5294 21.7787 20.0681 23.8623 19.957C23.8623 19.3284 23.8623 18.6968 23.8623 18.0651C23.8623 17.8898 23.8638 17.7137 23.8693 17.5384C23.8952 16.7815 24.4266 16.2328 25.1279 16.2383C25.8253 16.2437 26.3748 16.8049 26.3811 17.5517C26.3873 18.3031 26.3654 19.0545 26.3568 19.8059C26.3568 19.8536 26.3623 19.9006 26.3654 19.9554C26.6433 20.0016 26.9125 20.0329 27.1747 20.0931C28.8983 20.4861 30.0919 21.9826 30.0943 23.7445C30.0951 24.6133 30.0982 25.4822 30.0943 26.3502C30.0833 28.3054 28.4013 29.9875 26.4452 29.9977C25.5373 30.0023 24.6301 30.0031 23.7222 29.9977C21.9587 29.9859 20.3502 28.5457 20.1334 26.7909C20.1131 26.6273 20.088 26.4645 20.0583 26.2531C19.465 26.2531 18.8717 26.2531 18.2784 26.2531C18.0537 26.2531 17.8291 26.2516 17.6052 26.2492C16.9 26.243 16.3474 25.7115 16.3333 25.0266C16.3184 24.3363 16.8687 23.7555 17.5802 23.7414C18.2432 23.7289 18.9077 23.7469 19.5706 23.7508C19.7264 23.7516 19.8814 23.7508 20.0567 23.7508L20.0551 23.75ZM27.5818 25.0094C27.5818 24.6 27.5849 24.1899 27.5818 23.7805C27.5755 23.0526 27.0675 22.5164 26.3419 22.5031C25.513 22.4883 24.6841 22.489 23.8552 22.5031C23.1445 22.5149 22.6146 23.0362 22.6005 23.7445C22.5841 24.5828 22.5833 25.4219 22.6005 26.2602C22.6162 26.9732 23.1516 27.4804 23.8623 27.4843C24.681 27.489 25.5005 27.489 26.3192 27.4843C27.0644 27.4804 27.5747 26.9615 27.581 26.2085C27.5841 25.8085 27.5818 25.4086 27.5818 25.0094Z" fill="#6E6E6E"/>
</svg>
