<svg width="22" height="25" viewBox="0 0 22 25" fill="none" xmlns="http://www.w3.org/2000/svg">
<path d="M9.94219 14.9636C10.8141 14.9636 11.5529 14.6271 12.1588 13.9542C12.7644 13.281 13.0672 12.4601 13.0672 11.4913C13.0672 10.5228 12.7644 9.702 12.1588 9.02885C11.5529 8.3557 10.8141 8.01913 9.94219 8.01913C9.07052 8.01913 8.33177 8.3557 7.72594 9.02885C7.1201 9.702 6.81719 10.5228 6.81719 11.4913C6.81719 12.4601 7.1201 13.281 7.72594 13.9542C8.33177 14.6271 9.07052 14.9636 9.94219 14.9636ZM9.94219 17.0469C8.55115 17.0469 7.3701 16.5074 6.39906 15.4285C5.42781 14.3493 4.94219 13.037 4.94219 11.4913C4.94219 9.94575 5.42781 8.63348 6.39906 7.55455C7.3701 6.47538 8.55115 5.9358 9.94219 5.9358C11.3332 5.9358 12.5144 6.47538 13.4856 7.55455C14.4567 8.63348 14.9422 9.94575 14.9422 11.4913C14.9422 12.0506 14.8665 12.5929 14.715 13.1181C14.5635 13.6433 14.3404 14.1374 14.0456 14.6004L16.7838 17.6292C16.9696 17.8359 17.0613 18.0777 17.0588 18.3545C17.0565 18.6314 16.9583 18.8776 16.7644 19.0931C16.5704 19.2942 16.3508 19.3984 16.1056 19.4056C15.8606 19.4125 15.6411 19.3084 15.4472 19.0931L12.7403 16.0722C12.3236 16.3998 11.879 16.6441 11.4062 16.8052C10.9335 16.9663 10.4455 17.0469 9.94219 17.0469ZM2.63469 24.4722C2.00323 24.4722 1.46875 24.2292 1.03125 23.7431C0.59375 23.257 0.375 22.6631 0.375 21.9615V17.875C0.375 17.5794 0.464792 17.332 0.644375 17.1327C0.82375 16.9331 1.04646 16.8334 1.3125 16.8334C1.57854 16.8334 1.80125 16.9331 1.98063 17.1327C2.16021 17.332 2.25 17.5794 2.25 17.875V21.9615C2.25 22.0684 2.2901 22.1663 2.37031 22.2552C2.45031 22.3444 2.53844 22.3889 2.63469 22.3889H6.3125C6.57854 22.3889 6.80125 22.4887 6.98063 22.6882C7.16021 22.8875 7.25 23.135 7.25 23.4306C7.25 23.7262 7.16021 23.9736 6.98063 24.1729C6.80125 24.3725 6.57854 24.4722 6.3125 24.4722H2.63469ZM19.3653 24.4722H15.6875C15.4215 24.4722 15.1987 24.3725 15.0194 24.1729C14.8398 23.9736 14.75 23.7262 14.75 23.4306C14.75 23.135 14.8398 22.8875 15.0194 22.6882C15.1987 22.4887 15.4215 22.3889 15.6875 22.3889H19.3653C19.4616 22.3889 19.5497 22.3444 19.6297 22.2552C19.7099 22.1663 19.75 22.0684 19.75 21.9615V17.875C19.75 17.5794 19.8398 17.332 20.0194 17.1327C20.1987 16.9331 20.4215 16.8334 20.6875 16.8334C20.9535 16.8334 21.1763 16.9331 21.3556 17.1327C21.5352 17.332 21.625 17.5794 21.625 17.875V21.9615C21.625 22.6631 21.4062 23.257 20.9688 23.7431C20.5312 24.2292 19.9968 24.4722 19.3653 24.4722ZM0.375 7.45836V3.37191C0.375 2.67029 0.59375 2.07642 1.03125 1.59031C1.46875 1.1042 2.00323 0.861145 2.63469 0.861145H6.3125C6.57854 0.861145 6.80125 0.960913 6.98063 1.16045C7.16021 1.35976 7.25 1.60721 7.25 1.90281C7.25 2.19841 7.16021 2.44587 6.98063 2.64517C6.80125 2.84471 6.57854 2.94448 6.3125 2.94448H2.63469C2.53844 2.94448 2.45031 2.98904 2.37031 3.07816C2.2901 3.16705 2.25 3.26496 2.25 3.37191V7.45836C2.25 7.75397 2.16021 8.00142 1.98063 8.20073C1.80125 8.40026 1.57854 8.50003 1.3125 8.50003C1.04646 8.50003 0.82375 8.40026 0.644375 8.20073C0.464792 8.00142 0.375 7.75397 0.375 7.45836ZM19.75 7.45836V3.37191C19.75 3.26496 19.7099 3.16705 19.6297 3.07816C19.5497 2.98904 19.4616 2.94448 19.3653 2.94448H15.6875C15.4215 2.94448 15.1987 2.84471 15.0194 2.64517C14.8398 2.44587 14.75 2.19841 14.75 1.90281C14.75 1.60721 14.8398 1.35976 15.0194 1.16045C15.1987 0.960913 15.4215 0.861145 15.6875 0.861145H19.3653C19.9968 0.861145 20.5312 1.1042 20.9688 1.59031C21.4062 2.07642 21.625 2.67029 21.625 3.37191V7.45836C21.625 7.75397 21.5352 8.00142 21.3556 8.20073C21.1763 8.40026 20.9535 8.50003 20.6875 8.50003C20.4215 8.50003 20.1987 8.40026 20.0194 8.20073C19.8398 8.00142 19.75 7.75397 19.75 7.45836Z" fill="#939393"/>
</svg>
