<svg width="14" height="15" viewBox="0 0 14 15" fill="none" xmlns="http://www.w3.org/2000/svg">
<g clip-path="url(#clip0_135_133)">
<path d="M7.02077 0C7.12288 0.0289515 7.22578 0.0547731 7.32672 0.0868545C8.0998 0.330595 8.64244 1.05008 8.62327 1.85798C8.6174 2.11228 8.68626 2.2277 8.92648 2.31416C9.43392 2.49726 9.88736 2.78678 10.3025 3.13106C10.3846 3.19914 10.4413 3.20736 10.5302 3.15023C10.8815 2.92332 11.2614 2.79812 11.6878 2.80869C12.7129 2.83333 13.5525 3.72457 13.5008 4.74844C13.4644 5.47144 13.1186 6.00626 12.4891 6.35016C12.3306 6.43662 12.2895 6.52426 12.3193 6.69875C12.4175 7.27582 12.4018 7.85524 12.3017 8.43114C12.2868 8.51604 12.3291 8.53795 12.3823 8.57747C12.6084 8.74413 12.8682 8.88419 13.047 9.09311C13.5552 9.6874 13.6538 10.376 13.3302 11.0857C13.0063 11.7966 12.4222 12.1569 11.6377 12.1823C11.297 12.1937 10.9836 12.1002 10.6886 11.9354C10.5994 11.8858 10.5114 11.8341 10.4155 11.7793C10.288 11.8768 10.1632 11.9761 10.0337 12.0696C9.63697 12.3572 9.20778 12.5865 8.74964 12.7582C8.65575 12.7934 8.62249 12.8353 8.62914 12.9347C8.66201 13.4296 8.55089 13.8877 8.23243 14.2754C7.73556 14.8807 7.0908 15.1232 6.32946 14.9413C5.55246 14.7555 5.07398 14.2437 4.91514 13.4558C4.87875 13.2766 4.88736 13.0872 4.88462 12.9026C4.88345 12.8275 4.86075 12.7923 4.78955 12.766C4.19917 12.5485 3.65927 12.2414 3.17687 11.8361C3.10645 11.777 3.05598 11.7997 2.99573 11.8372C2.75003 11.9894 2.4926 12.108 2.20387 12.1608C1.23869 12.3365 0.259424 11.6862 0.0528508 10.7257C-0.121249 9.91667 0.218344 9.10329 0.937045 8.69953C1.16474 8.5716 1.22226 8.45266 1.17961 8.19523C1.09119 7.66393 1.11388 7.1248 1.20465 6.59272C1.22108 6.49609 1.20074 6.45227 1.11936 6.41002C0.821239 6.25587 0.55246 6.06299 0.361927 5.78052C-0.0574779 5.15845 -0.123206 4.49844 0.2203 3.8306C0.563805 3.16275 1.13462 2.82825 1.88853 2.81142C2.2246 2.80399 2.53251 2.89593 2.8232 3.05751C2.9167 3.10955 3.00864 3.16315 3.10371 3.21753C3.61662 2.78599 4.17922 2.45266 4.80129 2.2187C4.84041 2.20383 4.87288 2.12833 4.87953 2.07707C4.91044 1.83177 4.89205 1.57316 4.96326 1.34116C5.18509 0.618936 5.68274 0.179969 6.42726 0.0273865C6.44996 0.0226917 6.47108 0.00938967 6.49299 0C6.66866 0 6.84432 0 7.01999 0L7.02077 0ZM6.13931 2.24139H6.13892C6.13892 2.36815 6.1401 2.49531 6.13892 2.62207C6.13579 2.94679 5.96169 3.18858 5.65262 3.27113C4.88658 3.47574 4.22499 3.85759 3.6624 4.41549C3.41553 4.66041 3.14323 4.68936 2.8365 4.51487C2.63345 4.39906 2.43274 4.27895 2.22891 4.16432C1.8991 3.97848 1.52859 4.06768 1.35097 4.37363C1.17335 4.67958 1.28055 5.04773 1.60645 5.23983C1.81185 5.36111 2.02077 5.47653 2.22617 5.59781C2.51138 5.76643 2.62249 6.0223 2.53955 6.34272C2.33924 7.11424 2.34158 7.88341 2.54111 8.65454C2.62171 8.96557 2.51216 9.22261 2.23399 9.38889C2.02507 9.51369 1.81146 9.63146 1.60176 9.75469C1.28251 9.94249 1.17335 10.3044 1.34158 10.6084C1.51334 10.9182 1.88658 11.016 2.21482 10.8337C2.42335 10.7179 2.62836 10.5951 2.83571 10.4765C3.1401 10.3024 3.41396 10.331 3.66122 10.5771C4.22343 11.1362 4.88462 11.5176 5.64988 11.7246C5.96208 11.8091 6.13579 12.0477 6.13853 12.3721C6.14088 12.626 6.13618 12.8795 6.1401 13.1334C6.14518 13.4769 6.4167 13.7387 6.76021 13.7379C7.10097 13.7371 7.37014 13.4714 7.37445 13.1268C7.37758 12.8779 7.37445 12.6291 7.37562 12.3803C7.37719 12.0473 7.55129 11.8071 7.86936 11.7222C8.63618 11.5176 9.29542 11.1318 9.85841 10.5747C10.0998 10.3357 10.3733 10.3056 10.6718 10.475C10.8795 10.5927 11.0842 10.716 11.2923 10.8326C11.6147 11.0133 11.9828 10.9245 12.1604 10.6264C12.3412 10.3228 12.2383 9.9511 11.9147 9.75743C11.7058 9.63224 11.4918 9.51526 11.2821 9.39202C11.0063 9.22966 10.8936 8.96909 10.9738 8.65806C11.173 7.88693 11.1761 7.11776 10.9758 6.34624C10.8924 6.02543 11.0051 5.76682 11.2876 5.60055C11.4934 5.47966 11.7023 5.36385 11.9073 5.24218C12.2356 5.04773 12.3435 4.68505 12.1683 4.37793C11.9906 4.0669 11.6174 3.97926 11.279 4.17136C11.0755 4.28678 10.8748 4.40649 10.6714 4.52191C10.3741 4.69053 10.0994 4.65962 9.85802 4.42058C9.29542 3.86307 8.63658 3.47653 7.86975 3.27152C7.5505 3.18623 7.37719 2.9464 7.37523 2.61385C7.37406 2.36502 7.37719 2.1162 7.37406 1.86737C7.36936 1.52191 7.10136 1.25782 6.75982 1.25665C6.41631 1.25587 6.14597 1.518 6.13931 1.86111C6.13697 1.98787 6.13931 2.11502 6.13931 2.24178V2.24139Z" fill="black"/>
<path d="M6.76177 4.99491C8.12601 4.98748 9.25707 6.11619 9.25864 7.48591C9.2602 8.86619 8.15614 9.98552 6.78211 9.99726C5.38618 10.009 4.26372 8.89632 4.2559 7.49295C4.24808 6.12284 5.3721 5.00273 6.76177 4.9953V4.99491ZM7.99964 7.50391C8.00942 6.81885 7.45465 6.25743 6.76412 6.25273C6.07515 6.24804 5.5192 6.79851 5.51372 7.48943C5.50864 8.1741 6.04698 8.72496 6.73516 8.73943C7.42922 8.75391 7.98986 8.20657 7.99964 7.50391Z" fill="black"/>
</g>
<defs>
<clipPath id="clip0_135_133">
<rect width="13.5168" height="15" fill="white"/>
</clipPath>
</defs>
</svg>
