<svg width="21" height="13" viewBox="0 0 21 13" fill="none" xmlns="http://www.w3.org/2000/svg">
<path d="M14.0146 12.0344C13.4623 12.0344 13.0147 11.5867 13.0147 11.0345C13.0147 10.4823 13.4623 10.0347 14.0146 10.0347H15.0144C15.5397 10.0347 16.0599 9.93119 16.5452 9.73017C17.0305 9.52914 17.4715 9.2345 17.8429 8.86305C18.2143 8.49161 18.509 8.05064 18.71 7.56533C18.911 7.08001 19.0145 6.55985 19.0145 6.03455C19.0145 5.50925 18.911 4.9891 18.71 4.50378C18.509 4.01847 18.2143 3.5775 17.8429 3.20605C17.4715 2.83461 17.0305 2.53996 16.5452 2.33894C16.0599 2.13792 15.5397 2.03445 15.0144 2.03445H14.0146C13.4623 2.03445 13.0147 1.5868 13.0147 1.0346C13.0147 0.4824 13.4624 0.0347523 14.0146 0.0347524L15.0144 0.0347526C16.5972 0.0476427 18.1108 0.685442 19.2254 1.80922C20.3401 2.933 20.9655 4.45172 20.9655 6.03455C20.9655 7.61739 20.3401 9.1361 19.2254 10.2599C18.1108 11.3837 16.5972 12.0215 15.0144 12.0344H14.0146ZM9.01389 11.0345C9.01389 11.5867 8.56624 12.0344 8.01404 12.0344H7.01419C6.22218 12.0408 5.43672 11.8904 4.70313 11.5918C3.96954 11.2931 3.30234 10.8522 2.74 10.2944C2.17767 9.73666 1.73133 9.07307 1.42674 8.34194C1.12215 7.6108 0.965332 6.8266 0.965332 6.03455C0.965332 5.24251 1.12215 4.45831 1.42674 3.72717C1.73133 2.99604 2.17767 2.33245 2.74 1.77467C3.30234 1.2169 3.96954 0.775982 4.70313 0.477355C5.43672 0.178729 6.22218 0.0283024 7.01419 0.0347525L8.01404 0.0347524C8.56624 0.0347523 9.01389 0.4824 9.01389 1.0346C9.01389 1.5868 8.56624 2.03445 8.01404 2.03445H7.01419C6.48889 2.03445 5.96874 2.13792 5.48342 2.33894C4.99811 2.53996 4.55714 2.83461 4.18569 3.20605C3.81425 3.5775 3.5196 4.01847 3.31858 4.50378C3.11756 4.9891 3.01409 5.50925 3.01409 6.03455C3.01409 6.55985 3.11756 7.08001 3.31858 7.56533C3.51961 8.05064 3.81425 8.49161 4.18569 8.86305C4.55714 9.2345 4.99811 9.52914 5.48342 9.73017C5.96874 9.93119 6.48889 10.0347 7.01419 10.0347H8.01404C8.56625 10.0347 9.01389 10.4823 9.01389 11.0345ZM15.0137 5.034C15.5663 5.034 16.0142 5.48195 16.0142 6.03452C16.0142 6.58712 15.5663 7.03508 15.0137 7.03504L7.01487 7.03447C6.46262 7.03443 6.01489 6.58684 6.0147 6.03459C6.0145 5.48203 6.46238 5.034 7.01494 5.034H15.0137Z" fill="#52525B"/>
</svg>
