<svg width="15" height="15" viewBox="0 0 15 15" fill="none" xmlns="http://www.w3.org/2000/svg">
<path d="M3.398 0.00039134C3.61089 0.0782679 3.83787 0.130316 4.03354 0.239109C4.62681 0.568616 4.93792 1.09105 5.00289 1.76338C5.00562 1.79194 5.00993 1.82051 5.01697 1.87373C5.3097 1.87373 5.60124 1.87373 5.89279 1.87373C6.00511 1.87373 6.11742 1.87491 6.22934 1.87569C6.60151 1.87765 6.88132 2.14571 6.88132 2.50027C6.88132 2.85091 6.59916 3.12837 6.22934 3.13072C5.85875 3.13306 5.48775 3.12641 5.11716 3.12446C5.08428 3.12446 5.05141 3.12993 5.01971 3.13267C4.96571 4.15368 4.23782 4.95005 3.12289 5.02089C3.12289 5.18877 3.12485 5.35822 3.1225 5.52767C3.11898 5.78635 3.12015 6.04502 3.10645 6.30331C3.08963 6.61794 2.83017 6.86331 2.51318 6.88053C2.21146 6.89697 1.92617 6.67391 1.8753 6.36944C1.85534 6.25048 1.85847 6.12681 1.8573 6.0055C1.85495 5.67951 1.85652 5.35313 1.85652 5.02363C1.69724 4.99467 1.53092 4.98136 1.37556 4.93323C0.64258 4.70625 0.189408 4.21708 0.0281765 3.46257C0.0234804 3.44027 0.00939215 3.41953 0 3.39839C0 2.80277 0 2.20716 0 1.61154C0.00939215 1.58962 0.0226977 1.56849 0.0273938 1.54579C0.179234 0.803812 0.619491 0.31855 1.33369 0.0774852C1.42448 0.0469608 1.5184 0.0258284 1.61115 0.00039134C2.20676 0.00039134 2.80238 0.00039134 3.398 0.00039134ZM1.25659 2.50223C1.25659 2.7069 1.25503 2.91157 1.25659 3.11663C1.26011 3.47157 1.51214 3.73925 1.86943 3.74747C2.28855 3.75686 2.70807 3.75608 3.1272 3.74747C3.47588 3.74042 3.73847 3.48175 3.74629 3.13424C3.75608 2.71042 3.75686 2.28581 3.7459 1.86199C3.73651 1.50627 3.46649 1.25933 3.10802 1.25737C2.70337 1.25542 2.29873 1.25542 1.89408 1.25737C1.51762 1.25894 1.25972 1.51488 1.25659 1.88821C1.25463 2.09288 1.25659 2.29716 1.25659 2.50223Z" fill="black"/>
<path d="M13.3869 0.00039134C13.4515 0.0187843 13.5157 0.039134 13.5807 0.0555702C14.4205 0.269242 14.9965 1.00692 14.9977 1.87178C14.9985 2.31086 15.0004 2.74994 14.9973 3.18903C14.991 4.06993 14.2686 4.87492 13.3924 4.98136C13.3106 4.99115 13.2296 5.00445 13.1232 5.01932C13.1232 5.43453 13.1251 5.84857 13.1224 6.26222C13.1208 6.5432 12.9342 6.78074 12.6657 6.85392C12.2599 6.96428 11.8729 6.66804 11.8685 6.23678C11.865 5.88575 11.8721 5.53432 11.874 5.1829C11.874 5.13007 11.874 5.07763 11.874 5.0111C11.3602 4.98762 10.9156 4.81583 10.5529 4.45775C10.1885 4.09811 10.0136 3.65472 9.98816 3.11937C9.74827 3.11937 9.51112 3.12015 9.27357 3.11937C9.10295 3.11859 8.93194 3.1178 8.76131 3.11154C8.3821 3.09745 8.11247 2.83173 8.11638 2.47953C8.1203 2.12576 8.41106 1.85378 8.78988 1.85534C9.15578 1.85691 9.52168 1.86434 9.88719 1.86865C9.91576 1.86865 9.94394 1.86865 9.97799 1.86865C9.99794 1.73598 10.0062 1.60958 10.0367 1.48866C10.2367 0.687975 10.7411 0.199192 11.5496 0.0262198C11.5672 0.0223064 11.5829 0.00900081 11.5993 0C12.1949 0 12.7905 0 13.3862 0L13.3869 0.00039134ZM12.5013 1.25737C12.2967 1.25698 12.0916 1.25542 11.8869 1.25737C11.5234 1.2605 11.2569 1.51527 11.2502 1.87921C11.2428 2.29364 11.2432 2.70807 11.2502 3.1225C11.2565 3.47744 11.5179 3.74082 11.8729 3.74786C12.292 3.75608 12.7115 3.75725 13.1306 3.74747C13.4871 3.73886 13.7388 3.4704 13.7407 3.11428C13.7431 2.69516 13.7442 2.27564 13.7399 1.85652C13.7364 1.52779 13.4723 1.26442 13.1447 1.25855C12.9303 1.25463 12.7158 1.25737 12.5013 1.25737Z" fill="black"/>
<path d="M0 11.6005C0.0461781 11.4533 0.0790506 11.3003 0.140882 11.1598C0.451997 10.4554 0.999481 10.0735 1.76259 9.99481C1.79116 9.99168 1.81973 9.98777 1.86904 9.98151C1.86904 9.82028 1.86826 9.66022 1.86904 9.49977C1.87021 9.25596 1.87256 9.01177 1.87491 8.76796C1.87804 8.39697 2.14963 8.11599 2.50223 8.11795C2.84582 8.1199 3.12602 8.40089 3.12954 8.75896C3.13306 9.10999 3.12602 9.46142 3.12406 9.81284C3.12406 9.86567 3.12406 9.91889 3.12406 9.98738C3.63437 10.0124 4.08167 10.1776 4.44327 10.538C4.80487 10.8988 4.98488 11.3402 5.00954 11.8791C5.24786 11.8791 5.48462 11.8783 5.72138 11.8791C5.89201 11.8799 6.06302 11.8811 6.23365 11.8869C6.61403 11.9002 6.88445 12.164 6.88171 12.5154C6.87936 12.87 6.59055 13.1435 6.21095 13.1431C5.85014 13.1427 5.48893 13.1345 5.12811 13.1298C5.09446 13.1294 5.06119 13.1298 5.02793 13.1298C4.9931 13.3079 4.97236 13.4816 4.92462 13.6476C4.69216 14.4537 3.96779 14.9961 3.1315 14.9977C2.7069 14.9985 2.28268 14.9985 1.85808 14.9977C0.965043 14.9957 0.1898 14.3457 0.0297418 13.4672C0.0246544 13.4394 0.0105662 13.4136 0.000782679 13.3869C0.000782679 12.7913 0.000782679 12.1957 0.000782679 11.6001L0 11.6005ZM2.49362 13.7419C2.69829 13.7419 2.90296 13.7435 3.10802 13.7419C3.46649 13.7388 3.7369 13.4926 3.74629 13.1373C3.75764 12.7134 3.75686 12.2888 3.74669 11.865C3.73847 11.5167 3.47588 11.2584 3.12759 11.2518C2.70846 11.2436 2.28895 11.2432 1.86982 11.2518C1.51292 11.2592 1.25933 11.5269 1.25737 11.8822C1.25503 12.2967 1.25463 12.7111 1.25737 13.1255C1.26011 13.4801 1.52192 13.738 1.87921 13.7419C2.08388 13.7442 2.28855 13.7419 2.49362 13.7419Z" fill="black"/>
<path d="M9.97838 11.8744C10.0476 10.7642 10.8401 10.0336 11.8819 9.97799C11.8819 9.66374 11.8819 9.34793 11.8819 9.03212C11.8819 8.94446 11.8826 8.85641 11.8854 8.76875C11.8983 8.39032 12.164 8.11599 12.5146 8.11873C12.8633 8.12147 13.1381 8.40206 13.1412 8.7754C13.1443 9.15108 13.1334 9.52677 13.1291 9.90246C13.1291 9.92633 13.1318 9.94981 13.1334 9.9772C13.2723 10.0003 13.4069 10.0159 13.538 10.0461C14.3997 10.2425 14.9965 10.9908 14.9977 11.8717C14.9981 12.3061 14.9997 12.7405 14.9977 13.1744C14.9922 14.152 14.1512 14.993 13.1733 14.9981C12.7193 15.0004 12.2658 15.0008 11.8118 14.9981C10.9301 14.9922 10.1259 14.2722 10.0175 13.3948C10.0073 13.313 9.99481 13.2316 9.97994 13.1259C9.68331 13.1259 9.38667 13.1259 9.09004 13.1259C8.97772 13.1259 8.86541 13.1251 8.75348 13.124C8.40089 13.1208 8.1246 12.8551 8.11756 12.5127C8.11012 12.1675 8.38523 11.8772 8.74096 11.8701C9.07242 11.8639 9.40467 11.8729 9.73614 11.8748C9.81401 11.8752 9.8915 11.8748 9.97916 11.8748L9.97838 11.8744ZM13.7415 12.5041C13.7415 12.2994 13.7431 12.0943 13.7415 11.8897C13.7384 11.5257 13.4844 11.2577 13.1216 11.251C12.7072 11.2436 12.2928 11.244 11.8783 11.251C11.523 11.2569 11.2581 11.5175 11.251 11.8717C11.2428 12.2908 11.2424 12.7103 11.251 13.1294C11.2588 13.486 11.5265 13.7395 11.8819 13.7415C12.2912 13.7438 12.7009 13.7438 13.1103 13.7415C13.4828 13.7395 13.738 13.4801 13.7411 13.1036C13.7427 12.9036 13.7415 12.7037 13.7415 12.5041Z" fill="black"/>
</svg>
