<svg width="16" height="15" viewBox="0 0 16 15" fill="none" xmlns="http://www.w3.org/2000/svg">
<g clip-path="url(#clip0_135_141)">
<path d="M7.58983 4.59998C7.58983 5.08976 7.58903 5.57954 7.58983 6.06932C7.59141 6.87479 8.13354 7.41493 8.94218 7.41533C9.90191 7.41612 10.8616 7.41533 11.8218 7.41533C12.8632 7.41612 13.6972 8.17836 13.7448 9.21662C13.7579 9.50335 13.6853 9.80792 13.5921 10.0839C12.7058 12.7081 10.9033 14.3492 8.18906 14.8739C4.73085 15.5421 1.38091 13.4803 0.323216 10.1311C-0.87883 6.32473 1.3821 2.29186 5.25791 1.30913C6.42625 1.01288 7.58427 1.90955 7.58903 3.11557C7.59102 3.6105 7.58903 4.10504 7.58903 4.59998H7.58983ZM6.34138 4.68604C6.33384 4.68604 6.32631 4.68604 6.31877 4.68604C6.31877 4.17643 6.32314 3.66722 6.31758 3.158C6.31283 2.72176 5.95193 2.4501 5.53235 2.55718C2.61944 3.30315 0.778891 6.24898 1.39042 9.18608C2.02575 12.239 4.9577 14.229 8.01179 13.6163C10.3108 13.1551 11.7758 11.7329 12.4432 9.48867C12.4678 9.40539 12.4825 9.31219 12.4726 9.22693C12.4353 8.90847 12.1731 8.69035 11.8325 8.68995C10.8731 8.68797 9.91341 8.69273 8.95407 8.68638C8.74785 8.68519 8.53885 8.66655 8.3362 8.62848C7.28446 8.43059 6.41594 7.48354 6.34812 6.4207C6.31124 5.84486 6.34138 5.26466 6.34138 4.68644V4.68604Z" fill="black"/>
<path d="M12.1692 6.13952C11.6405 6.13952 11.1107 6.15895 10.5828 6.13516C9.77021 6.09788 9.02464 5.40148 8.89812 4.59245C8.87909 4.47109 8.86838 4.34696 8.86838 4.22442C8.866 3.25556 8.8664 2.28631 8.86719 1.31746C8.86798 0.422365 9.64767 -0.195909 10.5035 0.0575078C12.7989 0.736856 14.2897 2.2411 14.9678 4.53256C15.2173 5.3753 14.5962 6.14071 13.6964 6.15261C13.1872 6.15935 12.678 6.1538 12.1688 6.1538V6.14031L12.1692 6.13952ZM10.1355 1.27661C10.1355 1.34284 10.1355 1.39638 10.1355 1.45031C10.1367 2.34976 10.1513 3.24961 10.1331 4.14867C10.1244 4.56945 10.3929 4.88949 10.8624 4.88195C11.7666 4.86768 12.6712 4.87799 13.5758 4.87759C13.6274 4.87759 13.6789 4.87323 13.7337 4.87085C13.3506 3.27262 11.9693 1.73982 10.1355 1.27661Z" fill="black"/>
</g>
<defs>
<clipPath id="clip0_135_141">
<rect width="15.0238" height="15" fill="white"/>
</clipPath>
</defs>
</svg>
