<svg width="25" height="25" viewBox="0 0 25 25" fill="none" xmlns="http://www.w3.org/2000/svg">
<mask id="mask0_135_97" style="mask-type:alpha" maskUnits="userSpaceOnUse" x="0" y="0" width="25" height="25">
<rect width="25" height="25" fill="#D9D9D9"/>
</mask>
<g mask="url(#mask0_135_97)">
<path d="M12.5 20.0722C12.0703 20.0722 11.7025 19.9191 11.3966 19.6131C11.0905 19.3072 10.9375 18.9394 10.9375 18.5097C10.9375 18.08 11.0905 17.7121 11.3966 17.406C11.7025 17.1001 12.0703 16.9472 12.5 16.9472C12.9297 16.9472 13.2975 17.1001 13.6034 17.406C13.9095 17.7121 14.0625 18.08 14.0625 18.5097C14.0625 18.9394 13.9095 19.3072 13.6034 19.6131C13.2975 19.9191 12.9297 20.0722 12.5 20.0722ZM12.5 14.0625C12.0703 14.0625 11.7025 13.9095 11.3966 13.6034C11.0905 13.2975 10.9375 12.9297 10.9375 12.5C10.9375 12.0704 11.0905 11.7026 11.3966 11.3967C11.7025 11.0906 12.0703 10.9375 12.5 10.9375C12.9297 10.9375 13.2975 11.0906 13.6034 11.3967C13.9095 11.7026 14.0625 12.0704 14.0625 12.5C14.0625 12.9297 13.9095 13.2975 13.6034 13.6034C13.2975 13.9095 12.9297 14.0625 12.5 14.0625ZM12.5 8.0529C12.0703 8.0529 11.7025 7.89995 11.3966 7.59405C11.0905 7.28797 10.9375 6.92009 10.9375 6.4904C10.9375 6.06071 11.0905 5.69292 11.3966 5.38702C11.7025 5.08094 12.0703 4.9279 12.5 4.9279C12.9297 4.9279 13.2975 5.08094 13.6034 5.38702C13.9095 5.69292 14.0625 6.06071 14.0625 6.4904C14.0625 6.92009 13.9095 7.28797 13.6034 7.59405C13.2975 7.89995 12.9297 8.0529 12.5 8.0529Z" fill="#1C1B1F"/>
</g>
</svg>
