<svg width="15" height="15" viewBox="0 0 15 15" fill="none" xmlns="http://www.w3.org/2000/svg">
<g clip-path="url(#clip0_135_151)">
<path d="M2.78127 15C2.50165 14.923 2.20913 14.8768 1.94476 14.7634C0.851712 14.2953 0.208006 13.4658 0.0296768 12.286C0.00503922 12.1233 0.00230171 11.9559 0.00191063 11.7909C-0.000826878 10.986 -4.47317e-05 10.1812 0.000737415 9.37598C0.00191063 8.34081 0.833332 7.50782 1.86655 7.50626C2.48601 7.50548 3.10547 7.50548 3.72532 7.50626C4.4402 7.50704 4.9791 8.03381 5.00295 8.75378C5.02407 9.39279 5.42062 9.86286 6.04399 9.98136C6.12455 9.99661 6.20902 9.99622 6.29154 9.99661C7.09168 9.99778 7.89181 9.99818 8.69156 9.99661C9.44202 9.99544 9.96059 9.49213 9.98601 8.7444C10.0103 8.03499 10.5515 7.50704 11.2574 7.50587C11.8768 7.50508 12.4963 7.50508 13.1162 7.50587C14.0301 7.50704 14.7935 8.14723 14.9608 9.05021C14.9652 9.0729 14.9788 9.09362 14.9882 9.11552V12.2187C14.9792 12.2406 14.9655 12.2617 14.9616 12.2844C14.7387 13.6285 13.9679 14.4936 12.6719 14.8956C12.5206 14.9425 12.3622 14.9656 12.2073 15H2.78127ZM3.7394 8.7659C3.69247 8.76395 3.65453 8.76082 3.61621 8.76082C3.04055 8.76082 2.46489 8.76004 1.88923 8.76238C1.51419 8.76395 1.25726 9.02167 1.25647 9.39788C1.25491 10.2367 1.25217 11.076 1.25726 11.9148C1.26351 12.9093 2.09141 13.7407 3.08787 13.7423C6.02444 13.7466 8.96101 13.7466 11.8976 13.7423C12.9026 13.7407 13.7251 12.9105 13.7309 11.9031C13.736 11.0689 13.7333 10.2348 13.7317 9.40062C13.7309 9.01776 13.4728 8.76317 13.0872 8.76199C12.5166 8.76043 11.9457 8.76121 11.3751 8.76199C11.3329 8.76199 11.291 8.76747 11.2472 8.7706C11.2445 8.80032 11.2417 8.81948 11.241 8.83825C11.1925 10.1902 10.0975 11.2508 8.74631 11.2527C7.90237 11.2539 7.05843 11.2535 6.2145 11.2527C5.69124 11.2523 5.21609 11.0951 4.7949 10.7889C4.11639 10.295 3.77381 9.61883 3.73901 8.7663L3.7394 8.7659Z" fill="black"/>
<path d="M8.12337 1.9319C8.12337 1.98822 8.12337 2.04414 8.12337 2.10045C8.12337 3.461 8.12415 4.82154 8.12298 6.18248C8.12298 6.55986 7.94699 6.79529 7.6181 6.87037C7.28569 6.94624 6.93255 6.70964 6.88132 6.37332C6.86881 6.29198 6.86646 6.20829 6.86646 6.12538C6.86568 4.78439 6.86568 3.44301 6.86568 2.10202C6.86568 2.0457 6.86568 1.98939 6.86568 1.93308C6.8473 1.92173 6.82852 1.91039 6.81014 1.89944C6.7812 1.94481 6.7593 1.9976 6.72215 2.03515C6.29979 2.46102 5.87509 2.88456 5.45077 3.30848C5.27284 3.48603 5.05892 3.54312 4.82036 3.47508C4.57321 3.40468 4.42695 3.23066 4.37845 2.97998C4.33934 2.77936 4.39449 2.5979 4.53605 2.45516C5.2439 1.74262 5.94783 1.02539 6.67053 0.32772C7.12339 -0.109108 7.86604 -0.10989 8.31969 0.32772C9.04278 1.025 9.74828 1.74028 10.4538 2.45555C10.6962 2.70153 10.6755 3.084 10.4319 3.32412C10.1929 3.55955 9.80889 3.56737 9.56173 3.32647C9.12569 2.90059 8.69746 2.46689 8.26767 2.03436C8.23052 1.99682 8.20784 1.94481 8.17851 1.89944C8.16013 1.91039 8.14214 1.92134 8.12376 1.93229L8.12337 1.9319Z" fill="black"/>
</g>
<defs>
<clipPath id="clip0_135_151">
<rect width="14.9883" height="15" fill="white"/>
</clipPath>
</defs>
</svg>
