<svg width="28" height="28" viewBox="0 0 28 28" fill="none" xmlns="http://www.w3.org/2000/svg">
<g clip-path="url(#clip0_1_13121)">
<path d="M28.0017 13.2357C27.9618 13.3541 27.9228 13.4728 27.8818 13.5909C27.5523 14.5473 26.7087 15.1643 25.6231 15.1702C22.9354 15.1855 20.2477 15.1897 17.5603 15.1693C16.1283 15.1586 15.1611 14.1429 15.1606 12.7137C15.1586 9.2965 15.1589 5.87906 15.1606 2.4619C15.1614 1.005 16.1613 0.00311174 17.6086 0.0025465C19.1574 0.00198126 20.7064 -0.000562318 22.2552 0.00339436C25.1062 0.0104599 27.593 2.21574 27.9502 5.04675C27.9567 5.09818 27.9842 5.14708 28.002 5.1971V13.2354L28.0017 13.2357ZM25.6579 12.8097C25.6579 12.7035 25.6579 12.6136 25.6579 12.5237C25.6573 10.3105 25.6602 8.09735 25.6557 5.88387C25.6514 3.86737 24.1309 2.35281 22.1107 2.34829C20.6719 2.34518 19.2331 2.34773 17.7943 2.34773C17.7061 2.34773 17.6179 2.34773 17.519 2.34773V12.8097H25.6579Z" fill="white"/>
<path d="M5.20387 28.0001C4.76609 27.8901 4.31107 27.8246 3.89336 27.6626C1.71944 26.8198 0.423914 25.2488 0.0638567 22.9316C0.0248552 22.6812 0.0129851 22.4243 0.0127025 22.1705C0.00902846 19.8742 0.0384209 17.5776 -0.00114585 15.2819C-0.0214945 14.1147 0.847561 12.8321 2.37795 12.829C5.07442 12.8237 7.77147 12.8112 10.4677 12.8341C11.8974 12.8463 12.8507 13.8651 12.8513 15.3036C12.853 18.7115 12.8527 22.1196 12.8513 25.5274C12.8507 26.7791 12.1795 27.6377 10.9583 27.9585C10.9334 27.965 10.9125 27.9859 10.8896 28.0001H5.20387ZM10.4985 25.6546V15.1988H2.35506C2.35506 15.3025 2.35506 15.3839 2.35506 15.4653C2.35506 17.6875 2.35195 19.9098 2.35619 22.1323C2.36014 24.1287 3.88544 25.6475 5.8878 25.654C7.00783 25.6577 8.12785 25.6546 9.24787 25.6546C9.65626 25.6546 10.0644 25.6546 10.4987 25.6546H10.4985Z" fill="white"/>
<path d="M17.1222 28C16.6401 27.8564 16.1839 27.6704 15.827 27.2929C15.4011 26.8427 15.1685 26.3079 15.1651 25.6944C15.1543 23.7367 15.1504 21.779 15.1645 19.8215C15.1741 18.5113 16.2156 17.5029 17.5264 17.5021C20.2118 17.5001 22.8973 17.5009 25.583 17.5018C26.7774 17.5021 27.6354 18.1651 27.95 19.3261C27.9587 19.358 27.9842 19.3854 28.0017 19.4151V22.8054C27.9847 22.8461 27.9593 22.8857 27.9522 22.9281C27.5359 25.4394 26.0957 27.0546 23.6756 27.8055C23.3933 27.8931 23.0974 27.9364 22.8077 28.0003H17.1219L17.1222 28ZM17.5139 25.6438C17.5919 25.6483 17.6454 25.654 17.6988 25.654C19.2292 25.654 20.7598 25.6621 22.2902 25.6503C23.8944 25.6378 25.3759 24.3728 25.5892 22.7769C25.685 22.0599 25.6401 21.3239 25.6556 20.5965C25.661 20.3537 25.6565 20.1106 25.6565 19.8648H17.5137V25.6441L17.5139 25.6438Z" fill="white"/>
<path d="M6.42026 10.501C5.07216 10.501 3.72378 10.5027 2.37568 10.5005C1.02645 10.4982 0.0129798 9.48274 0.0107188 8.13295C0.00930572 7.31279 0.00732738 6.49291 0.0115667 5.67275C0.0254151 3.04127 2.07695 0.589544 4.6714 0.119547C5.07159 0.0469135 5.48365 0.0113034 5.89063 0.00791194C7.42101 -0.00480596 8.9514 0.00141168 10.4818 0.00339002C11.7957 0.00508574 12.8366 1.00839 12.847 2.32229C12.8626 4.28112 12.8646 6.24025 12.8459 8.19908C12.8335 9.49772 11.7895 10.4985 10.4922 10.5007C9.13482 10.5033 7.77768 10.5013 6.42026 10.5013V10.501ZM10.4968 2.34885C8.90166 2.34885 7.33566 2.34066 5.76938 2.35111C3.91087 2.36355 2.37229 3.91118 2.35646 5.77166C2.35025 6.4915 2.35449 7.21133 2.35562 7.93116C2.35562 8.00069 2.36805 8.06993 2.37427 8.1355H10.4968V2.34885Z" fill="white"/>
</g>
<defs>
<clipPath id="clip0_1_13121">
<rect width="28.0034" height="28" fill="white" transform="translate(-0.00170898)"/>
</clipPath>
</defs>
</svg>
