<svg width="30" height="30" viewBox="0 0 30 30" fill="none" xmlns="http://www.w3.org/2000/svg">
<mask id="mask0_1_13127" style="mask-type:alpha" maskUnits="userSpaceOnUse" x="0" y="0" width="30" height="30">
<rect x="30" width="30" height="30" transform="rotate(90 30 0)" fill="#D9D9D9"/>
</mask>
<g mask="url(#mask0_1_13127)">
<path d="M15 11.024L5.3556 20.6681C5.17144 20.8525 4.95112 20.9435 4.69466 20.9412C4.4382 20.9387 4.21789 20.8453 4.03373 20.6609C3.84935 20.4767 3.75716 20.2564 3.75716 20C3.75716 19.7435 3.84935 19.5232 4.03373 19.339L13.5794 9.78591C13.7812 9.58403 14.0063 9.43664 14.2547 9.34372C14.5032 9.2508 14.7516 9.20435 15 9.20435C15.2483 9.20435 15.4967 9.2508 15.7453 9.34372C15.9936 9.43664 16.2187 9.58403 16.4206 9.78591L25.9734 19.339C26.1578 19.5232 26.2487 19.7448 26.2462 20.0037C26.2439 20.2625 26.1506 20.4839 25.9662 20.6681C25.7821 20.8525 25.5617 20.9447 25.3053 20.9447C25.0488 20.9447 24.8285 20.8525 24.6444 20.6681L15 11.024Z" fill="#1C1B1F"/>
</g>
</svg>
